<svg id="avgroup" xmlns="http://www.w3.org/2000/svg" xmlns:xlink="http://www.w3.org/1999/xlink" width="188.251" height="43.341" viewBox="0 0 188.251 43.341">
  <defs>
    <clipPath id="clip-path">
      <path id="Path_217" data-name="Path 217" d="M1081.106,1370.036l1.563-4.144a.59.59,0,0,1,1.1,0l1.564,4.144a.59.59,0,0,1-.552.8h-3.127a.589.589,0,0,1-.552-.8m1.9-7.108a.589.589,0,0,0-.55.378l-4.149,10.8a.59.59,0,1,0,1.1.42l.823-2.18a.59.59,0,0,1,.552-.382h4.869a.591.591,0,0,1,.552.382l.822,2.18a.59.59,0,1,0,1.1-.42l-4.149-10.8a.591.591,0,0,0-.551-.378Z" transform="translate(-1078.271 -1362.928)" fill="#fff"/>
    </clipPath>
    <clipPath id="clip-path-2">
      <path id="Path_229" data-name="Path 229" d="M1120.722,1362.928a.607.607,0,0,0-.572.4l-3.013,8.373a.608.608,0,0,1-1.145,0l-3.013-8.373a.608.608,0,1,0-1.143.416l3.966,10.761a.608.608,0,0,0,.571.4h.383a.607.607,0,0,0,.571-.4l3.967-10.761a.609.609,0,0,0-.571-.819Z" transform="translate(-1111.797 -1362.928)" fill="#fff"/>
    </clipPath>
    <clipPath id="clip-path-3">
      <path id="Path_242" data-name="Path 242" d="M1156.518,1364.251a6.2,6.2,0,0,0,4.5,10.592,5.884,5.884,0,0,0,4.26-1.531,5.007,5.007,0,0,0,1.592-3.756v-.052a.565.565,0,0,0-.565-.565h-7.5a.565.565,0,1,0,0,1.129h6.149a.563.563,0,0,1,.547.71,3.788,3.788,0,0,1-1.248,1.882,5.13,5.13,0,1,1-3.234-9.043,4.761,4.761,0,0,1,2.447.651,4.3,4.3,0,0,1,1.4,1.288.568.568,0,0,0,.753.178l.071-.041a.563.563,0,0,0,.183-.81,5.733,5.733,0,0,0-1.811-1.626,5.967,5.967,0,0,0-3.046-.8,6.069,6.069,0,0,0-4.5,1.8" transform="translate(-1154.738 -1362.454)" fill="#fff"/>
    </clipPath>
    <clipPath id="clip-path-4">
      <path id="Path_259" data-name="Path 259" d="M1198.9,1368.815v-4.586a.171.171,0,0,1,.17-.171h3.423a2.281,2.281,0,0,1,1.694.719,2.4,2.4,0,0,1,.7,1.649,2.547,2.547,0,0,1-.747,1.881,2.261,2.261,0,0,1-1.648.68h-3.423a.171.171,0,0,1-.17-.171m-1.027-5.887a.171.171,0,0,0-.171.171v11.636a.171.171,0,0,0,.171.171h.856a.171.171,0,0,0,.171-.171v-4.449a.171.171,0,0,1,.17-.171h3.1a.169.169,0,0,1,.147.085l2.7,4.622a.171.171,0,0,0,.147.084h.972a.171.171,0,0,0,.147-.258l-2.666-4.505a.17.17,0,0,1,.1-.247,3.5,3.5,0,0,0,1.653-1.21,3.593,3.593,0,0,0-.1-4.46,3.813,3.813,0,0,0-2.924-1.3Z" transform="translate(-1197.704 -1362.928)" fill="#fff"/>
    </clipPath>
    <clipPath id="clip-path-5">
      <path id="Path_280" data-name="Path 280" d="M1233.086,1372.216a5.147,5.147,0,0,1,0-7.136,5.061,5.061,0,0,1,7.118,0,5.146,5.146,0,0,1,0,7.136,5.06,5.06,0,0,1-7.118,0m-.838-7.957a6.258,6.258,0,1,0,4.4-1.806,5.989,5.989,0,0,0-4.4,1.806" transform="translate(-1230.451 -1362.454)" fill="#fff"/>
    </clipPath>
    <clipPath id="clip-path-6">
      <path id="Path_291" data-name="Path 291" d="M1281.118,1363.527v7.306a3.038,3.038,0,0,1-.856,2.276,3.839,3.839,0,0,1-4.791,0,3.039,3.039,0,0,1-.855-2.276v-7.306a.6.6,0,1,0-1.2,0v7.306a4.084,4.084,0,0,0,1.231,3.115,5.03,5.03,0,0,0,6.434,0,4.082,4.082,0,0,0,1.232-3.115v-7.306a.6.6,0,1,0-1.2,0" transform="translate(-1273.418 -1362.928)" fill="#fff"/>
    </clipPath>
    <clipPath id="clip-path-7">
      <path id="Path_307" data-name="Path 307" d="M1311.308,1368.729v-4.073a.6.6,0,0,1,.6-.6h2.481a2.464,2.464,0,0,1,1.839.745,2.821,2.821,0,0,1,0,3.781,2.462,2.462,0,0,1-1.839.744h-2.481a.6.6,0,0,1-.6-.6m-.6-5.8a.6.6,0,0,0-.6.6v10.78a.6.6,0,1,0,1.2,0v-3.251a.6.6,0,0,1,.6-.6h2.481a3.765,3.765,0,1,0,0-7.529Z" transform="translate(-1310.111 -1362.928)" fill="#fff"/>
    </clipPath>
  </defs>
  <path id="Path_210" data-name="Path 210" d="M922.667,1366.161a.544.544,0,0,1-.248-.06.64.64,0,0,1-.278-.827l18.21-41.193a2,2,0,0,1,3.718,0l18.03,40.285a.866.866,0,0,0,1.612,0l18.211-41.2a.567.567,0,0,1,.775-.3.64.64,0,0,1,.278.828l-18.21,41.193a2,2,0,0,1-3.718,0l-18.029-40.285a.866.866,0,0,0-1.612,0L923.194,1365.8a.581.581,0,0,1-.527.357" transform="translate(-922.085 -1322.82)" fill="#fff"/>
  <path id="Path_211" data-name="Path 211" d="M931.59,1366.161a.544.544,0,0,1-.248-.06.64.64,0,0,1-.278-.827l18.21-41.193a2,2,0,0,1,3.718,0l18.029,40.285a.866.866,0,0,0,1.612,0l18.211-41.2a.568.568,0,0,1,.775-.3.641.641,0,0,1,.278.828l-18.21,41.193a2,2,0,0,1-3.718,0l-18.029-40.285a.866.866,0,0,0-1.611,0L932.117,1365.8a.581.581,0,0,1-.527.357" transform="translate(-927.138 -1322.82)" fill="#fff"/>
  <path id="Path_212" data-name="Path 212" d="M1087.03,1374.524l-.822-2.18a.59.59,0,0,0-.552-.382h-4.869a.589.589,0,0,0-.552.382l-.823,2.18a.59.59,0,1,1-1.1-.42l4.149-10.8a.589.589,0,0,1,.55-.379h.422a.59.59,0,0,1,.55.379l4.15,10.8a.59.59,0,0,1-.55.8h0a.589.589,0,0,1-.552-.381m-5.372-3.691h3.127a.59.59,0,0,0,.552-.8l-1.563-4.144a.59.59,0,0,0-1.1,0l-1.563,4.144a.59.59,0,0,0,.552.8" transform="translate(-1005.681 -1343.864)" fill="#fff"/>
  <g id="Group_105" data-name="Group 105" transform="translate(72.59 19.064)">
    <path id="Path_213" data-name="Path 213" d="M1081.106,1370.036l1.563-4.144a.59.59,0,0,1,1.1,0l1.564,4.144a.59.59,0,0,1-.552.8h-3.127a.589.589,0,0,1-.552-.8m1.9-7.108a.589.589,0,0,0-.55.378l-4.149,10.8a.59.59,0,1,0,1.1.42l.823-2.18a.59.59,0,0,1,.552-.382h4.869a.591.591,0,0,1,.552.382l.822,2.18a.59.59,0,1,0,1.1-.42l-4.149-10.8a.591.591,0,0,0-.551-.378Z" transform="translate(-1078.271 -1362.928)" fill="#fff"/>
    <g id="Group_104" data-name="Group 104" clip-path="url(#clip-path)">
      <rect id="Rectangle_153" data-name="Rectangle 153" width="4.522" height="5.45" transform="translate(2.69 2.455)" fill="#fff"/>
      <path id="Path_214" data-name="Path 214" d="M1085.446,1362.928l2.693,1.2v5.209l-2.488,5.565h-7.631v-11.978Z" transform="translate(-1078.128 -1362.928)" fill="#fff"/>
      <path id="Path_215" data-name="Path 215" d="M1098.1,1382.05l-.55,1.23h-1.938l2.488-5.565Z" transform="translate(-1088.094 -1371.303)" fill="#fff"/>
      <path id="Path_216" data-name="Path 216" d="M1100.084,1388.941l.55-1.23v1.23Z" transform="translate(-1090.624 -1376.963)" fill="#fff"/>
    </g>
  </g>
  <path id="Path_218" data-name="Path 218" d="M1115.8,1374.508l-3.966-10.761a.609.609,0,1,1,1.144-.417l3.013,8.374a.608.608,0,0,0,1.145,0l3.013-8.374a.609.609,0,1,1,1.144.417l-3.966,10.761a.609.609,0,0,1-.571.4h-.384a.608.608,0,0,1-.571-.4" transform="translate(-1023.638 -1343.864)" fill="#fff"/>
  <g id="Group_107" data-name="Group 107" transform="translate(88.159 19.064)">
    <path id="Path_219" data-name="Path 219" d="M1120.722,1362.928a.607.607,0,0,0-.572.4l-3.013,8.373a.608.608,0,0,1-1.145,0l-3.013-8.373a.608.608,0,1,0-1.143.416l3.966,10.761a.608.608,0,0,0,.571.4h.383a.607.607,0,0,0,.571-.4l3.967-10.761a.609.609,0,0,0-.571-.819Z" transform="translate(-1111.797 -1362.928)" fill="#fff"/>
    <g id="Group_106" data-name="Group 106" clip-path="url(#clip-path-2)">
      <path id="Path_220" data-name="Path 220" d="M1112.827,1362.928l-1.28,2.862v-2.862Z" transform="translate(-1111.656 -1362.928)" fill="#fff"/>
      <path id="Path_221" data-name="Path 221" d="M1114.761,1362.928l-3.214,7.19v-4.327l1.28-2.862Z" transform="translate(-1111.656 -1362.928)" fill="#fff"/>
      <path id="Path_222" data-name="Path 222" d="M1116.7,1362.928l-4.9,10.963-.247-.11v-3.663l3.214-7.19Z" transform="translate(-1111.656 -1362.928)" fill="#fff"/>
      <path id="Path_223" data-name="Path 223" d="M1118.953,1362.928l-5.223,11.684-1.613-.721,4.9-10.963Z" transform="translate(-1111.979 -1362.928)" fill="#fff"/>
      <path id="Path_224" data-name="Path 224" d="M1122.992,1362.928l-5.354,11.978h-1.146l-.657-.294,5.223-11.684Z" transform="translate(-1114.084 -1362.928)" fill="#fff"/>
      <path id="Path_225" data-name="Path 225" d="M1126.081,1365.614l-4.154,9.292h-1.934l5.354-11.977h.734Z" transform="translate(-1116.438 -1362.929)" fill="#fff"/>
      <path id="Path_226" data-name="Path 226" d="M1128.606,1373.448l-2.22,4.965h-1.934l4.154-9.292Z" transform="translate(-1118.964 -1366.435)" fill="#fff"/>
      <path id="Path_227" data-name="Path 227" d="M1131.132,1383.425l-.285.638h-1.934l2.219-4.965Z" transform="translate(-1121.49 -1372.086)" fill="#fff"/>
      <path id="Path_228" data-name="Path 228" d="M1133.373,1389.714l.285-.638v.638Z" transform="translate(-1124.016 -1377.735)" fill="#fff"/>
    </g>
  </g>
  <path id="Path_230" data-name="Path 230" d="M1166.305,1368.94a.565.565,0,0,1,.565.565v.052a5.009,5.009,0,0,1-1.592,3.756,5.886,5.886,0,0,1-4.26,1.531,6.2,6.2,0,1,1,0-12.388,5.962,5.962,0,0,1,3.046.8,5.733,5.733,0,0,1,1.812,1.625.563.563,0,0,1-.183.81l-.071.041a.567.567,0,0,1-.753-.179,4.31,4.31,0,0,0-1.4-1.288,4.759,4.759,0,0,0-2.447-.651,5.034,5.034,0,1,0,3.234,9.044,3.789,3.789,0,0,0,1.248-1.882.563.563,0,0,0-.547-.71H1158.8a.565.565,0,1,1,0-1.129Z" transform="translate(-1046.51 -1343.592)" fill="#fff"/>
  <g id="Group_109" data-name="Group 109" transform="translate(108.228 18.862)">
    <path id="Path_231" data-name="Path 231" d="M1156.518,1364.251a6.2,6.2,0,0,0,4.5,10.592,5.884,5.884,0,0,0,4.26-1.531,5.007,5.007,0,0,0,1.592-3.756v-.052a.565.565,0,0,0-.565-.565h-7.5a.565.565,0,1,0,0,1.129h6.149a.563.563,0,0,1,.547.71,3.788,3.788,0,0,1-1.248,1.882,5.13,5.13,0,1,1-3.234-9.043,4.761,4.761,0,0,1,2.447.651,4.3,4.3,0,0,1,1.4,1.288.568.568,0,0,0,.753.178l.071-.041a.563.563,0,0,0,.183-.81,5.733,5.733,0,0,0-1.811-1.626,5.967,5.967,0,0,0-3.046-.8,6.069,6.069,0,0,0-4.5,1.8" transform="translate(-1154.738 -1362.454)" fill="#fff"/>
    <g id="Group_108" data-name="Group 108" transform="translate(0 0)" clip-path="url(#clip-path-3)">
      <path id="Path_232" data-name="Path 232" d="M1155.227,1362.455l-.489,1.095v-1.095Z" transform="translate(-1154.738 -1362.454)" fill="#fff"/>
      <path id="Path_233" data-name="Path 233" d="M1157.254,1362.455l-2.516,5.629v-4.534l.489-1.095Z" transform="translate(-1154.738 -1362.454)" fill="#fff"/>
      <path id="Path_234" data-name="Path 234" d="M1159.281,1362.455l-4.543,10.163v-4.534l2.516-5.629Z" transform="translate(-1154.738 -1362.454)" fill="#fff"/>
      <path id="Path_235" data-name="Path 235" d="M1161.308,1362.455,1156,1374.336l-1.259-.563v-1.155l4.543-10.163Z" transform="translate(-1154.738 -1362.454)" fill="#fff"/>
      <path id="Path_236" data-name="Path 236" d="M1164.979,1362.455l-5.538,12.389h-.666l-1.135-.508,5.311-11.881Z" transform="translate(-1156.382 -1362.454)" fill="#fff"/>
      <path id="Path_237" data-name="Path 237" d="M1168.446,1362.455l.76.339-5.386,12.049h-2.027l5.538-12.389Z" transform="translate(-1158.733 -1362.454)" fill="#fff"/>
      <path id="Path_238" data-name="Path 238" d="M1171.852,1363.238l1.659.742v.081l-5.018,11.226h-2.027Z" transform="translate(-1161.38 -1362.898)" fill="#fff"/>
      <path id="Path_239" data-name="Path 239" d="M1176.159,1369.67l-2.991,6.691h-2.027l5.018-11.226Z" transform="translate(-1164.027 -1363.973)" fill="#fff"/>
      <path id="Path_240" data-name="Path 240" d="M1178.806,1380.126l-.964,2.157h-2.027l2.991-6.691Z" transform="translate(-1166.674 -1369.894)" fill="#fff"/>
      <path id="Path_241" data-name="Path 241" d="M1180.489,1388.2l.964-2.157v2.157Z" transform="translate(-1169.321 -1375.816)" fill="#fff"/>
    </g>
  </g>
  <path id="Path_243" data-name="Path 243" d="M1205.012,1374.821l-2.7-4.622a.17.17,0,0,0-.147-.085h-3.1a.171.171,0,0,0-.171.17v4.449a.171.171,0,0,1-.171.171h-.856a.171.171,0,0,1-.171-.171V1363.1a.171.171,0,0,1,.171-.171h4.464a3.815,3.815,0,0,1,2.924,1.3,3.593,3.593,0,0,1,.1,4.46,3.5,3.5,0,0,1-1.653,1.21.17.17,0,0,0-.1.247l2.666,4.505a.171.171,0,0,1-.147.258h-.971a.171.171,0,0,1-.147-.084m-6.111-10.593v4.586a.171.171,0,0,0,.171.171h3.422a2.26,2.26,0,0,0,1.647-.68,2.547,2.547,0,0,0,.747-1.881,2.393,2.393,0,0,0-.7-1.648,2.28,2.28,0,0,0-1.694-.719h-3.422a.171.171,0,0,0-.171.171" transform="translate(-1069.672 -1343.864)" fill="#fff"/>
  <g id="Group_111" data-name="Group 111" transform="translate(128.032 19.064)">
    <path id="Path_244" data-name="Path 244" d="M1198.9,1368.815v-4.586a.171.171,0,0,1,.17-.171h3.423a2.281,2.281,0,0,1,1.694.719,2.4,2.4,0,0,1,.7,1.649,2.547,2.547,0,0,1-.747,1.881,2.261,2.261,0,0,1-1.648.68h-3.423a.171.171,0,0,1-.17-.171m-1.027-5.887a.171.171,0,0,0-.171.171v11.636a.171.171,0,0,0,.171.171h.856a.171.171,0,0,0,.171-.171v-4.449a.171.171,0,0,1,.17-.171h3.1a.169.169,0,0,1,.147.085l2.7,4.622a.171.171,0,0,0,.147.084h.972a.171.171,0,0,0,.147-.258l-2.666-4.505a.17.17,0,0,1,.1-.247,3.5,3.5,0,0,0,1.653-1.21,3.593,3.593,0,0,0-.1-4.46,3.813,3.813,0,0,0-2.924-1.3Z" transform="translate(-1197.704 -1362.928)" fill="#fff"/>
    <g id="Group_110" data-name="Group 110" transform="translate(0)" clip-path="url(#clip-path-4)">
      <path id="Path_245" data-name="Path 245" d="M1200.78,1365.533l-.314.7v-.7Z" transform="translate(-1199.268 -1364.403)" fill="#fff"/>
      <path id="Path_246" data-name="Path 246" d="M1202.772,1365.533l-2.2,4.928h-.1v-4.226l.313-.7Z" transform="translate(-1199.268 -1364.403)" fill="#fff"/>
      <path id="Path_247" data-name="Path 247" d="M1204.9,1365.533l-2.2,4.928H1200.7l2.2-4.928Z" transform="translate(-1199.402 -1364.403)" fill="#fff"/>
      <path id="Path_248" data-name="Path 248" d="M1209.211,1366.157l-1.923,4.3H1205.3l2.2-4.928h1.713Z" transform="translate(-1202.003 -1364.403)" fill="#fff"/>
      <path id="Path_249" data-name="Path 249" d="M1209.89,1371.277l1.923-4.3v4.3Z" transform="translate(-1204.605 -1365.219)" fill="#fff"/>
      <path id="Path_250" data-name="Path 250" d="M1197.728,1362.928l-.024.054v-.054Z" transform="translate(-1197.704 -1362.928)" fill="#fff"/>
      <path id="Path_251" data-name="Path 251" d="M1199.72,1362.928l-2.016,4.51v-4.456l.024-.054Z" transform="translate(-1197.704 -1362.928)" fill="#fff"/>
      <path id="Path_252" data-name="Path 252" d="M1201.713,1362.928l-4.008,8.966v-4.456l2.016-4.51Z" transform="translate(-1197.704 -1362.928)" fill="#fff"/>
      <path id="Path_253" data-name="Path 253" d="M1203.7,1362.928l-5.354,11.978h-.646v-3.012l4.008-8.966Z" transform="translate(-1197.704 -1362.928)" fill="#fff"/>
      <path id="Path_254" data-name="Path 254" d="M1206.3,1362.928l.2.091-5.314,11.887h-1.992l5.355-11.978Z" transform="translate(-1198.547 -1362.928)" fill="#fff"/>
      <path id="Path_255" data-name="Path 255" d="M1209.1,1363.137l.69.308v2.605l-4.012,8.974h-1.992Z" transform="translate(-1201.149 -1363.047)" fill="#fff"/>
      <path id="Path_256" data-name="Path 256" d="M1212.392,1374.312l-2.019,4.518h-1.992l4.012-8.974Z" transform="translate(-1203.75 -1366.851)" fill="#fff"/>
      <path id="Path_257" data-name="Path 257" d="M1214.993,1384.587l-.027.061h-1.992l2.019-4.517Z" transform="translate(-1206.352 -1372.67)" fill="#fff"/>
      <path id="Path_258" data-name="Path 258" d="M1217.567,1390.468l.027-.061v.061Z" transform="translate(-1208.953 -1378.49)" fill="#fff"/>
    </g>
  </g>
  <path id="Path_260" data-name="Path 260" d="M1241.043,1373.037a6.258,6.258,0,1,1,1.8-4.389,5.966,5.966,0,0,1-1.8,4.389m-7.956-.822a5.06,5.06,0,0,0,7.118,0,5.146,5.146,0,0,0,0-7.135,5.06,5.06,0,0,0-7.118,0,5.146,5.146,0,0,0,0,7.135" transform="translate(-1086.987 -1343.592)" fill="#fff"/>
  <g id="Group_113" data-name="Group 113" transform="translate(143.464 18.862)">
    <path id="Path_261" data-name="Path 261" d="M1233.086,1372.216a5.147,5.147,0,0,1,0-7.136,5.061,5.061,0,0,1,7.118,0,5.146,5.146,0,0,1,0,7.136,5.06,5.06,0,0,1-7.118,0m-.838-7.957a6.258,6.258,0,1,0,4.4-1.806,5.989,5.989,0,0,0-4.4,1.806" transform="translate(-1230.451 -1362.454)" fill="#fff"/>
    <g id="Group_112" data-name="Group 112" transform="translate(0 0)" clip-path="url(#clip-path-5)">
      <path id="Path_262" data-name="Path 262" d="M1233.572,1365.138l-.359.8v-.8Z" transform="translate(-1232.015 -1363.974)" fill="#fff"/>
      <path id="Path_263" data-name="Path 263" d="M1235.6,1365.138l-2.387,5.339v-4.536l.359-.8Z" transform="translate(-1232.015 -1363.974)" fill="#fff"/>
      <path id="Path_264" data-name="Path 264" d="M1237.628,1365.138l-4.222,9.443-.193-.086v-4.018l2.387-5.339Z" transform="translate(-1232.015 -1363.974)" fill="#fff"/>
      <path id="Path_265" data-name="Path 265" d="M1239.907,1365.138l-4.5,10.061h-.369l-1.382-.618,4.221-9.443Z" transform="translate(-1232.267 -1363.974)" fill="#fff"/>
      <path id="Path_266" data-name="Path 266" d="M1244.171,1365.138l.043.02-4.489,10.042H1237.7l4.5-10.061Z" transform="translate(-1234.555 -1363.974)" fill="#fff"/>
      <path id="Path_267" data-name="Path 267" d="M1246.862,1365.183l1.531.684v.427l-3.993,8.931h-2.028Z" transform="translate(-1237.203 -1363.999)" fill="#fff"/>
      <path id="Path_268" data-name="Path 268" d="M1251.041,1372.281l-1.965,4.4h-2.028l3.993-8.931Z" transform="translate(-1239.85 -1365.45)" fill="#fff"/>
      <path id="Path_269" data-name="Path 269" d="M1251.725,1382.6l1.964-4.395v4.395Z" transform="translate(-1242.499 -1371.374)" fill="#fff"/>
      <path id="Path_270" data-name="Path 270" d="M1230.5,1362.455l-.049.109v-.109Z" transform="translate(-1230.451 -1362.454)" fill="#fff"/>
      <path id="Path_271" data-name="Path 271" d="M1232.528,1362.455l-2.077,4.646v-4.537l.049-.109Z" transform="translate(-1230.451 -1362.454)" fill="#fff"/>
      <path id="Path_272" data-name="Path 272" d="M1234.556,1362.455l-4.1,9.182V1367.1l2.077-4.646Z" transform="translate(-1230.451 -1362.454)" fill="#fff"/>
      <path id="Path_273" data-name="Path 273" d="M1236.583,1362.455l-5.232,11.7-.9-.4v-2.121l4.1-9.182Z" transform="translate(-1230.451 -1362.454)" fill="#fff"/>
      <path id="Path_274" data-name="Path 274" d="M1239.787,1362.455l-5.538,12.389h-.193l-1.529-.684,5.232-11.7Z" transform="translate(-1231.626 -1362.454)" fill="#fff"/>
      <path id="Path_275" data-name="Path 275" d="M1243.835,1362.455l.191.085-5.5,12.3H1236.5l5.538-12.389Z" transform="translate(-1233.876 -1362.454)" fill="#fff"/>
      <path id="Path_276" data-name="Path 276" d="M1246.673,1362.651l1.69.756-5.162,11.548h-2.028Z" transform="translate(-1236.524 -1362.566)" fill="#fff"/>
      <path id="Path_277" data-name="Path 277" d="M1251.012,1364.394l.548.245v3.065l-3.682,8.238h-2.028Z" transform="translate(-1239.172 -1363.552)" fill="#fff"/>
      <path id="Path_278" data-name="Path 278" d="M1254.208,1376.562l-1.655,3.7h-2.028l3.682-8.237Z" transform="translate(-1241.82 -1367.875)" fill="#fff"/>
      <path id="Path_279" data-name="Path 279" d="M1255.2,1386.188l1.654-3.7v3.7Z" transform="translate(-1244.468 -1373.799)" fill="#fff"/>
    </g>
  </g>
  <path id="Path_281" data-name="Path 281" d="M1281.084,1373.949a5.03,5.03,0,0,1-6.434,0,4.082,4.082,0,0,1-1.232-3.114v-7.306a.6.6,0,1,1,1.2,0v7.306a3.04,3.04,0,0,0,.856,2.276,3.84,3.84,0,0,0,4.791,0,3.041,3.041,0,0,0,.856-2.276v-7.306a.6.6,0,0,1,1.2,0v7.306a4.081,4.081,0,0,1-1.232,3.114" transform="translate(-1109.123 -1343.853)" fill="#fff"/>
  <g id="Group_115" data-name="Group 115" transform="translate(164.295 19.076)">
    <path id="Path_282" data-name="Path 282" d="M1281.118,1363.527v7.306a3.038,3.038,0,0,1-.856,2.276,3.839,3.839,0,0,1-4.791,0,3.039,3.039,0,0,1-.855-2.276v-7.306a.6.6,0,1,0-1.2,0v7.306a4.084,4.084,0,0,0,1.231,3.115,5.03,5.03,0,0,0,6.434,0,4.082,4.082,0,0,0,1.232-3.115v-7.306a.6.6,0,1,0-1.2,0" transform="translate(-1273.418 -1362.928)" fill="#fff"/>
    <g id="Group_114" data-name="Group 114" transform="translate(0)" clip-path="url(#clip-path-6)">
      <path id="Path_283" data-name="Path 283" d="M1275.2,1362.928l-1.786,4v-4Z" transform="translate(-1273.418 -1362.928)" fill="#fff"/>
      <path id="Path_284" data-name="Path 284" d="M1277.2,1362.928l-3.781,8.458v-4.462l1.786-4Z" transform="translate(-1273.418 -1362.928)" fill="#fff"/>
      <path id="Path_285" data-name="Path 285" d="M1279.194,1362.928l-5.333,11.93-.443-.2v-3.274l3.781-8.458Z" transform="translate(-1273.418 -1362.928)" fill="#fff"/>
      <path id="Path_286" data-name="Path 286" d="M1281.766,1362.928l-5.446,12.183H1275l-.566-.253,5.333-11.93Z" transform="translate(-1273.996 -1362.928)" fill="#fff"/>
      <path id="Path_287" data-name="Path 287" d="M1285.351,1364.869l-4.578,10.242h-1.995l5.446-12.183h1.127Z" transform="translate(-1276.454 -1362.928)" fill="#fff"/>
      <path id="Path_288" data-name="Path 288" d="M1287.956,1371.866l-2.584,5.78h-1.995l4.578-10.242Z" transform="translate(-1279.059 -1365.463)" fill="#fff"/>
      <path id="Path_289" data-name="Path 289" d="M1290.561,1382.156l-.589,1.318h-1.995l2.584-5.78Z" transform="translate(-1281.663 -1371.29)" fill="#fff"/>
      <path id="Path_290" data-name="Path 290" d="M1292.577,1389.3l.589-1.318v1.318Z" transform="translate(-1284.268 -1377.117)" fill="#fff"/>
    </g>
  </g>
  <path id="Path_292" data-name="Path 292" d="M1314.389,1362.928a3.765,3.765,0,1,1,0,7.529h-2.481a.6.6,0,0,0-.6.6v3.251a.6.6,0,0,1-1.2,0v-10.78a.6.6,0,0,1,.6-.6Zm0,6.4a2.464,2.464,0,0,0,1.839-.744,2.822,2.822,0,0,0,0-3.782,2.463,2.463,0,0,0-1.839-.744h-2.481a.6.6,0,0,0-.6.6v4.072a.6.6,0,0,0,.6.6Z" transform="translate(-1129.903 -1343.864)" fill="#fff"/>
  <g id="Group_117" data-name="Group 117" transform="translate(180.208 19.064)">
    <path id="Path_293" data-name="Path 293" d="M1311.308,1368.729v-4.073a.6.6,0,0,1,.6-.6h2.481a2.464,2.464,0,0,1,1.839.745,2.821,2.821,0,0,1,0,3.781,2.462,2.462,0,0,1-1.839.744h-2.481a.6.6,0,0,1-.6-.6m-.6-5.8a.6.6,0,0,0-.6.6v10.78a.6.6,0,1,0,1.2,0v-3.251a.6.6,0,0,1,.6-.6h2.481a3.765,3.765,0,1,0,0-7.529Z" transform="translate(-1310.111 -1362.928)" fill="#fff"/>
    <g id="Group_116" data-name="Group 116" clip-path="url(#clip-path-7)">
      <path id="Path_294" data-name="Path 294" d="M1313.252,1365.533l-.38.849v-.849Z" transform="translate(-1311.675 -1364.403)" fill="#fff"/>
      <path id="Path_295" data-name="Path 295" d="M1315.238,1365.533l-2.356,5.27h-.01v-4.421l.379-.849Z" transform="translate(-1311.675 -1364.403)" fill="#fff"/>
      <path id="Path_296" data-name="Path 296" d="M1317.236,1365.533l-2.356,5.27h-1.986l2.356-5.27Z" transform="translate(-1311.687 -1364.403)" fill="#fff"/>
      <path id="Path_297" data-name="Path 297" d="M1321.124,1367.075l-1.666,3.727h-1.986l2.356-5.27h1.3Z" transform="translate(-1314.28 -1364.403)" fill="#fff"/>
      <path id="Path_298" data-name="Path 298" d="M1322.051,1372.818l1.666-3.727v3.727Z" transform="translate(-1316.873 -1366.418)" fill="#fff"/>
      <path id="Path_299" data-name="Path 299" d="M1310.207,1362.928l-.1.216v-.216Z" transform="translate(-1310.111 -1362.928)" fill="#fff"/>
      <path id="Path_300" data-name="Path 300" d="M1312.193,1362.928l-2.082,4.657v-4.442l.1-.216Z" transform="translate(-1310.111 -1362.928)" fill="#fff"/>
      <path id="Path_301" data-name="Path 301" d="M1314.178,1362.928l-4.068,9.1v-4.442l2.082-4.657Z" transform="translate(-1310.111 -1362.928)" fill="#fff"/>
      <path id="Path_302" data-name="Path 302" d="M1316.164,1362.928l-5.354,11.978h-.7v-2.878l4.068-9.1Z" transform="translate(-1310.111 -1362.928)" fill="#fff"/>
      <path id="Path_303" data-name="Path 303" d="M1318.377,1362.928l.572.255-5.24,11.723h-1.985l5.354-11.978Z" transform="translate(-1311.024 -1362.928)" fill="#fff"/>
      <path id="Path_304" data-name="Path 304" d="M1321.542,1363.518l.118.052v4.127l-3.372,7.543H1316.3Z" transform="translate(-1313.617 -1363.262)" fill="#fff"/>
      <path id="Path_305" data-name="Path 305" d="M1324.252,1377.6l-1.386,3.1h-1.986l3.372-7.543Z" transform="translate(-1316.21 -1368.719)" fill="#fff"/>
      <path id="Path_306" data-name="Path 306" d="M1325.459,1386.5l1.386-3.1v3.1Z" transform="translate(-1318.803 -1374.52)" fill="#fff"/>
    </g>
  </g>
</svg>
