<svg xmlns="http://www.w3.org/2000/svg" width="247.38" height="49.449" viewBox="0 0 247.38 49.449">
  <g id="bloomberg" transform="translate(-0.001 0.001)">
    <path id="Path_1458" data-name="Path 1458" d="M2860.62,1536.78c-1.337-.449-2.7-.834-4-1.366a12.107,12.107,0,0,1-3.542-2.346l3.652-4.99c.95.675,1.826,1.391,2.787,1.961a11.316,11.316,0,0,0,8.761,1.184,6.062,6.062,0,0,0,4.694-5.558c.165-1.362.185-2.742.279-4.245a1.875,1.875,0,0,0-.29.185,9.373,9.373,0,0,1-6.382,3.34,12.06,12.06,0,0,1-13.837-10.59,14.363,14.363,0,0,1,1.48-8.9,11.225,11.225,0,0,1,10.1-6.109,10.02,10.02,0,0,1,7.754,2.682c.491.476.892,1.044,1.377,1.62v-3.686h5.921v24.256c-.029.123-.066.244-.086.368-.168,1.046-.258,2.112-.511,3.137a11.268,11.268,0,0,1-7.155,8.411c-.657.249-1.339.433-2.008.647Zm12.854-24.552a6.914,6.914,0,0,0-7.338-7.321,7.029,7.029,0,0,0-7.343,7.368,7.172,7.172,0,0,0,7.306,7.21A6.965,6.965,0,0,0,2873.474,1512.228Z" transform="translate(-2631.988 -1487.332)" fill="#696969"/>
    <path id="Path_1459" data-name="Path 1459" d="M2040.432,1494.8v-36.577h14.2a14.187,14.187,0,0,1,6.719,1.488,8.6,8.6,0,0,1,3.711,11.4,8.437,8.437,0,0,1-4.958,4.123c-.176.064-.351.131-.652.243.543.114.961.184,1.37.289a8.771,8.771,0,0,1,6.6,9.336c-.325,4.9-3.326,7.63-7.516,8.878a21.822,21.822,0,0,1-6.2.831c-4.285.016-8.568.005-12.853,0C2040.735,1494.822,2040.608,1494.811,2040.432,1494.8Zm6.518-5.591a2.507,2.507,0,0,0,.259.029c2.174,0,4.347.019,6.521-.018a11.388,11.388,0,0,0,4.158-.743,4.362,4.362,0,0,0,2.851-3.1,7.7,7.7,0,0,0,.167-1.961,4,4,0,0,0-3.132-4.122,16.294,16.294,0,0,0-3.749-.56c-2.219-.09-4.443-.032-6.665-.033-.136,0-.273.024-.41.037Zm-.009-16.157c2.392,0,4.739.026,7.085-.011a6.674,6.674,0,0,0,3.141-.837,4.057,4.057,0,0,0,2.195-4.125,3.857,3.857,0,0,0-2.522-3.56,9.506,9.506,0,0,0-3.578-.686c-2-.031-3.99-.02-5.985-.024a2.511,2.511,0,0,0-.335.045Z" transform="translate(-2040.431 -1457.391)" fill="#696969"/>
    <path id="Path_1460" data-name="Path 1460" d="M2439.006,1524.706h-6.175c-.008-.2-.023-.382-.024-.568,0-4.622.006-9.244-.008-13.865a10.788,10.788,0,0,0-.158-2.064,3.866,3.866,0,0,0-4.551-3.32,5.323,5.323,0,0,0-5.156,5.46c-.068,1.3-.037,2.608-.039,3.912,0,3.317-.007,6.635.007,9.952,0,.389-.088.529-.5.524-1.739-.023-3.479-.009-5.218-.011-.142,0-.284-.013-.464-.022v-24.758h5.85v3.776l.1.018c.061-.1.127-.2.184-.3a7.664,7.664,0,0,1,6.235-4.079,10.664,10.664,0,0,1,4.717.472,6.8,6.8,0,0,1,4,3.56c.057.115.111.231.171.345.014.027.045.045.036.036.54-.669,1.035-1.39,1.636-2.008a8.715,8.715,0,0,1,6.729-2.473,8.981,8.981,0,0,1,4.794,1.257,7.909,7.909,0,0,1,3.513,5.386,22.232,22.232,0,0,1,.427,4.164c.051,4.7.02,9.4.02,14.107v.5h-6.2v-.569c0-4.412.009-8.825-.009-13.238a13.476,13.476,0,0,0-.2-2.4c-.491-2.63-2.2-3.809-4.862-3.589-2.6.216-4.268,1.9-4.692,4.649a14.182,14.182,0,0,0-.156,2.115c-.014,4.139-.007,8.278-.007,12.416Z" transform="translate(-2314.51 -1487.294)" fill="#696969"/>
    <path id="Path_1461" data-name="Path 1461" d="M2582.552,1488.9v3.626a2.332,2.332,0,0,1-.331.055c-1.723,0-3.446,0-5.169.009-.314,0-.43-.093-.416-.412.021-.5.005-1,.005-1.5v-35.529h6.215v15.813a1.909,1.909,0,0,0,.294-.214,9.783,9.783,0,0,1,6.617-3.5,11.55,11.55,0,0,1,9.349,2.715,12.43,12.43,0,0,1,4.109,7.771,14.611,14.611,0,0,1-1.542,9.544,11.115,11.115,0,0,1-8.977,5.824,11.509,11.509,0,0,1-6.666-1.091,8.3,8.3,0,0,1-3.179-2.822c-.054-.08-.11-.159-.171-.234C2582.675,1488.939,2582.638,1488.935,2582.552,1488.9Zm14.662-8.689a7.255,7.255,0,0,0-10.626-6.709,7,7,0,0,0-3.924,6.171,7.27,7.27,0,0,0,8.92,7.774A7.173,7.173,0,0,0,2597.213,1480.211Z" transform="translate(-2430.991 -1455.151)" fill="#696969"/>
    <path id="Path_1462" data-name="Path 1462" d="M2316.894,1499.276c4.4.109,8.233,1.632,10.985,5.345a12.6,12.6,0,0,1,2.349,8.9,12.134,12.134,0,0,1-6.884,10.3,14.554,14.554,0,0,1-15.985-1.972,12.016,12.016,0,0,1-3.924-7.6,13.009,13.009,0,0,1,1.908-9.106,12.844,12.844,0,0,1,9.325-5.716c.27-.041.543-.073.815-.091C2315.916,1499.314,2316.351,1499.3,2316.894,1499.276Zm-.125,20.471a7.441,7.441,0,1,0-7.272-7.443A7.155,7.155,0,0,0,2316.769,1519.747Z" transform="translate(-2231.895 -1487.291)" fill="#696969"/>
    <path id="Path_1463" data-name="Path 1463" d="M2193.682,1512.359a12.684,12.684,0,0,1,11.472-12.894,14.463,14.463,0,0,1,8.884,1.546,12.184,12.184,0,0,1,6.6,10.69,12.437,12.437,0,0,1-3.785,9.966,13.03,13.03,0,0,1-7.55,3.559,14.41,14.41,0,0,1-9.279-1.675A12.417,12.417,0,0,1,2193.682,1512.359Zm13.489,7.433a7.441,7.441,0,1,0-7.294-7.415A7.17,7.17,0,0,0,2207.171,1519.792Z" transform="translate(-2152.055 -1487.336)" fill="#696969"/>
    <path id="Path_1464" data-name="Path 1464" d="M2710.734,1514.544h-18.885a6.341,6.341,0,0,0,1.38,3.47,6.643,6.643,0,0,0,5.838,2.384,7.92,7.92,0,0,0,5.573-2.726c.172-.188.343-.379.539-.6l4.424,3.338a13.3,13.3,0,0,1-4.055,3.423c-5.067,2.755-13.012,1.936-17.194-3.363a13.125,13.125,0,0,1,8.812-21.017,13.784,13.784,0,0,1,5.316.3,10.082,10.082,0,0,1,6.209,4.657C2710.575,1507.519,2710.847,1510.955,2710.734,1514.544Zm-6.239-4.683a5.409,5.409,0,0,0-2.906-5.158,7.263,7.263,0,0,0-3.317-.716,5.986,5.986,0,0,0-6.239,4.883c-.077.317-.127.641-.194.991Z" transform="translate(-2510.39 -1487.331)" fill="#696969"/>
    <path id="Path_1465" data-name="Path 1465" d="M2161.881,1455.2v37.377h-6.14V1455.2Z" transform="translate(-2124.42 -1455.183)" fill="#696969"/>
    <path id="Path_1466" data-name="Path 1466" d="M2808.9,1499.68v5.945c-.6-.111-1.17-.238-1.751-.323a7.481,7.481,0,0,0-4.306.487,6.067,6.067,0,0,0-3.581,5.916c-.049,4.121-.013,8.243-.013,12.364v.642h-6.169v-24.744h6.168v3.817a8.329,8.329,0,0,1,5.314-4.22A7.449,7.449,0,0,1,2808.9,1499.68Z" transform="translate(-2588.649 -1487.306)" fill="#696969"/>
  </g>
</svg>
