<svg xmlns="http://www.w3.org/2000/svg" width="47.47" height="47.469" viewBox="0 0 47.47 47.469">
  <g id="calendar-icon" transform="translate(-201.12 -147.611)">
    <path id="Trazo_Gen" data-name="Trazo Gen" d="M211.26,168c-2.219,0-4.44.005-6.66,0a3.364,3.364,0,0,1-3.474-3.466q-.009-6.74,0-13.479a3.357,3.357,0,0,1,3.452-3.435q6.739-.009,13.479,0a3.357,3.357,0,0,1,3.448,3.439q.011,6.766,0,13.532a3.356,3.356,0,0,1-3.424,3.408C215.806,168,213.532,168,211.26,168ZM203.5,157.806q0,3.2,0,6.4c0,1.127.287,1.42,1.4,1.42q6.423,0,12.847,0c1.093,0,1.392-.294,1.393-1.369q0-6.451,0-12.9c0-1.056-.3-1.365-1.343-1.366q-6.476,0-12.952,0c-1.038,0-1.339.31-1.34,1.368Q203.493,154.582,203.5,157.806Z" transform="translate(0)" fill="#2f2f2f"/>
    <path id="Path_3335" data-name="Path 3335" d="M238.068,168c-2.22,0-4.441.005-6.66,0a3.364,3.364,0,0,1-3.475-3.465q-.009-6.74,0-13.48a3.358,3.358,0,0,1,3.452-3.435q6.739-.009,13.479,0a3.356,3.356,0,0,1,3.448,3.438q.011,6.767,0,13.533a3.357,3.357,0,0,1-3.425,3.408C242.613,168,240.34,168,238.068,168Zm.083-18.009c-2.2,0-4.405,0-6.608,0-.883,0-1.234.34-1.236,1.2q-.008,6.608,0,13.216c0,.867.352,1.209,1.23,1.21q6.583.008,13.163,0c.9,0,1.236-.342,1.236-1.258q.006-6.555,0-13.111c0-.935-.335-1.261-1.285-1.263Q241.4,149.981,238.15,149.988Z" transform="translate(0.274)" fill="#2f2f2f"/>
    <path id="Path_3336" data-name="Path 3336" d="M221.506,184.64c0,2.22.005,4.44,0,6.66a3.367,3.367,0,0,1-3.492,3.5q-6.713.008-13.427,0a3.364,3.364,0,0,1-3.462-3.479q-.008-6.713,0-13.427a3.36,3.36,0,0,1,3.465-3.474q6.74-.008,13.479,0a3.36,3.36,0,0,1,3.436,3.451C221.512,180.13,221.506,182.385,221.506,184.64Zm-10.175,7.789c2.185,0,4.37.005,6.555,0,.905,0,1.243-.34,1.244-1.251q.006-6.555,0-13.111c0-.941-.331-1.269-1.278-1.27q-6.528,0-13.057,0c-.976,0-1.3.323-1.3,1.3q0,6.5,0,13c0,1.01.316,1.322,1.331,1.324Q208.08,192.434,211.331,192.429Z" transform="translate(0 0.274)" fill="#2f2f2f"/>
    <path id="Path_3337" data-name="Path 3337" d="M238.089,194.8c-2.22,0-4.441,0-6.661,0a3.368,3.368,0,0,1-3.5-3.5q-.006-6.687,0-13.374a3.362,3.362,0,0,1,3.484-3.508q6.714-.008,13.427,0a3.36,3.36,0,0,1,3.47,3.47q.009,6.713,0,13.427a3.367,3.367,0,0,1-3.51,3.484C242.564,194.808,240.326,194.8,238.089,194.8Zm-7.785-10.19q0,3.2,0,6.4c0,1.128.286,1.419,1.4,1.419q6.423,0,12.846,0c1.093,0,1.392-.294,1.393-1.37q0-6.449,0-12.9c0-1.057-.3-1.365-1.344-1.366q-6.475,0-12.951,0c-1.037,0-1.339.311-1.34,1.369Q230.3,181.388,230.3,184.614Z" transform="translate(0.274 0.274)" fill="#2f2f2f"/>
  </g>
</svg>
