<svg xmlns="http://www.w3.org/2000/svg" width="62.451" height="62.5" viewBox="0 0 62.451 62.5">
  <g id="facility-icon01" transform="translate(-320.75 -4471.878)">
    <path id="Path_3364" data-name="Path 3364" d="M59.178,29.556a3.96,3.96,0,0,0-4.6-1l-5.469,3.556a19.418,19.418,0,0,0,.188-2.679c0-7.664-4.5-14.138-10.623-16.092.147.013.29.021.426.021a1.9,1.9,0,0,0,1.253-.372,3.44,3.44,0,0,0,.853-2.635,1.6,1.6,0,0,0-.514-1.171,5.837,5.837,0,0,0-2.749-1.36l2.779-6.19a.687.687,0,0,0-.336-.9A10.806,10.806,0,0,0,36.037,0c-.813,0-1.639,0-2.453,0a10.79,10.79,0,0,0-4.352.737.687.687,0,0,0-.336.9l2.783,6.2c-1.948.5-3.267,1.44-3.267,2.521a3.3,3.3,0,0,0,.757,2.6,2.428,2.428,0,0,0,1.861.361c-6.162,1.921-10.71,8.419-10.71,16.119,0,.612.03,1.228.087,1.833q-.738.12-1.5.307c-4.307,1.058-9.115,6.508-9.159,6.559l-.28.272L8.2,37.136,0,45.335,14.665,60l8.2-8.2L20.482,49.42h18.7a4.7,4.7,0,0,0,.6.032,6.739,6.739,0,0,0,4.944-2.095L59.1,33.919l.01-.012c.016-.024,1.58-2.434.063-4.351M29.018,1.58a.547.547,0,0,1,.272-.723,10.649,10.649,0,0,1,4.3-.724c.814,0,1.64,0,2.454,0a10.726,10.726,0,0,1,4.295.724.547.547,0,0,1,.272.723l-2.79,6.213a13.224,13.224,0,0,0-3-.332,12.921,12.921,0,0,0-3,.339Zm.238,11.273a3.191,3.191,0,0,1-.71-2.5c0-1.522,2.811-2.76,6.266-2.76,2.53,0,4.8.661,5.788,1.683a1.469,1.469,0,0,1,.477,1.075,3.334,3.334,0,0,1-.8,2.537c-.58.471-1.45.373-2.542.19a12.658,12.658,0,0,0-5.62-.049c-1.248.2-2.236.349-2.855-.176m-8.8,16.581c0-8.078,5.039-14.823,11.681-16.274l.108-.018a15.743,15.743,0,0,1,2.568-.272,15,15,0,0,1,2.568.283l.326.055c6.534,1.549,11.464,8.236,11.464,16.226a19.253,19.253,0,0,1-.2,2.774l-7.094,4.613a3.664,3.664,0,0,0-.962-1.416,3.826,3.826,0,0,0-2.977-.82,17.155,17.155,0,0,1-6.429-.5,13.9,13.9,0,0,0-10.965-2.843c-.056-.6-.086-1.207-.086-1.812M14.665,59.813.187,45.335,8.2,37.323,22.677,51.8ZM59.008,33.828,44.638,47.263a6.673,6.673,0,0,1-5.444,2.024H20.35L9.561,38.5l.282-.275c.048-.055,4.829-5.474,9.095-6.522a13.942,13.942,0,0,1,12.5,2.5l.017.009a17.146,17.146,0,0,0,6.494.505,3.7,3.7,0,0,1,2.877.787,4.182,4.182,0,0,1,1.235,2.68,4.06,4.06,0,0,1-.954,2.634,3.731,3.731,0,0,1-2.71,1.1c-3.833.15-8.168,0-8.211,0l0,.132c.029,0,1.957.067,4.375.067,1.218,0,2.56-.017,3.846-.067a3.857,3.857,0,0,0,2.8-1.145,4.2,4.2,0,0,0,.988-2.728,4.62,4.62,0,0,0-.268-1.231l12.723-8.274a3.824,3.824,0,0,1,4.43.965c1.419,1.794.021,4.054-.066,4.19" transform="translate(322 4473.128)" fill="#737373" stroke="#707070" stroke-linecap="round" stroke-linejoin="round" stroke-width="2.5"/>
    <path id="Path_3365" data-name="Path 3365" d="M245.626,151.456a2.56,2.56,0,0,1,1.647,3.052,2.287,2.287,0,0,1-2.36,1.585h-.008a2.369,2.369,0,0,1-2.367-1.409l-.128.033a2.416,2.416,0,0,0,2.495,1.508h.042v2.293h.132v-2.3a2.369,2.369,0,0,0,2.322-1.679,2.692,2.692,0,0,0-1.736-3.212c-.025-.007-2.554-.695-3.148-2.163a1.956,1.956,0,0,1,.239-1.8A2.089,2.089,0,0,1,244.2,146.3a4.71,4.71,0,0,1,3.09,1.085l.084-.1a5.685,5.685,0,0,0-2.3-1.1v-2.336h-.132v2.316a2.566,2.566,0,0,0-.764.009,2.216,2.216,0,0,0-1.539,1.13,2.08,2.08,0,0,0-.248,1.916c.619,1.529,3.129,2.212,3.231,2.239" transform="translate(112.254 4348.409)" fill="#737373" stroke="#707070" stroke-linecap="round" stroke-linejoin="round" stroke-width="2.5"/>
    <rect id="Rectangle_2787" data-name="Rectangle 2787" width="0.219" height="0.132" transform="translate(348.793 4515.114)" fill="#737373" stroke="#707070" stroke-linecap="round" stroke-linejoin="round" stroke-width="2.5"/>
  </g>
</svg>
