<svg xmlns="http://www.w3.org/2000/svg" width="53.262" height="52.5" viewBox="0 0 53.262 52.5">
  <g id="facility-icon03" transform="translate(1.771 1.25)">
    <path id="Path_3366" data-name="Path 3366" d="M11.484,304.573H21.3v16.008H11.484Zm-.111,16.119h10.04v-16.23H11.373Z" transform="translate(-10.117 -270.693)" fill="#737373" stroke="#707070" stroke-linecap="round" stroke-linejoin="round" stroke-width="2.5"/>
    <path id="Path_3367" data-name="Path 3367" d="M189.224,236.72h9.819v23.534h-9.819Zm-.111,23.645h10.041V236.609H189.113Z" transform="translate(-168.143 -210.366)" fill="#737373" stroke="#707070" stroke-linecap="round" stroke-linejoin="round" stroke-width="2.5"/>
    <path id="Path_3368" data-name="Path 3368" d="M362.61,170.925h9.819v30.832H362.61Zm-.111,30.943h10.04V170.814H362.5Z" transform="translate(-322.298 -151.868)" fill="#737373" stroke="#707070" stroke-linecap="round" stroke-linejoin="round" stroke-width="2.5"/>
    <rect id="Rectangle_2789" data-name="Rectangle 2789" width="4.545" height="0.111" transform="translate(-0.006 24.241) rotate(-41.757)" fill="#737373" stroke="#707070" stroke-linecap="round" stroke-linejoin="round" stroke-width="2.5"/>
    <path id="Path_3369" data-name="Path 3369" d="M160.934,0V.111h6.914L148.154,16.616l-5.409-5.367-5.57,4.917.073.083L142.74,11.4l5.407,5.365L167.945.175v6.3h.111V0Z" transform="translate(-121.965)" fill="#737373" stroke="#707070" stroke-linecap="round" stroke-linejoin="round" stroke-width="2.5"/>
  </g>
</svg>
