<svg xmlns="http://www.w3.org/2000/svg" width="64.377" height="52.501" viewBox="0 0 64.377 52.501">
  <path id="facility-icon02" d="M61.243,26.71,52.093,5.05h4.624V4.939H52.046l-.035-.082-.038.082H35.8a4.993,4.993,0,0,0-9.986,0H10.764l-.035-.082-.038.082h-5.8V5.05h5.747L.715,26.71H0v.055a10.257,10.257,0,1,0,20.515,0V26.71h-.554L10.811,5.05h15A5,5,0,0,0,30.75,9.987V40.94A9.017,9.017,0,0,0,21.8,49.946V50H39.813v-.055a9.017,9.017,0,0,0-8.952-9.006V9.987A5,5,0,0,0,35.8,5.05H51.923L42,26.71h-.635v.055a10.258,10.258,0,1,0,20.515,0V26.71Zm-50.986,10.2A10.158,10.158,0,0,1,.111,26.821H20.4A10.158,10.158,0,0,1,10.257,36.912M.837,26.71,10.725,5.132,19.841,26.71ZM39.7,49.89H21.909a8.9,8.9,0,0,1,17.792,0m-8.9-40.013a4.883,4.883,0,1,1,4.883-4.883,4.889,4.889,0,0,1-4.883,4.883m21.2-4.746L61.123,26.71h-19Zm-.388,31.78A10.158,10.158,0,0,1,41.473,26.821H61.766A10.158,10.158,0,0,1,51.62,36.912" transform="translate(1.25 1.25)" fill="#737373" stroke="#707070" stroke-linecap="round" stroke-linejoin="round" stroke-width="2.5"/>
</svg>
