<svg xmlns="http://www.w3.org/2000/svg" width="170.759" height="44.439" viewBox="0 0 170.759 44.439">
  <g id="forbs" transform="translate(-0.001)">
    <path id="Path_1426" data-name="Path 1426" d="M265,1490.158V1504.5c.24-.108.44-.187.63-.286a13.15,13.15,0,0,1,7.369-1.426,10.722,10.722,0,0,1,8.182,5.126,15.561,15.561,0,0,1,2.478,7.355,20.794,20.794,0,0,1-1.337,9.926,14.353,14.353,0,0,1-10.978,8.942,24.454,24.454,0,0,1-8.241.161c-2.061-.27-4.1-.686-6.161-.986-.653-.1-.8-.373-.79-1,.1-7.66.2-15.32.242-22.981.02-3.235-.043-6.473-.14-9.707a18.665,18.665,0,0,0-.446-3.327,3.031,3.031,0,0,0-2.958-2.484c-.764-.078-.88-.2-.774-.9a.686.686,0,0,1,.416-.472c3.987-.762,7.979-1.5,11.971-2.237C264.639,1490.172,264.82,1490.173,265,1490.158Zm-.067,25.958c0,2.845-.017,5.691.005,8.537.018,2.272.072,4.544.143,6.815.008.259.183.706.345.738a5.437,5.437,0,0,0,5.065-1.078,10.049,10.049,0,0,0,2.493-3.82,26.069,26.069,0,0,0,1.582-11.137,16.627,16.627,0,0,0-1.437-6.229,7.41,7.41,0,0,0-2.425-3.107,5.7,5.7,0,0,0-5.342-.417.536.536,0,0,0-.434.611C264.939,1510.057,264.935,1513.086,264.934,1516.116Z" transform="translate(-167.978 -1490.158)" fill="#696969"/>
    <path id="Path_1427" data-name="Path 1427" d="M-11.467,1492.851c0,1.206-.012,2.309,0,3.411.035,2.662.074,5.323.134,7.985a.625.625,0,0,1-.528.733c-1.365.4-1.355.419-1.855-.917a17.128,17.128,0,0,0-2.818-5.2,7.907,7.907,0,0,0-6.134-2.992c-2.315-.034-4.631,0-6.947-.032-.512-.008-.635.2-.647.638-.026.962-.089,1.923-.109,2.885-.064,3.133-.115,6.267-.172,9.4-.023,1.289-.037,2.58-.081,3.868-.017.513.165.678.683.643,1.47-.1,2.944-.146,4.416-.228a3.819,3.819,0,0,0,3.345-2.159,17.605,17.605,0,0,0,1.164-3.205c.124-.435.259-.58.68-.547.343.027.689.005,1.079.005v14.428a10.6,10.6,0,0,1-1.339-.02c-.143-.019-.332-.259-.369-.427a9.086,9.086,0,0,0-1.729-4.073,3.783,3.783,0,0,0-2.831-1.386c-1.472-.066-2.944-.137-4.414-.234-.506-.034-.7.127-.681.647q.18,4.94.327,9.881a17.258,17.258,0,0,0,.736,5.01,3.68,3.68,0,0,0,3.444,2.754,16.468,16.468,0,0,1,1.805.324c.766.15.326.755.407,1.151.087.426-.255.426-.556.426H-32.14q-6.578,0-13.156-.005c-.3,0-.725.175-.757-.424-.052-.976-.013-1.1.653-1.23.58-.115,1.159-.239,1.742-.33a3.436,3.436,0,0,0,2.765-2.329,12.994,12.994,0,0,0,.838-4.682c.115-6.451.244-12.9.224-19.356-.009-2.793-.347-5.586-.59-8.375a6.063,6.063,0,0,0-.525-1.75,3.805,3.805,0,0,0-3.434-2.374c-.264-.026-.53-.053-.79-.1-.284-.056-.776-.091-.8-.22a5,5,0,0,1-.025-1.4c0-.068.214-.156.338-.175a4.108,4.108,0,0,1,.614-.013h33.581Z" transform="translate(46.071 -1492.089)" fill="#696969"/>
    <path id="Path_1428" data-name="Path 1428" d="M62.048,1550a17.492,17.492,0,0,1,2.932-10.62,13.69,13.69,0,0,1,9.984-5.888,16.92,16.92,0,0,1,8.1.779,12.408,12.408,0,0,1,7.592,7.624,19.324,19.324,0,0,1-.512,15.71,13.572,13.572,0,0,1-11.289,7.792,16.886,16.886,0,0,1-7.506-.675,12.817,12.817,0,0,1-8.172-8.232A18.883,18.883,0,0,1,62.048,1550Zm9.115-.955c.051,1.124.072,2.25.162,3.371.091,1.138.2,2.28.394,3.4a14.067,14.067,0,0,0,2.23,5.969,3.916,3.916,0,0,0,5.855.776,6.491,6.491,0,0,0,1.709-2.655,26.992,26.992,0,0,0,1.313-8.5,37.226,37.226,0,0,0-.481-8.193,14.41,14.41,0,0,0-2.173-5.93c-1.926-2.746-5.283-2.656-6.984.222a10.189,10.189,0,0,0-.975,2.3A34.27,34.27,0,0,0,71.162,1549.048Z" transform="translate(-31.558 -1521.155)" fill="#696969"/>
    <path id="Path_1429" data-name="Path 1429" d="M399.835,1558.819c.167.194.262.327.38.435.4.365.345.682.009,1.09a12.439,12.439,0,0,1-4.511,3.527c-5.773,2.591-11.312,2.229-16.4-1.67a14.108,14.108,0,0,1-5.2-9.121,18.887,18.887,0,0,1,1.159-10.938,13.7,13.7,0,0,1,10.919-8.666,13.285,13.285,0,0,1,8.045.9,11.188,11.188,0,0,1,6.033,7.788,49.391,49.391,0,0,1,.77,5.073c.075.511-.135.66-.646.658-5.573-.016-11.146-.01-16.72-.009-.948,0-.97,0-.933.952.116,3.069.646,6.024,2.567,8.547a9.164,9.164,0,0,0,6.769,3.607A10.372,10.372,0,0,0,399.835,1558.819Zm-7.755-13.339c-.061-1.161-.11-2.239-.18-3.316a13.415,13.415,0,0,0-.164-1.46,10.462,10.462,0,0,0-1.392-4.148,2.587,2.587,0,0,0-3.925-.731,7.637,7.637,0,0,0-1.834,2.25,16.129,16.129,0,0,0-1.744,6.7c-.068.96-.062.964.883.945q3.348-.066,6.694-.143C390.929,1545.568,391.437,1545.52,392.08,1545.48Z" transform="translate(-255.388 -1521.09)" fill="#696969"/>
    <path id="Path_1430" data-name="Path 1430" d="M478.929,1554.476c.528,1.155.992,2.289,1.554,3.374a9.212,9.212,0,0,0,3.527,4,6.444,6.444,0,0,0,5.6.587,4.412,4.412,0,0,0,2.939-3.835,3.892,3.892,0,0,0-1.8-4.03,29.238,29.238,0,0,0-4.26-2.136,22.674,22.674,0,0,1-5.044-2.486,7.941,7.941,0,0,1-3.155-7.385,9.561,9.561,0,0,1,6.72-8.393,18.847,18.847,0,0,1,7.7-.654,21.957,21.957,0,0,1,5.672,1.222.836.836,0,0,1,.659.923c0,2.047.072,4.095.108,6.142.021,1.207.013,1.207-1.265,1.479-.166-.444-.328-.9-.506-1.351a12.166,12.166,0,0,0-2.838-4.683,5.733,5.733,0,0,0-5.254-1.559,4.117,4.117,0,0,0-3.179,3.491,4.325,4.325,0,0,0,1.906,4.468,28.706,28.706,0,0,0,5.565,2.828,28.972,28.972,0,0,1,3.076,1.518A7.551,7.551,0,0,1,500.7,1554a9.867,9.867,0,0,1-2.142,7.578,11.1,11.1,0,0,1-6.339,3.6,22.635,22.635,0,0,1-7.567.185,28.164,28.164,0,0,1-6.2-1.356.794.794,0,0,1-.632-.877c-.016-2.4-.078-4.792-.117-7.187C477.682,1554.729,477.689,1554.729,478.929,1554.476Z" transform="translate(-330 -1521.207)" fill="#696969"/>
    <path id="Path_1431" data-name="Path 1431" d="M191.182,1541.949a34.178,34.178,0,0,0-3.787-1.207,6.623,6.623,0,0,0-4.633.7,1.563,1.563,0,0,0-.92,1.505c.013,3.522-.112,7.045-.06,10.566a63.487,63.487,0,0,0,.476,6.538c.217,1.829,1.209,2.6,3.07,2.695.587.031,1.173.1,1.825.155a10.833,10.833,0,0,1-.016,1.193c-.014.118-.2.25-.338.31a1.126,1.126,0,0,1-.426.018l-16.534,0a.886.886,0,0,1-.8-1.378.558.558,0,0,1,.344-.189,10.717,10.717,0,0,1,1.082-.2,2.463,2.463,0,0,0,2.265-2.022,22.55,22.55,0,0,0,.467-4c.1-3.685.142-7.372.121-11.058a47.39,47.39,0,0,0-.349-5.442c-.275-2.258-1.03-2.907-3.332-3.152-.4-.043-.647-.116-.655-.6-.007-.457.1-.7.595-.8,4.038-.8,8.072-1.627,12.108-2.443a1.5,1.5,0,0,1,.267,0v6.83c.184-.318.309-.513.413-.718a12.3,12.3,0,0,1,3.838-4.712,7.441,7.441,0,0,1,7.311-1.04c.726.282.732.331.452,1.072q-1.305,3.467-2.605,6.935C191.286,1541.682,191.213,1541.867,191.182,1541.949Z" transform="translate(-108.276 -1520.885)" fill="#696969"/>
  </g>
</svg>
