<svg xmlns="http://www.w3.org/2000/svg" width="102.31" height="122.533" viewBox="0 0 102.31 122.533">
  <g id="g4-logo" transform="translate(0 0)">
    <rect id="Rectangle_148" data-name="Rectangle 148" width="0.789" height="5.379" transform="translate(8.493 116.597)"/>
    <path id="Path_114" data-name="Path 114" d="M1050.838,1747.019h.744l2.36,3.823h.014v-3.823h.789v5.379H1054l-2.354-3.825h-.015v3.825h-.789Z" transform="translate(-1037.375 -1630.421)"/>
    <path id="Path_115" data-name="Path 115" d="M1059.562,1747.019h.743l1.494,3.505,1.466-3.505h.744v5.379h-.787v-3.355h-.019l-1.091,2.583h-.656l-1.091-2.583h-.014v3.355h-.789Z" transform="translate(-1037.906 -1630.421)"/>
    <path id="Path_116" data-name="Path 116" d="M1068.688,1749.7a9.521,9.521,0,0,1,.054-1.257,1.544,1.544,0,0,1,.176-.513,1.837,1.837,0,0,1,.607-.663,1.768,1.768,0,0,1,1.026-.3,1.78,1.78,0,0,1,1.628.967,1.239,1.239,0,0,1,.182.513,17.373,17.373,0,0,1,0,2.5,1.262,1.262,0,0,1-.182.521,1.743,1.743,0,0,1-.592.657,1.822,1.822,0,0,1-1.036.309,1.867,1.867,0,0,1-1.633-.966c-.038-.082-.072-.158-.1-.233a1.544,1.544,0,0,1-.073-.288,9.486,9.486,0,0,1-.054-1.247m.79,0a6.6,6.6,0,0,0,.057,1.076.909.909,0,0,0,.2.455.95.95,0,0,0,.329.268.9.9,0,0,0,.48.123.954.954,0,0,0,.492-.123.9.9,0,0,0,.314-.268.96.96,0,0,0,.211-.455,6.932,6.932,0,0,0,.054-1.076,7.1,7.1,0,0,0-.054-1.084,1.129,1.129,0,0,0-.524-.724,1.115,1.115,0,0,0-.492-.115,1.054,1.054,0,0,0-.48.115,1.009,1.009,0,0,0-.329.277.9.9,0,0,0-.2.447,6.763,6.763,0,0,0-.057,1.084" transform="translate(-1038.462 -1630.419)"/>
    <path id="Path_117" data-name="Path 117" d="M1077,1747.02h2.019a1.572,1.572,0,0,1,1.154.4,1.419,1.419,0,0,1,.39,1.045,1.258,1.258,0,0,1-.153.633,1.012,1.012,0,0,1-.235.273,1.743,1.743,0,0,1-.38.248v.015a1.052,1.052,0,0,1,.646.461,1.542,1.542,0,0,1,.2.778,1.5,1.5,0,0,1-.423,1.1,1.372,1.372,0,0,1-1.026.426H1077Zm.789.722v1.547h1.14a.8.8,0,0,0,.637-.235.743.743,0,0,0,.208-.54.785.785,0,0,0-.208-.553.871.871,0,0,0-.637-.219Zm0,2.269v1.621h1.218a.776.776,0,0,0,.848-.81.766.766,0,0,0-.848-.811Z" transform="translate(-1038.969 -1630.421)"/>
    <rect id="Rectangle_149" data-name="Rectangle 149" width="0.789" height="5.379" transform="translate(45.665 116.597)"/>
    <path id="Path_118" data-name="Path 118" d="M1090.421,1747.019h.789v4.612h2.539v.767h-3.328Z" transform="translate(-1039.786 -1630.421)"/>
    <rect id="Rectangle_150" data-name="Rectangle 150" width="0.789" height="5.379" transform="translate(57.86 116.597)"/>
    <path id="Path_119" data-name="Path 119" d="M1106.043,1751.194h-1.976l-.4,1.2h-.836l1.894-5.379h.661l1.894,5.379h-.833Zm-.225-.722-.753-2.352h-.015l-.754,2.352Z" transform="translate(-1040.542 -1630.421)"/>
    <path id="Path_120" data-name="Path 120" d="M1111.533,1747.019h2.036a1.567,1.567,0,0,1,1.062.354,1.448,1.448,0,0,1,.517,1.147,1.5,1.5,0,0,1-1.006,1.491l1.206,2.386h-.938l-1.078-2.3h-1.01v2.3h-.789Zm.789,2.357h1.2a.827.827,0,0,0,.884-.858.729.729,0,0,0-.26-.61.891.891,0,0,0-.581-.165h-1.24Z" transform="translate(-1041.072 -1630.421)"/>
    <rect id="Rectangle_151" data-name="Rectangle 151" width="0.789" height="5.379" transform="translate(78.093 116.597)"/>
    <path id="Path_121" data-name="Path 121" d="M1124.763,1749.7a9.361,9.361,0,0,1,.053-1.257,1.527,1.527,0,0,1,.176-.513,1.832,1.832,0,0,1,.607-.663,1.764,1.764,0,0,1,1.025-.3,1.784,1.784,0,0,1,1.63.967,1.243,1.243,0,0,1,.182.513,17.051,17.051,0,0,1,0,2.5,1.265,1.265,0,0,1-.182.521,1.745,1.745,0,0,1-.593.657,1.82,1.82,0,0,1-1.037.309,1.867,1.867,0,0,1-1.631-.966c-.038-.082-.072-.158-.1-.233a1.567,1.567,0,0,1-.071-.288,9.324,9.324,0,0,1-.053-1.247m.789,0a6.454,6.454,0,0,0,.058,1.076.9.9,0,0,0,.2.455.946.946,0,0,0,.33.268.9.9,0,0,0,.48.123.953.953,0,0,0,.491-.123.894.894,0,0,0,.314-.268.963.963,0,0,0,.212-.455,7.139,7.139,0,0,0,.052-1.076,7.314,7.314,0,0,0-.052-1.084,1.138,1.138,0,0,0-.526-.724,1.114,1.114,0,0,0-.491-.115,1.051,1.051,0,0,0-.48.115,1,1,0,0,0-.33.277.892.892,0,0,0-.2.447,6.612,6.612,0,0,0-.058,1.084" transform="translate(-1041.878 -1630.419)"/>
    <path id="Path_122" data-name="Path 122" d="M1133.113,1751.092a2.252,2.252,0,0,0,1.48.536c.677-.011,1.021-.26,1.03-.75q.008-.6-.679-.725c-.21-.028-.44-.063-.69-.1a1.679,1.679,0,0,1-1.022-.512,1.46,1.46,0,0,1-.362-1,1.5,1.5,0,0,1,.453-1.137,1.738,1.738,0,0,1,1.246-.436,2.869,2.869,0,0,1,1.689.556l-.44.669a2.344,2.344,0,0,0-1.291-.414.965.965,0,0,0-.609.189.71.71,0,0,0-.261.583.606.606,0,0,0,.175.421.977.977,0,0,0,.561.266q.216.037.586.086a1.6,1.6,0,0,1,1.084.543,1.558,1.558,0,0,1,.347,1q-.04,1.544-1.828,1.567a2.907,2.907,0,0,1-1.989-.734Z" transform="translate(-1042.356 -1630.419)"/>
    <path id="Path_123" data-name="Path 123" d="M1045.441,1730.453h4.741a7.364,7.364,0,0,1,1.491.149,3.956,3.956,0,0,1,1.454.8,3.226,3.226,0,0,1,1,1.3,4.3,4.3,0,0,1,.4,1.926,4.176,4.176,0,0,1-1.024,2.733,3.819,3.819,0,0,1-3.072,1.334h-3.017v5.271h-1.98Zm1.98,6.31h2.94a2.061,2.061,0,0,0,1.662-.707,2.34,2.34,0,0,0,.53-1.489,2.713,2.713,0,0,0-.216-1.144,1.675,1.675,0,0,0-.63-.66,2.417,2.417,0,0,0-1.42-.383h-2.867Z" transform="translate(-1037.046 -1629.412)"/>
    <path id="Path_124" data-name="Path 124" d="M1056.406,1730.454h5.111a3.942,3.942,0,0,1,2.667.889,3.644,3.644,0,0,1,1.3,2.88,3.755,3.755,0,0,1-2.527,3.742l3.027,5.992h-2.353l-2.706-5.771h-2.536v5.771h-1.98Zm1.98,5.919h3a2.082,2.082,0,0,0,2.221-2.154,1.815,1.815,0,0,0-.656-1.532,2.22,2.22,0,0,0-1.457-.419h-3.111Z" transform="translate(-1037.714 -1629.412)"/>
    <path id="Path_125" data-name="Path 125" d="M1067.242,1737.2a23.238,23.238,0,0,1,.135-3.155,3.761,3.761,0,0,1,.439-1.291,4.589,4.589,0,0,1,1.523-1.661,4.4,4.4,0,0,1,2.574-.757,4.493,4.493,0,0,1,4.09,2.427,3.181,3.181,0,0,1,.456,1.289,42.034,42.034,0,0,1,0,6.28,3.208,3.208,0,0,1-.456,1.306,4.361,4.361,0,0,1-1.49,1.648,4.547,4.547,0,0,1-2.6.778,4.7,4.7,0,0,1-4.1-2.426c-.1-.205-.184-.4-.261-.584a3.869,3.869,0,0,1-.179-.722,23.216,23.216,0,0,1-.135-3.131m1.98,0a16.2,16.2,0,0,0,.144,2.7,2.3,2.3,0,0,0,.512,1.141,2.342,2.342,0,0,0,.827.678,2.273,2.273,0,0,0,1.2.305,2.389,2.389,0,0,0,1.232-.305,2.221,2.221,0,0,0,.79-.678,2.406,2.406,0,0,0,.531-1.141,17.33,17.33,0,0,0,.135-2.7,17.747,17.747,0,0,0-.135-2.721,2.4,2.4,0,0,0-.531-1.123,2.372,2.372,0,0,0-.79-.7,2.825,2.825,0,0,0-1.232-.289,2.683,2.683,0,0,0-1.2.289,2.5,2.5,0,0,0-.827.7,2.285,2.285,0,0,0-.512,1.123,16.587,16.587,0,0,0-.144,2.721" transform="translate(-1038.374 -1629.405)"/>
    <path id="Path_126" data-name="Path 126" d="M1080.594,1738.4l-3.937-7.949h2.1l2.773,5.992,2.773-5.992h2.1l-3.94,7.948v5.557h-1.869Z" transform="translate(-1038.948 -1629.412)"/>
    <path id="Path_127" data-name="Path 127" d="M1087.514,1730.453h8.357v1.926h-6.376v3.865h5.443v1.813h-5.443v3.975h6.376v1.926h-8.357Z" transform="translate(-1039.609 -1629.412)"/>
    <path id="Path_128" data-name="Path 128" d="M1106.533,1740.178a5.1,5.1,0,0,1-1.643,2.885,4.579,4.579,0,0,1-2.953,1,4.709,4.709,0,0,1-4.1-2.426c-.1-.2-.183-.4-.26-.584a3.877,3.877,0,0,1-.179-.721,23.468,23.468,0,0,1-.134-3.131,23.136,23.136,0,0,1,.135-3.15,3.777,3.777,0,0,1,.438-1.287,4.594,4.594,0,0,1,1.526-1.668,4.4,4.4,0,0,1,2.574-.76,4.352,4.352,0,0,1,3.086,1.158,5.125,5.125,0,0,1,1.508,2.839h-2.1a2.988,2.988,0,0,0-.881-1.392,2.536,2.536,0,0,0-1.617-.567,2.678,2.678,0,0,0-1.206.287,2.55,2.55,0,0,0-.826.7,2.281,2.281,0,0,0-.512,1.124,16.693,16.693,0,0,0-.143,2.72,16.3,16.3,0,0,0,.143,2.7,2.278,2.278,0,0,0,.514,1.142,2.349,2.349,0,0,0,.827.677,2.266,2.266,0,0,0,1.2.307,2.67,2.67,0,0,0,2.5-1.848Z" transform="translate(-1040.203 -1629.405)"/>
    <path id="Path_129" data-name="Path 129" d="M1110.1,1732.268h-3.587v-1.814h9.154v1.814h-3.587v11.69h-1.98Z" transform="translate(-1040.766 -1629.412)"/>
    <path id="Path_130" data-name="Path 130" d="M1116.214,1737.2a23.434,23.434,0,0,1,.134-3.155,3.8,3.8,0,0,1,.44-1.291,4.583,4.583,0,0,1,1.524-1.661,4.391,4.391,0,0,1,2.573-.757,4.493,4.493,0,0,1,4.09,2.427,3.175,3.175,0,0,1,.457,1.289,42.078,42.078,0,0,1,0,6.28,3.2,3.2,0,0,1-.457,1.306,4.359,4.359,0,0,1-1.489,1.648,4.55,4.55,0,0,1-2.6.778,4.7,4.7,0,0,1-4.1-2.426c-.1-.205-.182-.4-.261-.584a3.962,3.962,0,0,1-.179-.722,23.413,23.413,0,0,1-.134-3.131m1.98,0a16.355,16.355,0,0,0,.144,2.7,2.3,2.3,0,0,0,.512,1.141,2.356,2.356,0,0,0,.826.678,2.282,2.282,0,0,0,1.2.305,2.389,2.389,0,0,0,1.232-.305,2.229,2.229,0,0,0,.791-.678,2.423,2.423,0,0,0,.531-1.141,17.5,17.5,0,0,0,.134-2.7,17.919,17.919,0,0,0-.134-2.721,2.415,2.415,0,0,0-.531-1.123,2.381,2.381,0,0,0-.791-.7,2.824,2.824,0,0,0-1.232-.289,2.694,2.694,0,0,0-1.2.289,2.517,2.517,0,0,0-.826.7,2.284,2.284,0,0,0-.512,1.123,16.749,16.749,0,0,0-.144,2.721" transform="translate(-1041.358 -1629.405)"/>
    <path id="Path_131" data-name="Path 131" d="M1128.086,1740.681a5.63,5.63,0,0,0,3.717,1.345q2.549-.037,2.586-1.882.02-1.51-1.705-1.816-.789-.111-1.732-.251a4.23,4.23,0,0,1-2.567-1.288,3.656,3.656,0,0,1-.906-2.5,3.768,3.768,0,0,1,1.138-2.857,4.351,4.351,0,0,1,3.128-1.093,7.2,7.2,0,0,1,4.241,1.394l-1.1,1.683a5.862,5.862,0,0,0-3.241-1.041,2.427,2.427,0,0,0-1.527.473,1.783,1.783,0,0,0-.654,1.466,1.508,1.508,0,0,0,.439,1.055,2.483,2.483,0,0,0,1.409.668q.539.094,1.473.213a4.028,4.028,0,0,1,2.719,1.364,3.916,3.916,0,0,1,.87,2.521q-.1,3.874-4.59,3.93a7.294,7.294,0,0,1-4.994-1.843Z" transform="translate(-1042.001 -1629.405)"/>
    <path id="Path_132" data-name="Path 132" d="M1138.811,1745.389h-3.777V1626.634h-94.755v118.756H1036.5V1622.857h102.31Z" transform="translate(-1036.501 -1622.857)"/>
    <path id="Path_133" data-name="Path 133" d="M1116.187,1654.545l9.588-21.234h4.571l-9.69,21.234h7.495v-8.531h4.1v8.531h2.3v3.977h-2.3v4.412h-4.1v-4.408l-11.964,0Z" transform="translate(-1041.356 -1623.494)"/>
    <path id="Path_134" data-name="Path 134" d="M1113.517,1647.4v-.775h-10.2v4.223h5.854v1.547a6.344,6.344,0,0,1-1.695,4.5,5.472,5.472,0,0,1-4.2,1.793,4.975,4.975,0,0,1-2.641-.672,5.1,5.1,0,0,1-1.812-1.487,5,5,0,0,1-1.125-2.5,35.894,35.894,0,0,1-.314-5.925,36.706,36.706,0,0,1,.314-5.964,4.971,4.971,0,0,1,1.124-2.464,5.542,5.542,0,0,1,1.811-1.528,5.871,5.871,0,0,1,2.641-.631,5.565,5.565,0,0,1,3.544,1.245,6.576,6.576,0,0,1,1.932,3.063h4.608a11.283,11.283,0,0,0-3.3-6.236,10.337,10.337,0,0,0-12.413-.873,10.115,10.115,0,0,0-3.344,3.657,8.368,8.368,0,0,0-.963,2.825,80.564,80.564,0,0,0,0,13.774,8.629,8.629,0,0,0,.394,1.585q.255.608.57,1.279a10.319,10.319,0,0,0,8.989,5.324,10.139,10.139,0,0,0,5.953-1.919v1.662h4.306V1647.4Z" transform="translate(-1039.946 -1623.478)"/>
  </g>
</svg>
