<svg xmlns="http://www.w3.org/2000/svg" width="103.228" height="35.699" viewBox="0 0 103.228 35.699">
  <g id="inc" transform="translate(0.001)">
    <path id="Path_1416" data-name="Path 1416" d="M605.244,1272.328c-.908-.116-1.822-.2-2.723-.353a16.809,16.809,0,0,1-8.855-4.069,12.81,12.81,0,0,1-1.431-1.6c-.425-.555-.772-1.17-1.178-1.8v7.128H572.433v-7.621h3.481v-.527q0-3.508,0-7.016c0-2.77-1.687-4.251-4.454-3.909a4.723,4.723,0,0,0-4.409,4.808c-.046,2.151-.011,4.3-.01,6.456,0,.055.013.111.027.221h3.564v7.645h-19v-7.627H555v-11.515h-3.37V1244.9h14.976v5.294a5.211,5.211,0,0,0,.429-.413c2.838-3.564,6.638-4.806,11.048-4.6a13.44,13.44,0,0,1,5.453,1.225,7.39,7.39,0,0,1,4.226,6.21,17.226,17.226,0,0,1,.083,1.847c.008,3.013,0,6.026,0,9.039v.483h3.019c-.061-.159-.12-.294-.165-.433-1.667-5.081-1.162-9.77,2.613-13.8a13.959,13.959,0,0,1,6.307-3.713,22.563,22.563,0,0,1,12.89-.292,11.38,11.38,0,0,1,8.711,10.374l-10.217,1.12c-.116-.85-.218-1.657-.342-2.46a4.446,4.446,0,0,0-.216-.786,3.472,3.472,0,0,0-3.528-2.607,6.442,6.442,0,0,0-1.661.168,3.894,3.894,0,0,0-2.943,3.246,19.129,19.129,0,0,0-.294,5.4,14.287,14.287,0,0,0,.292,2.213c.548,2.568,2.282,3.737,4.949,3.5a3.824,3.824,0,0,0,3.8-3.24c.047-.265.059-.536.089-.827h10.179a5.542,5.542,0,0,1-.4,2.358,10.724,10.724,0,0,1-7.937,7.333,42.721,42.721,0,0,1-4.313.733c-.168.028-.338.05-.507.075Z" transform="translate(-525.979 -1236.628)" fill="#696969"/>
    <path id="Path_1417" data-name="Path 1417" d="M446.768,1219.3v-8.2h24.325v8.179h-4.529v19.246h4.527v7.579H446.776v-7.554h4.5V1219.3Z" transform="translate(-446.769 -1211.098)" fill="#696969"/>
    <path id="Path_1418" data-name="Path 1418" d="M842.065,1323.883a4.316,4.316,0,1,1-4.334-4.3A4.318,4.318,0,0,1,842.065,1323.883Z" transform="translate(-738.839 -1293.046)" fill="#696969"/>
  </g>
</svg>
