<svg xmlns="http://www.w3.org/2000/svg" width="36.105" height="36.09" viewBox="0 0 36.105 36.09">
  <g id="insta-light-icon" transform="translate(56.447 -165.561)">
    <path id="Path_3329" data-name="Path 3329" d="M-20.842,171.223v24.792c-.036.143-.074.287-.106.43a5.993,5.993,0,0,1-2.152,3.437,6.452,6.452,0,0,1-2.878,1.269H-50.77c-.111-.027-.22-.058-.332-.081a6.127,6.127,0,0,1-4.845-6.026c.04-7.67.011-15.34.016-23.01a5.989,5.989,0,0,1,5.973-5.973q11.59-.007,23.181,0a5.823,5.823,0,0,1,4.489,2.068A6.322,6.322,0,0,1-20.842,171.223Zm-34.011,12.394q0,5.632,0,11.263a6.052,6.052,0,0,0,.1,1.158,4.958,4.958,0,0,0,5.011,4.058q11.366.007,22.732,0a5.638,5.638,0,0,0,1.055-.1,4.959,4.959,0,0,0,4.059-5.044q0-11.333,0-22.663A5.711,5.711,0,0,0-22,171.2a4.928,4.928,0,0,0-4.908-4.055q-11.469-.017-22.937,0a4.858,4.858,0,0,0-3.5,1.409,4.962,4.962,0,0,0-1.512,3.7Q-54.859,177.933-54.853,183.616Z" transform="translate(0 0)" fill="#767676" stroke="#707070" stroke-width="1"/>
    <path id="Path_3330" data-name="Path 3330" d="M-29.319,182.8a9.9,9.9,0,0,1-9.9,9.876,9.9,9.9,0,0,1-9.867-9.91,9.9,9.9,0,0,1,9.918-9.858A9.9,9.9,0,0,1-29.319,182.8Zm-9.9,8.753a8.722,8.722,0,0,0,8.78-8.751,8.722,8.722,0,0,0-8.725-8.771,8.725,8.725,0,0,0-8.8,8.733A8.726,8.726,0,0,0-39.222,191.552Z" transform="translate(0.829 0.827)" fill="#767676" stroke="#707070" stroke-width="1"/>
    <path id="Path_3331" data-name="Path 3331" d="M-27.923,172.708a2.752,2.752,0,0,1-2.735,2.759,2.781,2.781,0,0,1-2.76-2.746,2.754,2.754,0,0,1,2.746-2.748A2.733,2.733,0,0,1-27.923,172.708Zm-1.12-.007a1.578,1.578,0,0,0-1.63-1.608,1.615,1.615,0,0,0-1.633,1.622,1.65,1.65,0,0,0,1.662,1.64A1.613,1.613,0,0,0-29.042,172.7Z" transform="translate(2.721 0.473)" fill="#767676" stroke="#707070" stroke-width="1"/>
    <path id="Path_3332" data-name="Path 3332" d="M-33.782,182.241a3.885,3.885,0,0,0-.7-2.731c-.03-.048-.064-.094-.093-.143a.572.572,0,0,1,.1-.822.569.569,0,0,1,.824.219,6.073,6.073,0,0,1,.942,4.2,6.819,6.819,0,0,1-3.646,5.472,7.38,7.38,0,0,1-6.84,0,.7.7,0,0,1-.36-.4.538.538,0,0,1,.143-.567.538.538,0,0,1,.576-.1,1.418,1.418,0,0,1,.295.17c3.59,2.311,7.716.082,8.646-4.08A5.207,5.207,0,0,0-33.782,182.241Z" transform="translate(1.425 1.423)" fill="#767676" stroke="#707070" stroke-width="1"/>
    <path id="Path_3333" data-name="Path 3333" d="M-45.526,182.5a4.1,4.1,0,0,0,.774,2.754c.037.057.078.112.112.173a.566.566,0,0,1-.133.79.555.555,0,0,1-.779-.182,6.2,6.2,0,0,1-.869-1.807,7.135,7.135,0,0,1,5.839-8.789,6.628,6.628,0,0,1,4.492.847.865.865,0,0,1,.327.295.536.536,0,0,1-.055.639.526.526,0,0,1-.625.136,1.466,1.466,0,0,1-.294-.171c-3.755-2.418-8.129.1-8.748,4.529C-45.522,181.971-45.514,182.237-45.526,182.5Z" transform="translate(1.124 1.123)" fill="#767676" stroke="#707070" stroke-width="1"/>
  </g>
</svg>
