<svg id="item03" xmlns="http://www.w3.org/2000/svg" width="44.959" height="40.455" viewBox="0 0 44.959 40.455">
  <path id="Path_3765" data-name="Path 3765" d="M47.942,8474.662c.277-.258.511-.625.841-.755.6-.245,1.16.139,1.4.84.6,1.787,1.209,3.571,1.779,5.365a.575.575,0,0,0,.678.474c1.71-.02,3.424-.008,5.138-.008a1.226,1.226,0,0,1,1.44,1.044q1.036,3.1,2.069,6.2a2.573,2.573,0,0,1,.114.42,1.11,1.11,0,0,1-2.114.644c-.2-.5-.355-1.021-.528-1.53-.463-1.386-.935-2.767-1.378-4.159a.447.447,0,0,0-.525-.367c-1.446.012-2.9.016-4.346,0a.451.451,0,0,0-.515.386c-.6,1.841-1.215,3.688-1.841,5.527a1.075,1.075,0,0,1-1.6.692,3.294,3.294,0,0,1-.612-.709v-.53a.618.618,0,0,0,.068-.112c.681-2.047,1.365-4.1,2.036-6.144a.948.948,0,0,0-.023-.538q-.445-1.377-.915-2.737-.577-1.695-1.166-3.381Z" transform="translate(-47.942 -8449.134)" fill="#737373"/>
  <path id="Path_3766" data-name="Path 3766" d="M70.021,8479.72v11.239h.538c1.319,0,2.636,0,3.955.014a1.092,1.092,0,0,1,1.095,1,1.114,1.114,0,0,1-.795,1.169,1.722,1.722,0,0,1-.521.055c-1.258,0-2.518,0-3.776,0h-.5v11.239c.339,0,.668-.006,1,.007a1.13,1.13,0,1,1,.016,2.257q-2.175.01-4.349,0a1.129,1.129,0,1,1-.013-2.257c.332-.016.668,0,1.029,0V8493.2H66.118c-.951,0-1.906.008-2.857,0a1.123,1.123,0,0,1-1.144-1.1,1.1,1.1,0,0,1,1.108-1.122c1.319-.02,2.636-.012,3.955-.014h.534V8479.72h-.577q-8.474,0-16.947,0a4.547,4.547,0,0,1-.531-.018,1.059,1.059,0,0,1-1.01-1.072c-.023-.776-.02-1.549-.007-2.329a1.156,1.156,0,0,1,.792-1.053q4.335-2.024,8.653-4.064,5.038-2.366,10.07-4.754a1.552,1.552,0,0,1,1.424,0q9.334,4.417,18.687,8.8a1.3,1.3,0,0,1,.837,1.344c-.023.582-.007,1.174-.007,1.759-.007.98-.4,1.389-1.381,1.389q-2.365,0-4.743,0H70.021Zm16.8-2.27c.137-.34-.059-.445-.29-.553q-8.674-4.075-17.345-8.15a.88.88,0,0,0-.635.009c-2.267,1.046-4.528,2.117-6.789,3.186q-5.258,2.464-10.513,4.943c-.388.183-.388.186-.309.565Z" transform="translate(-46.382 -8466.254)" fill="#737373"/>
  <path id="Path_3767" data-name="Path 3767" d="M63.848,8480.573c.863,0,1.727-.018,2.59.009a.525.525,0,0,0,.616-.435c.57-1.784,1.173-3.557,1.759-5.328a1.243,1.243,0,0,1,.876-.951,1.115,1.115,0,0,1,1.319,1.467c-.5,1.557-.955,3.133-1.564,4.646a4.3,4.3,0,0,0,0,3.434c.612,1.515,1.062,3.089,1.564,4.647a1.119,1.119,0,1,1-2.124.7c-.029-.085-.059-.163-.085-.249-.586-1.76-1.179-3.516-1.753-5.28a.505.505,0,0,0-.58-.418c-1.446.024-2.9.015-4.346,0a.4.4,0,0,0-.456.336c-.6,1.828-1.212,3.659-1.824,5.487a1.153,1.153,0,0,1-1.345.906,1.139,1.139,0,0,1-.8-1.581c.326-.993.665-1.992,1-2.985.381-1.149.762-2.3,1.147-3.449a1.18,1.18,0,0,1,1.332-.956c.893-.006,1.785,0,2.678,0" transform="translate(-26.113 -8449.128)" fill="#737373"/>
</svg>
