<svg xmlns="http://www.w3.org/2000/svg" width="43.389" height="30.174" viewBox="0 0 43.389 30.174">
  <path id="item06" d="M88.052,8571.54c0,1.013,0,1.945,0,2.875,0,.825-.329,1.105-1.069,1.088-1.5-.037-3.01-.033-4.519,0-.577.011-.938-.252-.948-.974-.016-.975,0-1.953,0-2.959H55.442v1.62c0,.447.01.9,0,1.355-.023.7-.283.945-.974.945-1.538,0-3.075-.018-4.613.008-.547.009-.932-.156-.958-.961-.036-.977-.01-1.955-.01-3-.358,0-.684.011-1.01,0a.77.77,0,0,1-.818-.772,3.38,3.38,0,0,1-.01-.407c0-4.449.016-8.889-.016-13.333-.007-.824.375-1.3,1.264-1.26.945.051,1.9.015,2.912.015v-.509c0-1.389-.016-2.772.013-4.162a5.869,5.869,0,0,1,2.01-4.4,3.979,3.979,0,0,1,2.564-1.063c.254-.009.511-.013.769-.013q12,0,24,.01a6.041,6.041,0,0,1,1.567.148,4.949,4.949,0,0,1,3.255,3.019,7.027,7.027,0,0,1,.525,2.957c-.007,1.16,0,2.319,0,3.484v.531h3.114c.769,0,1.1.312,1.1,1.076q0,6.842,0,13.693c0,.751-.254.988-1.016.99ZM84.4,8555.78c0-1.646.062-3.211-.016-4.774a3.814,3.814,0,0,0-3.939-3.744c-8,.044-16,.015-24,.025a4.165,4.165,0,0,0-1.332.267,3.416,3.416,0,0,0-2.349,3.154c-.14,1.651-.065,3.313-.078,4.966,0,.026.029.049.068.106h.88c.785,0,1.111.319,1.114,1.111v6.367H82.416v-.527c0-1.912.033-3.825-.02-5.737-.02-.775.427-1.308,1.212-1.219a7.9,7.9,0,0,0,.795,0m-.518,1.8v.507c0,1.961-.016,3.92.01,5.877a1.019,1.019,0,0,1-1.124,1.112q-14.191-.032-28.385,0a1.02,1.02,0,0,1-1.117-1.118c.029-1.957.01-3.917.01-5.874v-.5H48.545v12.171H88.616v-12.175Zm-.87,16.146h3.528v-2.131H83.016Zm-32.611-.007H53.92v-2.105H50.405Z" transform="translate(-46.881 -8545.48)" fill="#737373" stroke="#737373" strokeWidth="0.3"/>
</svg>
