<svg xmlns="http://www.w3.org/2000/svg" width="35.225" height="26.115" viewBox="0 0 35.225 26.115">
  <g id="item10" transform="translate(-0.016)">
    <g id="Group_3258" data-name="Group 3258" transform="translate(0)">
      <path id="Path_3789" data-name="Path 3789" d="M53.008,8655.144c10.963-8.9,21.563-8.218,31.025.291,1.365,1.459,2.738-.776,1.674-1.492-9.272-9.877-24.87-9.675-34.4-.35-1.427,1.4.93,2.829,1.7,1.551" transform="translate(-50.847 -8646.566)" fill="#737373"/>
    </g>
    <g id="Group_3259" data-name="Group 3259" transform="translate(6.279 8.488)">
      <path id="Path_3790" data-name="Path 3790" d="M54.6,8654.979s4.686-3.7,9.52-3.567a13.788,13.788,0,0,1,9.258,3.737c1.476,1.338,2.955-.318,1.469-1.657a15.713,15.713,0,0,0-21.567-.073c-1.5,1.316-.172,2.881,1.32,1.561" transform="translate(-52.774 -8649.171)" fill="#737373"/>
    </g>
    <g id="Group_3260" data-name="Group 3260" transform="translate(12.642 16.34)">
      <path id="Path_3791" data-name="Path 3791" d="M59.637,8661.355h-.042a4.905,4.905,0,0,1-4.867-4.909h0a4.878,4.878,0,0,1,1.479-3.462,4.806,4.806,0,0,1,3.385-1.4h.049a4.919,4.919,0,0,1,4.867,4.906,4.923,4.923,0,0,1-4.87,4.868Zm-3.114-4.9a3.145,3.145,0,0,0,3.088,3.1,3.258,3.258,0,0,0,2.166-.9,3.065,3.065,0,0,0,.935-2.183,3.121,3.121,0,0,0-3.092-3.108,2.83,2.83,0,0,0-2.157.89,3.094,3.094,0,0,0-.942,2.2Z" transform="translate(-54.727 -8651.581)" fill="#737373"/>
    </g>
  </g>
</svg>
