<svg xmlns="http://www.w3.org/2000/svg" width="36.971" height="43.396" viewBox="0 0 36.971 43.396">
  <g id="item05" transform="translate(0.26 0.251)">
    <path id="Path_3773" data-name="Path 3773" d="M52.236,8559.279c-.036-.023-.065-.059-.1-.066a2.8,2.8,0,0,1-2.219-2.7c-.218-3.063-.411-6.131-.616-9.188-.143-2.162-.283-4.319-.44-6.479a.625.625,0,0,0-.27-.4,1.719,1.719,0,0,1-.886-1.939,1.7,1.7,0,0,1,1.642-1.3c.111-.006.222,0,.336,0q8.982,0,17.967,0a3.075,3.075,0,0,1,.906.1,1.608,1.608,0,0,1,1.16,1.487,1.582,1.582,0,0,1-.863,1.6.592.592,0,0,0-.358.578c-.039.836-.1,1.676-.16,2.583a5.715,5.715,0,0,1,3.46-1.145c0-.5.013-.955,0-1.415a.792.792,0,0,1,.551-.921v-.638q0-10.6,0-21.194a1.719,1.719,0,1,1,3.43-.227c.01.161,0,.335,0,.5v21.1c0,.248-.013.46.274.62a.876.876,0,0,1,.254.611c.036.5.013,1,.013,1.53.375.042.72.063,1.059.123a5.536,5.536,0,0,1,4.512,4.9c.16,1.281.459,2.545.717,3.816.479,2.351.964,4.693,1.473,7.043a.866.866,0,0,1-.339,1.014Zm14.716-15.406c-.036.043-.072.082-.1.125a7.959,7.959,0,0,1-5.525,3.211,34.13,34.13,0,0,1-4.392.1,8.15,8.15,0,0,1-6.275-3.032l-.319-.373c.049.731.091,1.332.13,1.93q.352,5.266.7,10.53a1.577,1.577,0,0,0,1.792,1.651H64.091c.691-3.334,1.388-6.6,2.043-9.88a11.815,11.815,0,0,1,.661-2.752m.283-4.717H50.245a6.945,6.945,0,0,0,5.721,5.273,32.445,32.445,0,0,0,4.261.107,6.942,6.942,0,0,0,5.493-2.663,6.588,6.588,0,0,0,1.359-2.718m13.458,6.547a.788.788,0,0,0,0-.181,4.168,4.168,0,0,0-3.939-3.34c-1.675-.02-3.349-.018-5.024,0a4.175,4.175,0,0,0-3.971,3.2,2.323,2.323,0,0,0-.029.324Zm-7.822,10.77h3.31c-.14-3.167-.277-6.3-.414-9.442H73.125c-.137,3.159-.274,6.288-.41,9.442m2.294-17.918q0-10.674,0-21.354a1.528,1.528,0,0,0-.186-.89,1,1,0,0,0-1.521-.01,1.54,1.54,0,0,0-.192.909v15.913c0,1.321,0,2.649,0,3.975v1.214a.95.95,0,0,0,0,.192c.016.091.029.07.127.07ZM68.427,8558c.394-3.161.785-6.309,1.183-9.489-.482,0-1.479.016-1.88-.007-.267-.008-.388.063-.443.349-.342,1.729-.71,3.444-1.069,5.159-.274,1.326-.551,2.649-.831,3.988Zm10.653-9.489c.4,3.2.792,6.341,1.186,9.489h2.443c-.078-.379-.15-.735-.225-1.086q-.836-4.027-1.684-8.062c-.026-.128-.166-.318-.264-.324-.456-.036-.915-.018-1.456-.018m.5,9.489c-.4-3.189-.788-6.324-1.183-9.466h-2.15c.14,3.167.277,6.314.417,9.466Zm-7.48,0c.137-3.177.277-6.312.417-9.489-.456,0-1.512.016-1.912-.007-.267-.008-.323.119-.352.347q-.45,3.655-.909,7.309c-.075.605-.14,1.21-.212,1.841Zm-13.367-19.905H52.991c-1.16,0-2.316,0-3.476,0-.313,0-.586.144-.593.761-.01.662.274.823.606.8.055,0,.111,0,.166,0H67.661c.567,0,.792-.23.788-.786s-.228-.773-.8-.773q-4.462,0-8.92,0m16.283,3.294H73.089v1.007h1.922Z" transform="translate(-47.649 -8516.384)" fill="#737373" stroke="#737373" stroke-linecap="round" stroke-width="0.5"/>
  </g>
</svg>
