<svg id="item02" xmlns="http://www.w3.org/2000/svg" width="25.75" height="43.774" viewBox="0 0 25.75 43.774">
  <g id="Group_3275" data-name="Group 3275" transform="translate(0 0)">
    <path id="Path_3866" data-name="Path 3866" d="M52.333,8441.333a.966.966,0,0,0-1,.987c-.013.6,0,1.2,0,1.8s-.016,1.2,0,1.8a.991.991,0,0,0,1.026.976,1.011,1.011,0,0,0,1.095-.924c.036-1.236.036-2.465,0-3.7A.979.979,0,0,0,52.333,8441.333Z" transform="translate(-48.13 -8432.93)" fill="#737373"/>
    <path id="Path_3867" data-name="Path 3867" d="M52.336,8449.743a.985.985,0,0,0,1.124-.946c.033-1.227.033-2.461,0-3.691a1.02,1.02,0,0,0-1.1-.924,1,1,0,0,0-1.02.986c-.02.6,0,1.194,0,1.795h0v1.685c0,.041,0,.075,0,.109A.973.973,0,0,0,52.336,8449.743Z" transform="translate(-48.13 -8426.479)" fill="#737373"/>
    <path id="Path_3868" data-name="Path 3868" d="M74.394,8438.75H52.046a1.7,1.7,0,0,0-1.7,1.7v40.376a1.7,1.7,0,0,0,1.7,1.7H74.394a1.7,1.7,0,0,0,1.7-1.7v-40.376A1.7,1.7,0,0,0,74.394,8438.75Zm-21.909,1.895H73.909V8453.6H52.485Zm21.43,39.982H52.5v-25.073H73.915Z" transform="translate(-50.345 -8438.75)" fill="#737373"/>
  </g>
  <path id="Path_3869" data-name="Path 3869" d="M51.332,8446.963c0-.6-.016-1.2,0-1.795a1,1,0,0,1,1.02-.986,1.02,1.02,0,0,1,1.1.924c.036,1.23.036,2.465,0,3.691a.985.985,0,0,1-1.124.946.973.973,0,0,1-1-.986c0-.034,0-.068,0-.109v-1.685Z" transform="translate(-48.13 -8426.479)" fill="#737373"/>
  <path id="Path_3870" data-name="Path 3870" d="M51.331,8444.117c0-.6-.013-1.2,0-1.8a.961.961,0,0,1,1-.987.979.979,0,0,1,1.127.937c.036,1.231.033,2.46,0,3.7a1.01,1.01,0,0,1-1.091.924.989.989,0,0,1-1.026-.976c-.02-.6-.007-1.2-.007-1.8" transform="translate(-48.129 -8432.93)" fill="#737373"/>
</svg>
