<svg xmlns="http://www.w3.org/2000/svg" width="37.279" height="37.282" viewBox="0 0 37.279 37.282">
  <g id="item09" transform="translate(0.15 0.151)">
    <path id="Path_3786" data-name="Path 3786" d="M78.807,8633.4c2.43,0,4.861-.006,7.291.01a.987.987,0,0,0,.981-.52v-12.128a.977.977,0,0,0-.981-.515c-1.538.019-9.464.011-11.777,0h-.586c-1.5.006-3,0-4.5,0-.687,0-.928.251-.928.944v11.265c0,.694.241.938.928.938q3.665.006,7.33,0h.381v2.875H60.922a4.442,4.442,0,0,0,.378-2.414,3.178,3.178,0,0,0,0-.432c-.036-.266.068-.389.316-.507a4.952,4.952,0,0,0,2.929-4.384c.042-.637-.241-.93-.87-.913a12.676,12.676,0,0,0-3.558.229c-.042-.166-.078-.3-.111-.443a8,8,0,0,0-2.026-3.764.757.757,0,0,0-1.287-.012,7.845,7.845,0,0,0-1.815,3c-.13.4-.228.8-.345,1.213a3.847,3.847,0,0,0-.4-.089c-1.065-.043-2.134-.1-3.2-.131a.719.719,0,0,0-.818.856,4.964,4.964,0,0,0,2.981,4.467.388.388,0,0,1,.27.392,5.661,5.661,0,0,0,.378,2.944H51.076c-.743,0-.971.23-.971.972q0,9.5-.007,18.988a.981.981,0,0,0,.515.984h.43a.943.943,0,0,0,.515-.984c-.029-.376-.007-.762-.007-1.161H63.1c0,.381.023.775,0,1.161a.93.93,0,0,0,.508.984h.437a.989.989,0,0,0,.511-.984q-.02-6.858-.01-13.717v-.441H85.635v.409c0,4.583.006,9.165-.007,13.749a.984.984,0,0,0,.511.984h.938v-20.433a.976.976,0,0,0-.981-.518c-2.417.015-4.838.006-7.255.006h-.407V8633.4ZM63,8629.083c-.274,1.965-2.114,3.053-4.848,2.845C58.55,8630.16,59.96,8628.734,63,8629.083Zm-3.2,6.068a1.338,1.338,0,0,1-1.349,1.127c-.759.011-1.515.013-2.271,0a1.43,1.43,0,0,1-1.375-1.324,2.746,2.746,0,0,1-.007-.285v-1.26h5.017A13,13,0,0,1,59.8,8635.151Zm-2.486-10.035a2.907,2.907,0,0,1,.218.253,6.857,6.857,0,0,1,1.157,2.8.591.591,0,0,1-.231.613c-.407.361-.766.785-1.121,1.163-.42-.426-.863-.861-1.29-1.307a.457.457,0,0,1-.088-.316A6.453,6.453,0,0,1,57.315,8625.116Zm-5.665,4c2.013-.263,3.887.146,4.75,2.383.052.135.081.274.153.522a18.262,18.262,0,0,1-2.4-.241A3.4,3.4,0,0,1,51.65,8629.116Zm11.428,24.472H51.568v-5.007h11.51Zm0-6.5H51.568v-5.01h11.51Zm22.541-9.341v2.845H51.568v-2.845Zm-15.849-5.832v-10.227h.407c1.179,0,2.359,0,3.538,0l.01,0c1.394,0,10.1,0,11.5,0h.384v10.227Z" transform="translate(-50.099 -8620.243)" fill="#737373" stroke="#737373" strokeWidth="0.3"/>
    <path id="Path_3787" data-name="Path 3787" d="M52.8,8628.93a.718.718,0,1,0-.7-.752A.723.723,0,0,0,52.8,8628.93Z" transform="translate(-45.588 -8603.868)" fill="#737373" stroke="#737373" strokeWidth="0.3"/>
    <path id="Path_3788" data-name="Path 3788" d="M52.807,8630.932a.721.721,0,1,0-.71-.71A.732.732,0,0,0,52.807,8630.932Z" transform="translate(-45.588 -8599.365)" fill="#737373" stroke="#737373" strokeWidth="0.3"/>
  </g>
</svg>
