<svg xmlns="http://www.w3.org/2000/svg" width="44.961" height="33.794" viewBox="0 0 44.961 33.794">
  <g id="item08" transform="translate(0.15 0.149)">
    <path id="Path_3774" data-name="Path 3774" d="M84.335,8598.347H50.164v23.791H79.5c.785,0,1.16.25,1.147.762-.013.5-.371.727-1.13.727H76.936c0,.681,0,1.344,0,2,0,.727-.248.977-.977.977h-17.4c-.726,0-.971-.25-.974-.978v-2H50.356a1.518,1.518,0,0,1-1.7-1.686V8598.5a1.51,1.51,0,0,1,1.678-1.665q16.928,0,33.865,0a1.511,1.511,0,0,1,1.675,1.665c0,.987,0,1.982,0,2.977,0,.582-.277.931-.74.933s-.746-.344-.749-.925c0-1.007,0-2.018-.007-3.024a.57.57,0,0,0-.039-.112m-25.242,26.738H75.409v-1.433H59.093Z" transform="translate(-48.652 -8596.832)" fill="#737373" stroke="#737373" strokeWidth="0.3"/>
    <path id="Path_3775" data-name="Path 3775" d="M70.616,8611.115q0,4.348,0,8.7a1.527,1.527,0,0,1-1.733,1.74q-4.237,0-8.467,0a1.526,1.526,0,0,1-1.707-1.726v-17.4a1.522,1.522,0,0,1,1.714-1.717q4.256-.006,8.513,0a1.512,1.512,0,0,1,1.681,1.7q0,4.351,0,8.7m-10.389,8.913H69.1v-17.8H60.226Z" transform="translate(-25.954 -8588.061)" fill="#737373" stroke="#737373" strokeWidth="0.3"/>
    <path id="Path_3776" data-name="Path 3776" d="M57.579,8603.534c.469-.928.9-1.8,1.336-2.661a3.857,3.857,0,0,1,.261-.494.7.7,0,0,1,.932-.269.692.692,0,0,1,.365.933c-.74,1.522-1.486,3.038-2.264,4.532a.71.71,0,0,1-1.284.007c-.775-1.5-1.521-3.017-2.261-4.532a.7.7,0,0,1,.358-.939.711.711,0,0,1,.981.35c.453.862.88,1.746,1.316,2.615.068.128.147.254.261.459" transform="translate(-35.237 -8589.598)" fill="#737373" stroke="#737373" strokeWidth="0.3"/>
    <path id="Path_3777" data-name="Path 3777" d="M56.026,8601.52v3.577c-.01.546-.287.876-.736.88s-.749-.322-.753-.862c0-1.011,0-2.02,0-3.021v-.574c-.466,0-.906,0-1.349,0-.547,0-.88-.294-.88-.738s.326-.743.873-.747q2.092-.006,4.18,0c.554,0,.886.283.893.729s-.336.754-.912.756c-.417.007-.834,0-1.316,0" transform="translate(-40.395 -8589.608)" fill="#737373" stroke="#737373" strokeWidth="0.3"/>
    <path id="Path_3778" data-name="Path 3778" d="M63.751,8598.656a5.921,5.921,0,0,1,4.232,1.806.777.777,0,0,1,.111,1.149.742.742,0,0,1-1.144-.079,4.479,4.479,0,0,0-6.454.021.746.746,0,1,1-1.043-1.056,5.927,5.927,0,0,1,4.3-1.841" transform="translate(-24.918 -8592.708)" fill="#737373" stroke="#737373" strokeWidth="0.3"/>
    <path id="Path_3779" data-name="Path 3779" d="M64.7,8601.06c-.2.235-.329.543-.544.613a1.311,1.311,0,0,1-.8-.1c-.355-.126-.684-.453-1.026-.457a2.344,2.344,0,0,0-1.176.414c-.453.276-.824.325-1.124,0a.786.786,0,0,1,.147-1.146,2.969,2.969,0,0,1,4.082.014,4.656,4.656,0,0,1,.446.662" transform="translate(-23.391 -8590.631)" fill="#737373" stroke="#737373" strokeWidth="0.3"/>
    <path id="Path_3780" data-name="Path 3780" d="M50.552,8605.15a.731.731,0,1,1,.723-.746.754.754,0,0,1-.723.746" transform="translate(-46.069 -8581.348)" fill="#737373" stroke="#737373" strokeWidth="0.3"/>
    <path id="Path_3781" data-name="Path 3781" d="M62.6,8604.142a2.974,2.974,0,1,1-2.974,2.951,3,3,0,0,1,2.974-2.951m1.45,2.992a1.471,1.471,0,1,0-1.5,1.467,1.513,1.513,0,0,0,1.5-1.467" transform="translate(-23.875 -8580.321)" fill="#737373" stroke="#737373" strokeWidth="0.3"/>
    <path id="Path_3782" data-name="Path 3782" d="M61.317,8602.6a.733.733,0,1,1-.723-.745.755.755,0,0,1,.723.745" transform="translate(-23.367 -8585.478)" fill="#737373" stroke="#737373" strokeWidth="0.3"/>
    <path id="Path_3783" data-name="Path 3783" d="M61.5,8601.859a.737.737,0,1,1-.733.738.752.752,0,0,1,.733-.738" transform="translate(-21.303 -8585.478)" fill="#737373" stroke="#737373" strokeWidth="0.3"/>
    <path id="Path_3784" data-name="Path 3784" d="M61.317,8603.531a.733.733,0,1,1-.71-.76.759.759,0,0,1,.71.76" transform="translate(-23.367 -8583.415)" fill="#737373" stroke="#737373" strokeWidth="0.3"/>
    <path id="Path_3785" data-name="Path 3785" d="M62.231,8603.525a.733.733,0,1,1-.717-.754.759.759,0,0,1,.717.754" transform="translate(-21.303 -8583.415)" fill="#737373" stroke="#737373" strokeWidth="0.3"/>
  </g>
</svg>
