<svg xmlns="http://www.w3.org/2000/svg" width="21.983" height="27.582" viewBox="0 0 21.983 27.582">
  <g id="location" transform="translate(0.501 0.5)">
    <path id="Path_3130" data-name="Path 3130" d="M160.039,95.886a13.435,13.435,0,0,1,2.319.507,10.864,10.864,0,0,1,7.033,7.957,10.186,10.186,0,0,1-.456,5.2,21.067,21.067,0,0,1-3.337,5.988,60.076,60.076,0,0,1-5.609,6.228c-.14.141-.279.283-.422.421a.656.656,0,0,1-1.024,0q-1.123-1.129-2.233-2.27a40.922,40.922,0,0,1-5.12-6.265,16.592,16.592,0,0,1-2.361-5.347,9.488,9.488,0,0,1,2.095-8.516,10.509,10.509,0,0,1,5.521-3.6c.535-.141,1.083-.2,1.625-.3Zm-.987,1.257a9.8,9.8,0,0,0-2.709.424,9.453,9.453,0,0,0-4.809,3.552,8.067,8.067,0,0,0-1.677,4.985,9.367,9.367,0,0,0,.382,2.5,17.7,17.7,0,0,0,2.69,5.307,53.487,53.487,0,0,0,5.968,6.8c.139.14.219.1.334-.02.587-.608,1.184-1.207,1.77-1.816a44.937,44.937,0,0,0,3.647-4.232,19.63,19.63,0,0,0,3.061-5.521,8.364,8.364,0,0,0-1.667-8.67A9.087,9.087,0,0,0,159.052,97.143Z" transform="translate(-148.567 -95.886)" fill="#767676" stroke="#707070" stroke-width="1"/>
    <path id="Path_3131" data-name="Path 3131" d="M164.2,117.127a4.6,4.6,0,1,1,4.548,4.584A4.593,4.593,0,0,1,164.2,117.127Zm1.3.008a3.3,3.3,0,1,0,3.293-3.3A3.33,3.33,0,0,0,165.5,117.135Z" transform="translate(-158.304 -106.256)" fill="#767676" stroke="#707070" stroke-width="1"/>
  </g>
</svg>
