<svg xmlns="http://www.w3.org/2000/svg" xmlns:xlink="http://www.w3.org/1999/xlink" width="207.232" height="47.711" viewBox="0 0 207.232 47.711">
  <defs>
    <clipPath id="clip-path">
      <path id="Path_217" data-name="Path 217" d="M1081.6,1371.281l1.838-4.87a.693.693,0,0,1,1.3,0l1.838,4.87a.693.693,0,0,1-.649.938h-3.675a.693.693,0,0,1-.648-.937m2.237-8.354a.692.692,0,0,0-.646.445l-4.877,12.691a.693.693,0,1,0,1.3.494l.967-2.562a.694.694,0,0,1,.648-.448h5.722a.694.694,0,0,1,.649.448l.966,2.563a.693.693,0,1,0,1.3-.494l-4.877-12.691a.7.7,0,0,0-.647-.445Z" transform="translate(-1078.271 -1362.928)"/>
    </clipPath>
    <clipPath id="clip-path-2">
      <path id="Path_229" data-name="Path 229" d="M1122.286,1362.928a.714.714,0,0,0-.672.474l-3.541,9.841a.715.715,0,0,1-1.346,0l-3.541-9.841a.715.715,0,1,0-1.344.489l4.661,12.647a.715.715,0,0,0,.671.468h.45a.713.713,0,0,0,.671-.468l4.662-12.647a.715.715,0,0,0-.671-.963Z" transform="translate(-1111.797 -1362.928)"/>
    </clipPath>
    <clipPath id="clip-path-3">
      <path id="Path_242" data-name="Path 242" d="M1156.829,1364.565a7.282,7.282,0,0,0,5.289,12.449,6.915,6.915,0,0,0,5.007-1.8A5.885,5.885,0,0,0,1169,1370.8v-.061a.664.664,0,0,0-.664-.663h-8.816a.664.664,0,1,0,0,1.327h7.227a.662.662,0,0,1,.642.835,4.452,4.452,0,0,1-1.466,2.212,6.029,6.029,0,1,1-3.8-10.629,5.6,5.6,0,0,1,2.876.765,5.057,5.057,0,0,1,1.649,1.514.667.667,0,0,0,.885.209l.083-.048a.662.662,0,0,0,.215-.952,6.738,6.738,0,0,0-2.129-1.911,7.013,7.013,0,0,0-3.579-.945,7.134,7.134,0,0,0-5.289,2.112" transform="translate(-1154.738 -1362.454)"/>
    </clipPath>
    <clipPath id="clip-path-4">
      <path id="Path_259" data-name="Path 259" d="M1199.112,1369.847v-5.391a.2.2,0,0,1,.2-.2h4.023a2.682,2.682,0,0,1,1.99.845,2.818,2.818,0,0,1,.823,1.938,2.992,2.992,0,0,1-.878,2.211,2.657,2.657,0,0,1-1.936.8h-4.023a.2.2,0,0,1-.2-.2m-1.207-6.919a.2.2,0,0,0-.2.2V1376.8a.2.2,0,0,0,.2.2h1.006a.2.2,0,0,0,.2-.2v-5.229a.2.2,0,0,1,.2-.2h3.639a.2.2,0,0,1,.173.1l3.169,5.432a.2.2,0,0,0,.173.1h1.142a.2.2,0,0,0,.172-.3l-3.133-5.3a.2.2,0,0,1,.112-.29,4.116,4.116,0,0,0,1.943-1.422,4.222,4.222,0,0,0-.116-5.241,4.481,4.481,0,0,0-3.437-1.526Z" transform="translate(-1197.704 -1362.928)"/>
    </clipPath>
    <clipPath id="clip-path-5">
      <path id="Path_280" data-name="Path 280" d="M1233.548,1373.927a6.049,6.049,0,0,1,0-8.386,5.948,5.948,0,0,1,8.366,0,6.048,6.048,0,0,1,0,8.386,5.947,5.947,0,0,1-8.366,0m-.985-9.351a7.355,7.355,0,1,0,5.168-2.122,7.039,7.039,0,0,0-5.168,2.122" transform="translate(-1230.451 -1362.454)"/>
    </clipPath>
    <clipPath id="clip-path-6">
      <path id="Path_291" data-name="Path 291" d="M1282.468,1363.632v8.587a3.57,3.57,0,0,1-1.006,2.674,4.512,4.512,0,0,1-5.631,0,3.571,3.571,0,0,1-1-2.674v-8.587a.7.7,0,1,0-1.408,0v8.587a4.8,4.8,0,0,0,1.447,3.661,5.912,5.912,0,0,0,7.562,0,4.8,4.8,0,0,0,1.448-3.661v-8.587a.7.7,0,1,0-1.407,0" transform="translate(-1273.418 -1362.928)"/>
    </clipPath>
    <clipPath id="clip-path-7">
      <path id="Path_307" data-name="Path 307" d="M1311.518,1369.746v-4.787a.7.7,0,0,1,.7-.7h2.916a2.9,2.9,0,0,1,2.161.875,3.316,3.316,0,0,1,0,4.444,2.894,2.894,0,0,1-2.161.875h-2.916a.7.7,0,0,1-.7-.7m-.7-6.818a.7.7,0,0,0-.7.7v12.67a.7.7,0,1,0,1.407,0v-3.821a.7.7,0,0,1,.7-.7h2.916a4.425,4.425,0,1,0,0-8.849Z" transform="translate(-1310.111 -1362.928)"/>
    </clipPath>
  </defs>
  <g id="nav-group-logo" transform="translate(0 0)">
    <path id="Path_210" data-name="Path 210" d="M922.769,1370.531a.673.673,0,0,1-.291-.066.684.684,0,0,1-.327-.911l21.4-45.347a2.413,2.413,0,0,1,4.37,0l21.19,44.347a1.045,1.045,0,0,0,1.894,0l21.4-45.349a.684.684,0,0,1,1.238.584l-21.4,45.347a2.413,2.413,0,0,1-4.37,0l-21.19-44.347a1.045,1.045,0,0,0-1.894,0l-21.4,45.349a.685.685,0,0,1-.619.392" transform="translate(-922.085 -1322.82)"/>
    <path id="Path_211" data-name="Path 211" d="M931.692,1370.531a.673.673,0,0,1-.291-.066.683.683,0,0,1-.327-.911l21.4-45.347a2.413,2.413,0,0,1,4.37,0l21.19,44.347a1.045,1.045,0,0,0,1.894,0l21.4-45.349a.685.685,0,0,1,1.238.584l-21.4,45.347a2.413,2.413,0,0,1-4.37,0l-21.19-44.347a1.045,1.045,0,0,0-1.894,0l-21.4,45.349a.685.685,0,0,1-.619.392" transform="translate(-926.46 -1322.82)"/>
    <path id="Path_212" data-name="Path 212" d="M1088.565,1376.557,1087.6,1374a.694.694,0,0,0-.649-.449h-5.722a.692.692,0,0,0-.648.449l-.967,2.562a.693.693,0,1,1-1.3-.494l4.877-12.691a.692.692,0,0,1,.646-.445h.5a.693.693,0,0,1,.647.445l4.877,12.691a.693.693,0,0,1-.647.942h0a.693.693,0,0,1-.648-.448m-6.314-4.338h3.675a.694.694,0,0,0,.649-.938l-1.838-4.87a.693.693,0,0,0-1.3,0l-1.838,4.87a.693.693,0,0,0,.648.938" transform="translate(-998.662 -1342.485)"/>
    <g id="Group_105" data-name="Group 105" transform="translate(79.609 20.443)">
      <path id="Path_213" data-name="Path 213" d="M1081.6,1371.281l1.838-4.87a.693.693,0,0,1,1.3,0l1.838,4.87a.693.693,0,0,1-.649.938h-3.675a.693.693,0,0,1-.648-.937m2.237-8.354a.692.692,0,0,0-.646.445l-4.877,12.691a.693.693,0,1,0,1.3.494l.967-2.562a.694.694,0,0,1,.648-.448h5.722a.694.694,0,0,1,.649.448l.966,2.563a.693.693,0,1,0,1.3-.494l-4.877-12.691a.7.7,0,0,0-.647-.445Z" transform="translate(-1078.271 -1362.928)"/>
      <g id="Group_104" data-name="Group 104" clip-path="url(#clip-path)">
        <rect id="Rectangle_153" data-name="Rectangle 153" width="5.314" height="6.406" transform="translate(3.162 2.885)"/>
        <path id="Path_214" data-name="Path 214" d="M1086.748,1362.928l3.165,1.415v6.123l-2.924,6.54h-8.969v-14.078Z" transform="translate(-1078.147 -1362.928)"/>
        <path id="Path_215" data-name="Path 215" d="M1098.54,1382.81l-.646,1.446h-2.277l2.924-6.54Z" transform="translate(-1086.775 -1370.178)"/>
        <path id="Path_216" data-name="Path 216" d="M1100.084,1389.156l.646-1.446v1.446Z" transform="translate(-1088.966 -1375.078)"/>
      </g>
    </g>
    <path id="Path_218" data-name="Path 218" d="M1116.5,1376.537l-4.662-12.647a.715.715,0,1,1,1.344-.489l3.541,9.842a.715.715,0,0,0,1.346,0l3.541-9.842a.715.715,0,1,1,1.344.489l-4.661,12.647a.715.715,0,0,1-.671.468h-.451a.714.714,0,0,1-.671-.468" transform="translate(-1015.099 -1342.485)"/>
    <g id="Group_107" data-name="Group 107" transform="translate(96.698 20.443)">
      <path id="Path_219" data-name="Path 219" d="M1122.286,1362.928a.714.714,0,0,0-.672.474l-3.541,9.841a.715.715,0,0,1-1.346,0l-3.541-9.841a.715.715,0,1,0-1.344.489l4.661,12.647a.715.715,0,0,0,.671.468h.45a.713.713,0,0,0,.671-.468l4.662-12.647a.715.715,0,0,0-.671-.963Z" transform="translate(-1111.797 -1362.928)"/>
      <g id="Group_106" data-name="Group 106" clip-path="url(#clip-path-2)">
        <path id="Path_220" data-name="Path 220" d="M1113.051,1362.928l-1.5,3.364v-3.364Z" transform="translate(-1111.675 -1362.928)"/>
        <path id="Path_221" data-name="Path 221" d="M1115.325,1362.928l-3.778,8.45v-5.086l1.5-3.364Z" transform="translate(-1111.675 -1362.928)"/>
        <path id="Path_222" data-name="Path 222" d="M1117.6,1362.928l-5.76,12.885-.291-.13v-4.305l3.778-8.45Z" transform="translate(-1111.675 -1362.928)"/>
        <path id="Path_223" data-name="Path 223" d="M1120.151,1362.928l-6.138,13.732-1.9-.847,5.76-12.885Z" transform="translate(-1111.954 -1362.928)"/>
        <path id="Path_224" data-name="Path 224" d="M1124.247,1362.928l-6.293,14.078h-1.346l-.772-.346,6.138-13.732Z" transform="translate(-1113.777 -1362.928)"/>
        <path id="Path_225" data-name="Path 225" d="M1127.148,1366.085l-4.882,10.921h-2.274l6.293-14.077h.863Z" transform="translate(-1115.815 -1362.929)"/>
        <path id="Path_226" data-name="Path 226" d="M1129.335,1374.206l-2.609,5.836h-2.273l4.882-10.921Z" transform="translate(-1118.002 -1365.964)"/>
        <path id="Path_227" data-name="Path 227" d="M1131.521,1384.184l-.335.75h-2.273l2.609-5.836Z" transform="translate(-1120.189 -1370.856)"/>
        <path id="Path_228" data-name="Path 228" d="M1133.373,1389.825l.335-.75v.75Z" transform="translate(-1122.376 -1375.747)"/>
      </g>
    </g>
    <path id="Path_230" data-name="Path 230" d="M1168.333,1370.077a.664.664,0,0,1,.664.663v.061a5.887,5.887,0,0,1-1.871,4.414,6.917,6.917,0,0,1-5.007,1.8,7.282,7.282,0,1,1,0-14.56,7.006,7.006,0,0,1,3.579.945,6.734,6.734,0,0,1,2.129,1.91.661.661,0,0,1-.215.952l-.083.048a.667.667,0,0,1-.885-.21,5.063,5.063,0,0,0-1.65-1.513,5.593,5.593,0,0,0-2.876-.765,5.917,5.917,0,1,0,3.8,10.629,4.454,4.454,0,0,0,1.466-2.212.662.662,0,0,0-.643-.835h-7.227a.664.664,0,1,1,0-1.327Z" transform="translate(-1036.153 -1342.253)"/>
    <g id="Group_109" data-name="Group 109" transform="translate(118.585 20.202)">
      <path id="Path_231" data-name="Path 231" d="M1156.829,1364.565a7.282,7.282,0,0,0,5.289,12.449,6.915,6.915,0,0,0,5.007-1.8A5.885,5.885,0,0,0,1169,1370.8v-.061a.664.664,0,0,0-.664-.663h-8.816a.664.664,0,1,0,0,1.327h7.227a.662.662,0,0,1,.642.835,4.452,4.452,0,0,1-1.466,2.212,6.029,6.029,0,1,1-3.8-10.629,5.6,5.6,0,0,1,2.876.765,5.057,5.057,0,0,1,1.649,1.514.667.667,0,0,0,.885.209l.083-.048a.662.662,0,0,0,.215-.952,6.738,6.738,0,0,0-2.129-1.911,7.013,7.013,0,0,0-3.579-.945,7.134,7.134,0,0,0-5.289,2.112" transform="translate(-1154.738 -1362.454)"/>
      <g id="Group_108" data-name="Group 108" transform="translate(0 0)" clip-path="url(#clip-path-3)">
        <path id="Path_232" data-name="Path 232" d="M1155.313,1362.455l-.575,1.286v-1.286Z" transform="translate(-1154.738 -1362.454)"/>
        <path id="Path_233" data-name="Path 233" d="M1157.7,1362.455l-2.957,6.616v-5.329l.575-1.286Z" transform="translate(-1154.738 -1362.454)"/>
        <path id="Path_234" data-name="Path 234" d="M1160.078,1362.455l-5.34,11.945v-5.329l2.957-6.616Z" transform="translate(-1154.738 -1362.454)"/>
        <path id="Path_235" data-name="Path 235" d="M1162.46,1362.455l-6.242,13.964-1.48-.661V1374.4l5.34-11.945Z" transform="translate(-1154.738 -1362.454)"/>
        <path id="Path_236" data-name="Path 236" d="M1166.265,1362.455l-6.509,14.561h-.782l-1.333-.6,6.242-13.964Z" transform="translate(-1156.161 -1362.454)"/>
        <path id="Path_237" data-name="Path 237" d="M1169.612,1362.455l.893.4-6.33,14.161h-2.382l6.509-14.561Z" transform="translate(-1158.197 -1362.454)"/>
        <path id="Path_238" data-name="Path 238" d="M1172.8,1363.238l1.95.872v.1l-5.9,13.194h-2.383Z" transform="translate(-1160.488 -1362.838)"/>
        <path id="Path_239" data-name="Path 239" d="M1177.038,1370.465l-3.516,7.864h-2.382l5.9-13.194Z" transform="translate(-1162.78 -1363.769)"/>
        <path id="Path_240" data-name="Path 240" d="M1179.33,1380.921l-1.133,2.535h-2.382l3.515-7.864Z" transform="translate(-1165.072 -1368.895)"/>
        <path id="Path_241" data-name="Path 241" d="M1180.488,1388.582l1.133-2.535v2.535Z" transform="translate(-1167.363 -1374.022)"/>
      </g>
    </g>
    <path id="Path_243" data-name="Path 243" d="M1206.294,1376.906l-3.169-5.432a.2.2,0,0,0-.173-.1h-3.639a.2.2,0,0,0-.2.2v5.229a.2.2,0,0,1-.2.2h-1.006a.2.2,0,0,1-.2-.2v-13.676a.2.2,0,0,1,.2-.2h5.246a4.484,4.484,0,0,1,3.437,1.526,4.223,4.223,0,0,1,.116,5.241,4.116,4.116,0,0,1-1.943,1.422.2.2,0,0,0-.112.291l3.133,5.295a.2.2,0,0,1-.173.3h-1.142a.2.2,0,0,1-.173-.1m-7.182-12.45v5.391a.2.2,0,0,0,.2.2h4.022a2.656,2.656,0,0,0,1.936-.8,2.992,2.992,0,0,0,.878-2.211,2.813,2.813,0,0,0-.823-1.937,2.679,2.679,0,0,0-1.99-.845h-4.022a.2.2,0,0,0-.2.2" transform="translate(-1057.219 -1342.485)"/>
    <g id="Group_111" data-name="Group 111" transform="translate(140.485 20.443)">
      <path id="Path_244" data-name="Path 244" d="M1199.112,1369.847v-5.391a.2.2,0,0,1,.2-.2h4.023a2.682,2.682,0,0,1,1.99.845,2.818,2.818,0,0,1,.823,1.938,2.992,2.992,0,0,1-.878,2.211,2.657,2.657,0,0,1-1.936.8h-4.023a.2.2,0,0,1-.2-.2m-1.207-6.919a.2.2,0,0,0-.2.2V1376.8a.2.2,0,0,0,.2.2h1.006a.2.2,0,0,0,.2-.2v-5.229a.2.2,0,0,1,.2-.2h3.639a.2.2,0,0,1,.173.1l3.169,5.432a.2.2,0,0,0,.173.1h1.142a.2.2,0,0,0,.172-.3l-3.133-5.3a.2.2,0,0,1,.112-.29,4.116,4.116,0,0,0,1.943-1.422,4.222,4.222,0,0,0-.116-5.241,4.481,4.481,0,0,0-3.437-1.526Z" transform="translate(-1197.704 -1362.928)"/>
      <g id="Group_110" data-name="Group 110" transform="translate(0)" clip-path="url(#clip-path-4)">
        <path id="Path_245" data-name="Path 245" d="M1200.834,1365.533l-.369.825v-.825Z" transform="translate(-1199.058 -1364.205)"/>
        <path id="Path_246" data-name="Path 246" d="M1203.176,1365.533l-2.59,5.792h-.12v-4.967l.368-.825Z" transform="translate(-1199.058 -1364.205)"/>
        <path id="Path_247" data-name="Path 247" d="M1205.633,1365.533l-2.59,5.792H1200.7l2.589-5.792Z" transform="translate(-1199.174 -1364.205)"/>
        <path id="Path_248" data-name="Path 248" d="M1209.9,1366.267l-2.26,5.057H1205.3l2.589-5.792h2.013Z" transform="translate(-1201.426 -1364.205)"/>
        <path id="Path_249" data-name="Path 249" d="M1209.89,1372.031l2.26-5.057v5.057Z" transform="translate(-1203.678 -1364.912)"/>
        <path id="Path_250" data-name="Path 250" d="M1197.732,1362.928l-.029.063v-.063Z" transform="translate(-1197.704 -1362.928)"/>
        <path id="Path_251" data-name="Path 251" d="M1200.073,1362.928l-2.37,5.3v-5.237l.029-.063Z" transform="translate(-1197.704 -1362.928)"/>
        <path id="Path_252" data-name="Path 252" d="M1202.415,1362.928l-4.711,10.538v-5.237l2.37-5.3Z" transform="translate(-1197.704 -1362.928)"/>
        <path id="Path_253" data-name="Path 253" d="M1204.756,1362.928l-6.293,14.078h-.759v-3.54l4.711-10.538Z" transform="translate(-1197.704 -1362.928)"/>
        <path id="Path_254" data-name="Path 254" d="M1207.542,1362.928l.238.107-6.245,13.971h-2.342l6.293-14.078Z" transform="translate(-1198.434 -1362.928)"/>
        <path id="Path_255" data-name="Path 255" d="M1210.032,1363.137l.811.362v3.062l-4.715,10.547h-2.341Z" transform="translate(-1200.686 -1363.031)"/>
        <path id="Path_256" data-name="Path 256" d="M1213.095,1375.093l-2.373,5.31h-2.342l4.715-10.547Z" transform="translate(-1202.938 -1366.325)"/>
        <path id="Path_257" data-name="Path 257" d="M1215.347,1385.368l-.032.072h-2.341l2.373-5.309Z" transform="translate(-1205.191 -1371.363)"/>
        <path id="Path_258" data-name="Path 258" d="M1217.567,1390.478l.032-.072v.072Z" transform="translate(-1207.443 -1376.401)"/>
      </g>
    </g>
    <path id="Path_260" data-name="Path 260" d="M1242.9,1374.893a7.355,7.355,0,1,1,2.112-5.159,7.011,7.011,0,0,1-2.112,5.159m-9.351-.966a5.947,5.947,0,0,0,8.366,0,6.048,6.048,0,0,0,0-8.386,5.947,5.947,0,0,0-8.366,0,6.049,6.049,0,0,0,0,8.386" transform="translate(-1073.275 -1342.252)"/>
    <g id="Group_113" data-name="Group 113" transform="translate(157.176 20.202)">
      <path id="Path_261" data-name="Path 261" d="M1233.548,1373.927a6.049,6.049,0,0,1,0-8.386,5.948,5.948,0,0,1,8.366,0,6.048,6.048,0,0,1,0,8.386,5.947,5.947,0,0,1-8.366,0m-.985-9.351a7.355,7.355,0,1,0,5.168-2.122,7.039,7.039,0,0,0-5.168,2.122" transform="translate(-1230.451 -1362.454)"/>
      <g id="Group_112" data-name="Group 112" transform="translate(0 0)" clip-path="url(#clip-path-5)">
        <path id="Path_262" data-name="Path 262" d="M1233.635,1365.138l-.422.943v-.943Z" transform="translate(-1231.805 -1363.77)"/>
        <path id="Path_263" data-name="Path 263" d="M1236.018,1365.138l-2.805,6.275v-5.332l.422-.943Z" transform="translate(-1231.805 -1363.77)"/>
        <path id="Path_264" data-name="Path 264" d="M1238.4,1365.138l-4.962,11.1-.227-.1v-4.722l2.805-6.275Z" transform="translate(-1231.805 -1363.77)"/>
        <path id="Path_265" data-name="Path 265" d="M1241,1365.138l-5.286,11.825h-.434l-1.625-.726,4.961-11.1Z" transform="translate(-1232.024 -1363.77)"/>
        <path id="Path_266" data-name="Path 266" d="M1245.305,1365.138l.051.023-5.276,11.8H1237.7l5.286-11.825Z" transform="translate(-1234.004 -1363.77)"/>
        <path id="Path_267" data-name="Path 267" d="M1247.649,1365.182l1.8.8v.5l-4.693,10.5h-2.383Z" transform="translate(-1236.296 -1363.792)"/>
        <path id="Path_268" data-name="Path 268" d="M1251.741,1373.076l-2.309,5.166h-2.384l4.693-10.5Z" transform="translate(-1238.588 -1365.048)"/>
        <path id="Path_269" data-name="Path 269" d="M1251.725,1383.37l2.309-5.165v5.165Z" transform="translate(-1240.881 -1370.177)"/>
        <path id="Path_270" data-name="Path 270" d="M1230.509,1362.455l-.058.128v-.128Z" transform="translate(-1230.451 -1362.454)"/>
        <path id="Path_271" data-name="Path 271" d="M1232.892,1362.455l-2.441,5.46v-5.332l.058-.128Z" transform="translate(-1230.451 -1362.454)"/>
        <path id="Path_272" data-name="Path 272" d="M1235.275,1362.455l-4.824,10.791v-5.331l2.441-5.46Z" transform="translate(-1230.451 -1362.454)"/>
        <path id="Path_273" data-name="Path 273" d="M1237.658,1362.455l-6.15,13.757-1.058-.473v-2.492l4.824-10.791Z" transform="translate(-1230.451 -1362.454)"/>
        <path id="Path_274" data-name="Path 274" d="M1241.059,1362.455l-6.509,14.561h-.227l-1.8-.8,6.149-13.757Z" transform="translate(-1231.469 -1362.454)"/>
        <path id="Path_275" data-name="Path 275" d="M1245.121,1362.455l.224.1-6.464,14.46H1236.5l6.509-14.561Z" transform="translate(-1233.416 -1362.454)"/>
        <path id="Path_276" data-name="Path 276" d="M1247.638,1362.651l1.986.888-6.067,13.572h-2.383Z" transform="translate(-1235.709 -1362.551)"/>
        <path id="Path_277" data-name="Path 277" d="M1251.917,1364.394l.644.288v3.6l-4.328,9.681h-2.384Z" transform="translate(-1238.001 -1363.405)"/>
        <path id="Path_278" data-name="Path 278" d="M1254.854,1377.357l-1.945,4.35h-2.383l4.328-9.681Z" transform="translate(-1240.294 -1367.147)"/>
        <path id="Path_279" data-name="Path 279" d="M1255.2,1386.836l1.944-4.35v4.35Z" transform="translate(-1242.587 -1372.276)"/>
      </g>
    </g>
    <path id="Path_281" data-name="Path 281" d="M1282.427,1375.88a5.912,5.912,0,0,1-7.561,0,4.8,4.8,0,0,1-1.448-3.66v-8.587a.7.7,0,1,1,1.408,0v8.587a3.572,3.572,0,0,0,1.006,2.675,4.514,4.514,0,0,0,5.631,0,3.573,3.573,0,0,0,1.006-2.675v-8.587a.7.7,0,0,1,1.408,0v8.587a4.8,4.8,0,0,1-1.448,3.66" transform="translate(-1094.341 -1342.485)"/>
    <g id="Group_115" data-name="Group 115" transform="translate(179.077 20.443)">
      <path id="Path_282" data-name="Path 282" d="M1282.468,1363.632v8.587a3.57,3.57,0,0,1-1.006,2.674,4.512,4.512,0,0,1-5.631,0,3.571,3.571,0,0,1-1-2.674v-8.587a.7.7,0,1,0-1.408,0v8.587a4.8,4.8,0,0,0,1.447,3.661,5.912,5.912,0,0,0,7.562,0,4.8,4.8,0,0,0,1.448-3.661v-8.587a.7.7,0,1,0-1.407,0" transform="translate(-1273.418 -1362.928)"/>
      <g id="Group_114" data-name="Group 114" transform="translate(0)" clip-path="url(#clip-path-6)">
        <path id="Path_283" data-name="Path 283" d="M1275.517,1362.928l-2.1,4.7v-4.7Z" transform="translate(-1273.418 -1362.928)"/>
        <path id="Path_284" data-name="Path 284" d="M1277.862,1362.928l-4.443,9.94v-5.244l2.1-4.7Z" transform="translate(-1273.418 -1362.928)"/>
        <path id="Path_285" data-name="Path 285" d="M1280.206,1362.928l-6.268,14.022-.52-.233v-3.848l4.443-9.94Z" transform="translate(-1273.418 -1362.928)"/>
        <path id="Path_286" data-name="Path 286" d="M1283.051,1362.928l-6.4,14.319H1275.1l-.665-.3,6.268-14.022Z" transform="translate(-1273.918 -1362.928)"/>
        <path id="Path_287" data-name="Path 287" d="M1286.5,1365.21l-5.381,12.038h-2.344l6.4-14.319h1.324Z" transform="translate(-1276.046 -1362.928)"/>
        <path id="Path_288" data-name="Path 288" d="M1288.759,1372.648l-3.037,6.793h-2.344l5.381-12.038Z" transform="translate(-1278.301 -1365.122)"/>
        <path id="Path_289" data-name="Path 289" d="M1291.013,1382.938l-.692,1.548h-2.345l3.037-6.793Z" transform="translate(-1280.556 -1370.167)"/>
        <path id="Path_290" data-name="Path 290" d="M1292.577,1389.531l.692-1.549v1.549Z" transform="translate(-1282.812 -1375.212)"/>
      </g>
    </g>
    <path id="Path_292" data-name="Path 292" d="M1315.139,1362.928a4.425,4.425,0,1,1,0,8.849h-2.916a.7.7,0,0,0-.7.7v3.821a.7.7,0,0,1-1.408,0v-12.67a.7.7,0,0,1,.7-.7Zm0,7.521a2.9,2.9,0,0,0,2.161-.875,3.317,3.317,0,0,0,0-4.445,2.9,2.9,0,0,0-2.161-.875h-2.916a.7.7,0,0,0-.7.7v4.786a.7.7,0,0,0,.7.7Z" transform="translate(-1112.331 -1342.485)"/>
    <g id="Group_117" data-name="Group 117" transform="translate(197.78 20.443)">
      <path id="Path_293" data-name="Path 293" d="M1311.518,1369.746v-4.787a.7.7,0,0,1,.7-.7h2.916a2.9,2.9,0,0,1,2.161.875,3.316,3.316,0,0,1,0,4.444,2.894,2.894,0,0,1-2.161.875h-2.916a.7.7,0,0,1-.7-.7m-.7-6.818a.7.7,0,0,0-.7.7v12.67a.7.7,0,1,0,1.407,0v-3.821a.7.7,0,0,1,.7-.7h2.916a4.425,4.425,0,1,0,0-8.849Z" transform="translate(-1310.111 -1362.928)"/>
      <g id="Group_116" data-name="Group 116" clip-path="url(#clip-path-7)">
        <path id="Path_294" data-name="Path 294" d="M1313.319,1365.533l-.446,1v-1Z" transform="translate(-1311.465 -1364.205)"/>
        <path id="Path_295" data-name="Path 295" d="M1315.652,1365.533l-2.769,6.194h-.011v-5.2l.446-1Z" transform="translate(-1311.465 -1364.205)"/>
        <path id="Path_296" data-name="Path 296" d="M1318,1365.533l-2.769,6.194h-2.334l2.769-6.194Z" transform="translate(-1311.475 -1364.205)"/>
        <path id="Path_297" data-name="Path 297" d="M1321.765,1367.346l-1.958,4.381h-2.334l2.769-6.193h1.523Z" transform="translate(-1313.72 -1364.205)"/>
        <path id="Path_298" data-name="Path 298" d="M1322.051,1373.471l1.958-4.38v4.38Z" transform="translate(-1315.965 -1365.949)"/>
        <path id="Path_299" data-name="Path 299" d="M1310.224,1362.928l-.113.254v-.254Z" transform="translate(-1310.111 -1362.928)"/>
        <path id="Path_300" data-name="Path 300" d="M1312.558,1362.928l-2.447,5.474v-5.22l.113-.254Z" transform="translate(-1310.111 -1362.928)"/>
        <path id="Path_301" data-name="Path 301" d="M1314.891,1362.928l-4.781,10.695V1368.4l2.447-5.474Z" transform="translate(-1310.111 -1362.928)"/>
        <path id="Path_302" data-name="Path 302" d="M1317.225,1362.928l-6.293,14.078h-.821v-3.383l4.781-10.695Z" transform="translate(-1310.111 -1362.928)"/>
        <path id="Path_303" data-name="Path 303" d="M1319.543,1362.928l.672.3-6.159,13.778h-2.333l6.293-14.078Z" transform="translate(-1310.901 -1362.928)"/>
        <path id="Path_304" data-name="Path 304" d="M1322.46,1363.518l.138.062v4.851l-3.963,8.865H1316.3Z" transform="translate(-1313.146 -1363.217)"/>
        <path id="Path_305" data-name="Path 305" d="M1324.843,1378.375l-1.629,3.644h-2.334l3.963-8.865Z" transform="translate(-1315.391 -1367.942)"/>
        <path id="Path_306" data-name="Path 306" d="M1325.459,1387.042l1.629-3.644v3.644Z" transform="translate(-1317.636 -1372.964)"/>
      </g>
    </g>
  </g>
</svg>
