<svg id="proyectos" xmlns="http://www.w3.org/2000/svg" width="88.308" height="105.763" viewBox="0 0 88.308 105.763">
  <rect id="Rectangle_148" data-name="Rectangle 148" width="0.681" height="4.643" transform="translate(7.33 100.64)" fill="#fff"/>
  <path id="Path_114" data-name="Path 114" d="M1050.838,1747.019h.642l2.037,3.3h.012v-3.3h.681v4.643h-.646l-2.032-3.3h-.013v3.3h-.681Z" transform="translate(-1039.217 -1646.379)" fill="#fff"/>
  <path id="Path_115" data-name="Path 115" d="M1059.562,1747.019h.641l1.29,3.026,1.265-3.026h.643v4.643h-.679v-2.9h-.016l-.942,2.23h-.567l-.942-2.23h-.012v2.9h-.681Z" transform="translate(-1040.87 -1646.379)" fill="#fff"/>
  <path id="Path_116" data-name="Path 116" d="M1068.688,1749.331a8.233,8.233,0,0,1,.046-1.085,1.331,1.331,0,0,1,.152-.443,1.588,1.588,0,0,1,.524-.572,1.525,1.525,0,0,1,.886-.259,1.537,1.537,0,0,1,1.405.835,1.07,1.07,0,0,1,.157.443,14.975,14.975,0,0,1,0,2.158,1.09,1.09,0,0,1-.157.449,1.505,1.505,0,0,1-.511.567,1.574,1.574,0,0,1-.894.267,1.611,1.611,0,0,1-1.41-.834c-.033-.071-.062-.137-.088-.2a1.336,1.336,0,0,1-.063-.248,8.2,8.2,0,0,1-.046-1.076m.682,0a5.7,5.7,0,0,0,.049.929.786.786,0,0,0,.176.393.821.821,0,0,0,.284.232.781.781,0,0,0,.414.106.823.823,0,0,0,.425-.106.78.78,0,0,0,.271-.232.827.827,0,0,0,.182-.393,5.979,5.979,0,0,0,.047-.929,6.128,6.128,0,0,0-.047-.935.973.973,0,0,0-.452-.625.962.962,0,0,0-.425-.1.911.911,0,0,0-.414.1.872.872,0,0,0-.284.239.781.781,0,0,0-.176.386,5.845,5.845,0,0,0-.049.935" transform="translate(-1042.599 -1646.37)" fill="#fff"/>
  <path id="Path_117" data-name="Path 117" d="M1077,1747.02h1.743a1.357,1.357,0,0,1,1,.343,1.225,1.225,0,0,1,.336.9,1.086,1.086,0,0,1-.132.546.874.874,0,0,1-.2.236,1.5,1.5,0,0,1-.328.214v.013a.908.908,0,0,1,.558.4,1.332,1.332,0,0,1,.177.671,1.3,1.3,0,0,1-.365.953,1.185,1.185,0,0,1-.886.367H1077Zm.681.623v1.335h.984a.692.692,0,0,0,.55-.2.641.641,0,0,0,.179-.466.677.677,0,0,0-.179-.477.751.751,0,0,0-.55-.189Zm0,1.958v1.4h1.051a.67.67,0,0,0,.732-.7.661.661,0,0,0-.732-.7Z" transform="translate(-1044.174 -1646.379)" fill="#fff"/>
  <rect id="Rectangle_149" data-name="Rectangle 149" width="0.681" height="4.643" transform="translate(39.415 100.64)" fill="#fff"/>
  <path id="Path_118" data-name="Path 118" d="M1090.421,1747.019h.681V1751h2.192v.662h-2.872Z" transform="translate(-1046.716 -1646.379)" fill="#fff"/>
  <rect id="Rectangle_150" data-name="Rectangle 150" width="0.681" height="4.643" transform="translate(49.941 100.64)" fill="#fff"/>
  <path id="Path_119" data-name="Path 119" d="M1105.6,1750.623H1103.9l-.346,1.039h-.721l1.635-4.643h.571l1.635,4.643h-.719Zm-.195-.623-.65-2.03h-.013l-.651,2.03Z" transform="translate(-1049.067 -1646.378)" fill="#fff"/>
  <path id="Path_120" data-name="Path 120" d="M1111.533,1747.019h1.757a1.353,1.353,0,0,1,.917.306,1.25,1.25,0,0,1,.447.99,1.292,1.292,0,0,1-.868,1.287l1.041,2.06h-.81l-.931-1.984h-.872v1.984h-.681Zm.681,2.035h1.033a.714.714,0,0,0,.763-.741.629.629,0,0,0-.224-.527.769.769,0,0,0-.5-.143h-1.07Z" transform="translate(-1050.716 -1646.378)" fill="#fff"/>
  <rect id="Rectangle_151" data-name="Rectangle 151" width="0.681" height="4.643" transform="translate(67.405 100.64)" fill="#fff"/>
  <path id="Path_121" data-name="Path 121" d="M1124.763,1749.331a8.058,8.058,0,0,1,.046-1.085,1.314,1.314,0,0,1,.152-.443,1.583,1.583,0,0,1,.524-.572,1.523,1.523,0,0,1,.884-.259,1.54,1.54,0,0,1,1.407.835,1.072,1.072,0,0,1,.157.443,14.654,14.654,0,0,1,0,2.158,1.092,1.092,0,0,1-.157.449,1.506,1.506,0,0,1-.512.567,1.572,1.572,0,0,1-.895.267,1.611,1.611,0,0,1-1.408-.834c-.033-.071-.062-.137-.09-.2a1.338,1.338,0,0,1-.062-.248,8.028,8.028,0,0,1-.046-1.076m.681,0a5.573,5.573,0,0,0,.05.929.777.777,0,0,0,.175.393.819.819,0,0,0,.284.232.779.779,0,0,0,.414.106.823.823,0,0,0,.424-.106.772.772,0,0,0,.271-.232.831.831,0,0,0,.183-.393,6.165,6.165,0,0,0,.045-.929,6.318,6.318,0,0,0-.045-.935.982.982,0,0,0-.454-.625.962.962,0,0,0-.424-.1.909.909,0,0,0-.414.1.87.87,0,0,0-.284.239.772.772,0,0,0-.175.386,5.712,5.712,0,0,0-.05.935" transform="translate(-1053.222 -1646.37)" fill="#fff"/>
  <path id="Path_122" data-name="Path 122" d="M1133.043,1750.528a1.943,1.943,0,0,0,1.277.463q.877-.015.889-.647.007-.52-.586-.626c-.181-.024-.38-.054-.6-.086a1.45,1.45,0,0,1-.882-.442,1.26,1.26,0,0,1-.312-.862,1.294,1.294,0,0,1,.391-.981,1.5,1.5,0,0,1,1.076-.376,2.478,2.478,0,0,1,1.458.48l-.38.578a2.022,2.022,0,0,0-1.114-.358.833.833,0,0,0-.525.163.614.614,0,0,0-.225.5.523.523,0,0,0,.151.363.844.844,0,0,0,.484.229q.186.032.506.074a1.383,1.383,0,0,1,.935.469,1.345,1.345,0,0,1,.3.866q-.034,1.333-1.577,1.352a2.51,2.51,0,0,1-1.717-.634Z" transform="translate(-1054.706 -1646.37)" fill="#fff"/>
  <path id="Path_123" data-name="Path 123" d="M1045.441,1730.453h4.092a6.351,6.351,0,0,1,1.287.129,3.416,3.416,0,0,1,1.255.687,2.786,2.786,0,0,1,.867,1.119,3.712,3.712,0,0,1,.348,1.663,3.605,3.605,0,0,1-.884,2.359,3.3,3.3,0,0,1-2.652,1.151h-2.6v4.55h-1.709Zm1.709,5.446h2.538a1.778,1.778,0,0,0,1.435-.61,2.019,2.019,0,0,0,.458-1.285,2.343,2.343,0,0,0-.186-.987,1.443,1.443,0,0,0-.544-.57,2.086,2.086,0,0,0-1.226-.331h-2.475Z" transform="translate(-1038.195 -1643.24)" fill="#fff"/>
  <path id="Path_124" data-name="Path 124" d="M1056.406,1730.454h4.412a3.4,3.4,0,0,1,2.3.768,3.146,3.146,0,0,1,1.12,2.486,3.241,3.241,0,0,1-2.181,3.23l2.613,5.172h-2.031l-2.336-4.982h-2.189v4.982h-1.709Zm1.709,5.109h2.593a1.8,1.8,0,0,0,1.917-1.859,1.566,1.566,0,0,0-.567-1.322,1.916,1.916,0,0,0-1.258-.362h-2.686Z" transform="translate(-1040.272 -1643.24)" fill="#fff"/>
  <path id="Path_125" data-name="Path 125" d="M1067.242,1736.259a20.066,20.066,0,0,1,.117-2.724,3.245,3.245,0,0,1,.379-1.114,3.961,3.961,0,0,1,1.315-1.434,3.8,3.8,0,0,1,2.222-.653,3.878,3.878,0,0,1,3.53,2.094,2.743,2.743,0,0,1,.394,1.112,36.3,36.3,0,0,1,0,5.42,2.765,2.765,0,0,1-.394,1.127,3.762,3.762,0,0,1-1.286,1.423,3.924,3.924,0,0,1-2.244.671,4.054,4.054,0,0,1-3.536-2.094c-.083-.177-.159-.344-.225-.5a3.345,3.345,0,0,1-.154-.623,20.043,20.043,0,0,1-.117-2.7m1.709,0a13.986,13.986,0,0,0,.124,2.332,1.982,1.982,0,0,0,.442.985,2.023,2.023,0,0,0,.714.585,1.962,1.962,0,0,0,1.039.263,2.062,2.062,0,0,0,1.063-.263,1.917,1.917,0,0,0,.682-.585,2.077,2.077,0,0,0,.458-.985,14.959,14.959,0,0,0,.117-2.332,15.317,15.317,0,0,0-.117-2.348,2.072,2.072,0,0,0-.458-.969,2.05,2.05,0,0,0-.682-.6,2.437,2.437,0,0,0-1.063-.25,2.315,2.315,0,0,0-1.039.25,2.162,2.162,0,0,0-.714.6,1.974,1.974,0,0,0-.442.969,14.32,14.32,0,0,0-.124,2.348" transform="translate(-1042.325 -1643.218)" fill="#fff"/>
  <path id="Path_126" data-name="Path 126" d="M1080.055,1737.315l-3.4-6.861h1.812l2.394,5.172,2.394-5.172h1.812l-3.4,6.86v4.8h-1.613Z" transform="translate(-1044.109 -1643.24)" fill="#fff"/>
  <path id="Path_127" data-name="Path 127" d="M1087.513,1730.453h7.213v1.663h-5.5v3.336h4.7v1.565h-4.7v3.431h5.5v1.662h-7.213Z" transform="translate(-1046.165 -1643.24)" fill="#fff"/>
  <path id="Path_128" data-name="Path 128" d="M1105.264,1738.831a4.4,4.4,0,0,1-1.418,2.49,3.952,3.952,0,0,1-2.548.862,4.063,4.063,0,0,1-3.537-2.094c-.083-.176-.158-.344-.225-.5a3.332,3.332,0,0,1-.155-.622,20.237,20.237,0,0,1-.116-2.7,19.966,19.966,0,0,1,.117-2.719,3.262,3.262,0,0,1,.378-1.111,3.966,3.966,0,0,1,1.317-1.44,3.794,3.794,0,0,1,2.222-.656,3.755,3.755,0,0,1,2.663,1,4.424,4.424,0,0,1,1.3,2.45h-1.815a2.577,2.577,0,0,0-.76-1.2,2.188,2.188,0,0,0-1.4-.49,2.313,2.313,0,0,0-1.041.248,2.2,2.2,0,0,0-.713.6,1.971,1.971,0,0,0-.442.97,14.425,14.425,0,0,0-.123,2.348,14.089,14.089,0,0,0,.123,2.331,1.967,1.967,0,0,0,.443.986,2.029,2.029,0,0,0,.713.584,1.956,1.956,0,0,0,1.039.265,2.3,2.3,0,0,0,2.158-1.6Z" transform="translate(-1048.013 -1643.218)" fill="#fff"/>
  <path id="Path_129" data-name="Path 129" d="M1109.607,1732.02h-3.1v-1.566h7.9v1.566h-3.1v10.09h-1.709Z" transform="translate(-1049.764 -1643.24)" fill="#fff"/>
  <path id="Path_130" data-name="Path 130" d="M1116.214,1736.259a20.234,20.234,0,0,1,.116-2.724,3.273,3.273,0,0,1,.38-1.114,3.954,3.954,0,0,1,1.315-1.434,3.79,3.79,0,0,1,2.221-.653,3.877,3.877,0,0,1,3.53,2.094,2.739,2.739,0,0,1,.394,1.112,36.3,36.3,0,0,1,0,5.42,2.761,2.761,0,0,1-.394,1.127,3.763,3.763,0,0,1-1.285,1.423,3.927,3.927,0,0,1-2.245.671,4.057,4.057,0,0,1-3.536-2.094c-.083-.177-.157-.344-.225-.5a3.419,3.419,0,0,1-.155-.623,20.211,20.211,0,0,1-.116-2.7m1.709,0a14.115,14.115,0,0,0,.124,2.332,1.981,1.981,0,0,0,.442.985,2.035,2.035,0,0,0,.713.585,1.97,1.97,0,0,0,1.04.263,2.062,2.062,0,0,0,1.063-.263,1.927,1.927,0,0,0,.683-.585,2.091,2.091,0,0,0,.458-.985,15.084,15.084,0,0,0,.116-2.332,15.445,15.445,0,0,0-.116-2.348,2.086,2.086,0,0,0-.458-.969,2.06,2.06,0,0,0-.683-.6,2.437,2.437,0,0,0-1.063-.25,2.324,2.324,0,0,0-1.04.25,2.176,2.176,0,0,0-.713.6,1.973,1.973,0,0,0-.442.969,14.453,14.453,0,0,0-.124,2.348" transform="translate(-1051.602 -1643.218)" fill="#fff"/>
  <path id="Path_131" data-name="Path 131" d="M1127.908,1739.265a4.86,4.86,0,0,0,3.208,1.161q2.2-.032,2.232-1.624.017-1.3-1.472-1.568-.681-.1-1.495-.216a3.652,3.652,0,0,1-2.215-1.112,3.156,3.156,0,0,1-.782-2.16,3.253,3.253,0,0,1,.982-2.466,3.757,3.757,0,0,1,2.7-.943,6.218,6.218,0,0,1,3.661,1.2l-.953,1.453a5.059,5.059,0,0,0-2.8-.9,2.094,2.094,0,0,0-1.318.409,1.539,1.539,0,0,0-.565,1.265,1.3,1.3,0,0,0,.379.911,2.142,2.142,0,0,0,1.216.576q.465.081,1.271.184a3.478,3.478,0,0,1,2.347,1.177,3.381,3.381,0,0,1,.751,2.176q-.086,3.344-3.962,3.392a6.3,6.3,0,0,1-4.31-1.59Z" transform="translate(-1053.605 -1643.218)" fill="#fff"/>
  <path id="Path_132" data-name="Path 132" d="M1124.809,1728.62h-3.26v-102.5h-81.787v102.5H1036.5V1622.857h88.308Z" transform="translate(-1036.501 -1622.857)" fill="#fff"/>
  <path id="Path_133" data-name="Path 133" d="M1116.187,1651.639l8.276-18.328h3.946l-8.364,18.328h6.469v-7.364h3.538v7.364h1.987v3.433h-1.987v3.808h-3.538v-3.8l-10.326,0Z" transform="translate(-1051.597 -1624.837)" fill="#fff"/>
  <path id="Path_134" data-name="Path 134" d="M1110.715,1645.437v-.669h-8.8v3.645h5.053v1.336a5.475,5.475,0,0,1-1.463,3.888,4.724,4.724,0,0,1-3.624,1.547,4.294,4.294,0,0,1-2.28-.58,4.4,4.4,0,0,1-1.564-1.283,4.32,4.32,0,0,1-.971-2.161,30.967,30.967,0,0,1-.271-5.114,31.67,31.67,0,0,1,.271-5.148,4.289,4.289,0,0,1,.97-2.127,4.786,4.786,0,0,1,1.563-1.319,5.071,5.071,0,0,1,2.279-.545,4.8,4.8,0,0,1,3.059,1.075,5.673,5.673,0,0,1,1.667,2.644h3.977a9.738,9.738,0,0,0-2.851-5.383,8.922,8.922,0,0,0-10.714-.754,8.729,8.729,0,0,0-2.886,3.156,7.224,7.224,0,0,0-.832,2.438,69.549,69.549,0,0,0,0,11.889,7.469,7.469,0,0,0,.34,1.368q.22.525.492,1.1a8.907,8.907,0,0,0,7.759,4.595,8.751,8.751,0,0,0,5.138-1.656v1.435h3.716v-13.383Z" transform="translate(-1047.213 -1624.788)" fill="#fff"/>
</svg>
