<svg xmlns="http://www.w3.org/2000/svg" width="72.638" height="50.126" viewBox="0 0 72.638 50.126">
  <g id="public" transform="translate(-775.676 -416.923)">
    <path id="Path_2935" data-name="Path 2935" d="M880.213,523.973c-9.522,0-18.784,9.125-18.784,16.578,0,13.495,9.261,10.411,18.784,10.411S899,554.046,899,540.551C899,533.1,889.735,523.973,880.213,523.973Z" transform="translate(-68.218 -85.41)" fill="none" stroke="#737373" strokeMiterlimit="10" strokeWidth="2.5"/>
    <circle id="Ellipse_78" data-name="Ellipse 78" cx="10.025" cy="10.025" r="10.025" transform="translate(801.97 418.173)" fill="none" stroke="#737373" strokeMiterlimit="10" strokeWidth="2.5"/>
    <path id="Path_2936" data-name="Path 2936" d="M1028.448,529.621c1.419-.048,2.942-.174,4.476-.174,6.047,0,11.929,1.958,11.929-6.612,0-4.733-5.881-10.528-11.929-10.528-4.6,0-9.1,3.348-10.992,7.032" transform="translate(-197.788 -75.993)" fill="none" stroke="#737373" strokeMiterlimit="10" strokeWidth="2.5"/>
    <circle id="Ellipse_79" data-name="Ellipse 79" cx="6.366" cy="6.366" r="6.366" transform="translate(828.769 423.442)" fill="none" stroke="#737373" strokeMiterlimit="10" strokeWidth="2.5"/>
    <path id="Path_2937" data-name="Path 2937" d="M799.846,519.339c-1.9-3.684-6.4-7.032-10.991-7.032-6.047,0-11.929,5.8-11.929,10.528,0,8.57,5.881,6.612,11.929,6.612,1.512,0,3.013.122,4.415.172" transform="translate(0 -75.993)" fill="none" stroke="#737373" strokeMiterlimit="10" strokeWidth="2.5"/>
    <circle id="Ellipse_80" data-name="Ellipse 80" cx="6.366" cy="6.366" r="6.366" transform="translate(782.488 423.442)" fill="none" stroke="#737373" strokeMiterlimit="10" strokeWidth="2.5"/>
  </g>
</svg>
