<svg xmlns="http://www.w3.org/2000/svg" width="27.955" height="46.604" viewBox="0 0 27.955 46.604">
  <g id="service-icon" transform="translate(0 0.001)">
    <path id="Path_3763" data-name="Path 3763" d="M59.034,8462.254a1.165,1.165,0,0,1-.534-1.116c.01-2.2,0-4.4.013-6.6a.647.647,0,0,0-.433-.679,12.984,12.984,0,0,1-7.213-9.979c-.094-.585-.1-1.175-.147-1.771-.749-.332-.9-.723-.642-1.693a3.883,3.883,0,0,1,3.838-3.011c.212-.008.424,0,.674,0v-1.556c-.218,0-.44.006-.661,0a2.315,2.315,0,0,1-2.391-2.239c-.02-.2-.02-.395-.02-.593q0-6.163,0-12.332a.667.667,0,0,0-.384-.714,2.264,2.264,0,0,1-1.1-2.519,2.341,2.341,0,0,1,2.017-1.775,3.9,3.9,0,0,1,.5-.021q11.425,0,22.847,0a2.3,2.3,0,0,1,2.512,2.2,2.152,2.152,0,0,1-1.147,2.112.653.653,0,0,0-.388.666q.015,6.237,0,12.471a3.765,3.765,0,0,1-.209,1.334,2.225,2.225,0,0,1-2.1,1.4c-.241.017-.482,0-.759,0v1.473a14.677,14.677,0,0,1,1.971.312,3.808,3.808,0,0,1,2.645,3.6.77.77,0,0,1-.645.823c-.2,1.173-.293,2.326-.59,3.424a12.733,12.733,0,0,1-6.744,8.319.84.84,0,0,0-.56.882c.033,2.152.007,4.309.02,6.464a1.165,1.165,0,0,1-.534,1.116Zm15.784-41.925H53.075v12.792c0,.954.228,1.178,1.186,1.178H73.638c.955,0,1.179-.224,1.179-1.18v-12.79Zm-22.541,21.745a11.668,11.668,0,0,0,18.869,9.127,11.36,11.36,0,0,0,4.46-9.127Zm15.524,18.61v-6a13.518,13.518,0,0,1-7.708,0v5.994Zm-3.88-41.935H75.2a2.642,2.642,0,0,0,.5-.017.759.759,0,0,0,.094-1.484,2.185,2.185,0,0,0-.5-.046H52.6a1.76,1.76,0,0,0-.453.032.76.76,0,0,0,.081,1.5,3.9,3.9,0,0,0,.453.013Zm-12.2,21.725h24.47c-.013-.062-.016-.1-.029-.151a1.141,1.141,0,0,0-.075-.156,2.386,2.386,0,0,0-2.235-1.216q-9.9,0-19.795,0c-.121,0-.241,0-.365,0a2.211,2.211,0,0,0-1.971,1.519m19.967-4.6H56.222v1.493H71.684Z" transform="translate(-49.961 -8415.649)" fill="#737373"/>
    <path id="Path_3764" data-name="Path 3764" d="M54.961,8419.4c-.055,0-.111,0-.163,0a.771.771,0,0,0-.867.389,1.257,1.257,0,0,1-1.574.4,1.364,1.364,0,0,1,.27-2.593,1.354,1.354,0,0,1,1.463.691.3.3,0,0,0,.323.2c.381-.016.766-.006,1.147,0,.329,0,.518.17.521.447s-.189.447-.508.462c-.205.009-.41,0-.612,0m-1.613-.458a.451.451,0,0,0-.433-.452.458.458,0,0,0-.466.452.48.48,0,0,0,.437.451.462.462,0,0,0,.463-.451" transform="translate(-46.423 -8411.329)" fill="#737373"/>
  </g>
</svg>
