<svg xmlns="http://www.w3.org/2000/svg" width="124.806" height="33.519" viewBox="0 0 124.806 33.519">
  <g id="Steii_-_Logo" data-name="Steii - Logo" transform="translate(-338.183 -426.192)">
    <path id="Trazado_2061" data-name="Trazado 2061" d="M357.511,445.059a8.16,8.16,0,0,1,1.713,5.307,8.823,8.823,0,0,1-2.687,6.651,10.013,10.013,0,0,1-7.188,2.519,13.017,13.017,0,0,1-5.207-1.041,10.378,10.378,0,0,1-2.351-1.325,9.479,9.479,0,0,1-1.629-1.51,11.261,11.261,0,0,1-.974-1.377,6.67,6.67,0,0,1-.521-1.025l-.134-.4,3.93.134c.022.134.062.314.117.538a11.228,11.228,0,0,0,.453,1.243,8.139,8.139,0,0,0,.907,1.663,6.72,6.72,0,0,0,1.6,1.51,7.259,7.259,0,0,0,10.9-8.5,7.156,7.156,0,0,0-2.15-2.939l-.772-.5-.034-.034a7.362,7.362,0,0,0-1.646-.706.5.5,0,0,1-.2-.067.525.525,0,0,0-.2-.067l-4.669-1.344a10.254,10.254,0,0,1-5.374-3.09,7.916,7.916,0,0,1-1.713-5.307,8.189,8.189,0,0,1,2.687-6.449,9.985,9.985,0,0,1,6.886-2.385,17.817,17.817,0,0,1,4.115.437,9.389,9.389,0,0,1,2.805,1.059,10.1,10.1,0,0,1,1.612,1.243,3.977,3.977,0,0,1,.84,1.058l.2.437h-4.065l-.185-.453a7.1,7.1,0,0,0-.621-1.025,5.921,5.921,0,0,0-1.141-1.259A5.676,5.676,0,0,0,351,427.14a6.2,6.2,0,0,0-2.553-.253,7.121,7.121,0,0,0-3.93,1.629,6.564,6.564,0,0,0-2.284,3.545,6.79,6.79,0,0,0,.034,3.73,6.652,6.652,0,0,0,1.88,3.023,7.571,7.571,0,0,0,.773.638,2.464,2.464,0,0,1,.218.134,2.2,2.2,0,0,0,.218.134,1.572,1.572,0,0,0,.437.235,2.182,2.182,0,0,0,.336.168c.156.067.268.112.336.134q.806.3,1.411.47l4.6,1.31A9.717,9.717,0,0,1,357.511,445.059Z" transform="translate(0 -0.075)" fill="#fff" stroke="#fff" strokeWidth="0.5"/>
    <path id="Trazado_2062" data-name="Trazado 2062" d="M440.258,426.442h26.133v.37H455.239v32.649H451.41V426.811H440.258Z" transform="translate(-70.368 0)" fill="#fff" stroke="#fff" strokeWidth="0.5"/>
    <path id="Trazado_2063" data-name="Trazado 2063" d="M568.188,426.954v15.821h11.757v.4H568.188v15.955H582.9v.4H564.628V426.551H582.9v.4Z" transform="translate(-156.401 -0.075)" fill="#fff" stroke="#fff" strokeWidth="0.5"/>
    <path id="Trazado_2064" data-name="Trazado 2064" d="M668.971,426.551l0,10.1c0,2.713-.693,5.331-2.987,6.124v16.761h3.8V426.551Z" transform="translate(-226.512 -0.075)" fill="#fff" stroke="#fff" strokeWidth="0.5"/>
    <path id="Trazado_2065" data-name="Trazado 2065" d="M729.963,426.551l0,2.085c0,2.713.694,5.331,2.987,6.124v24.776h-3.8V426.551Z" transform="translate(-270.213 -0.075)" fill="#fff" stroke="#fff" strokeWidth="0.5"/>
  </g>
</svg>
