<svg xmlns="http://www.w3.org/2000/svg" width="168.116" height="44.692" viewBox="0 0 168.116 44.692">
  <g id="steii-logo" transform="translate(-338.533 -426.442)">
    <path id="Trazado_2061" data-name="Trazado 2061" d="M364.22,451.6a11.044,11.044,0,0,1,2.319,7.183,11.943,11.943,0,0,1-3.637,9q-3.592,3.41-9.729,3.41a17.619,17.619,0,0,1-7.047-1.409,14.046,14.046,0,0,1-3.182-1.794,12.828,12.828,0,0,1-2.206-2.044,15.238,15.238,0,0,1-1.318-1.864,9.03,9.03,0,0,1-.7-1.387l-.182-.546,5.319.182c.03.182.083.425.159.728a15.2,15.2,0,0,0,.614,1.682,11.019,11.019,0,0,0,1.228,2.25,9.1,9.1,0,0,0,2.159,2.044,9.825,9.825,0,0,0,14.754-11.5,9.686,9.686,0,0,0-2.91-3.979l-1.046-.682-.046-.045a9.964,9.964,0,0,0-2.228-.955.673.673,0,0,1-.273-.091.71.71,0,0,0-.273-.091l-6.32-1.819q-4.956-1.364-7.274-4.183a10.714,10.714,0,0,1-2.318-7.183,11.084,11.084,0,0,1,3.637-8.729,13.515,13.515,0,0,1,9.32-3.228,24.116,24.116,0,0,1,5.569.591,12.71,12.71,0,0,1,3.8,1.433,13.681,13.681,0,0,1,2.183,1.682,5.383,5.383,0,0,1,1.137,1.432l.273.591h-5.5q-.093-.227-.25-.613a9.607,9.607,0,0,0-.841-1.387,8.013,8.013,0,0,0-1.544-1.7,7.684,7.684,0,0,0-2.455-1.227,8.388,8.388,0,0,0-3.456-.342,9.638,9.638,0,0,0-5.319,2.205,8.884,8.884,0,0,0-3.092,4.8,9.19,9.19,0,0,0,.045,5.048,9,9,0,0,0,2.545,4.092,10.249,10.249,0,0,0,1.046.864,3.364,3.364,0,0,1,.295.182,2.977,2.977,0,0,0,.3.182,2.13,2.13,0,0,0,.591.318,2.953,2.953,0,0,0,.455.227c.211.091.363.152.454.182q1.092.409,1.91.637l6.229,1.773A13.152,13.152,0,0,1,364.22,451.6Z" transform="translate(0 -0.063)"/>
    <path id="Trazado_2062" data-name="Trazado 2062" d="M440.258,426.442H475.63v.5H460.535v44.191h-5.183V426.942H440.258Z" transform="translate(-59.283 0)"/>
    <path id="Trazado_2063" data-name="Trazado 2063" d="M569.447,427.1V448.51H585.36v.545H569.447v21.6h19.914v.545H564.628V426.551h24.733v.545Z" transform="translate(-131.762 -0.063)"/>
    <path id="Trazado_2064" data-name="Trazado 2064" d="M670.028,426.551l0,13.67c0,3.672-.938,7.216-4.042,8.289V471.2h5.137V426.551Z" transform="translate(-190.829 -0.063)"/>
    <path id="Trazado_2065" data-name="Trazado 2065" d="M730.248,426.551l0,2.822c0,3.672.939,7.216,4.043,8.289V471.2h-5.137V426.551Z" transform="translate(-227.645 -0.063)"/>
  </g>
</svg>
