<svg xmlns="http://www.w3.org/2000/svg" width="410.153" height="55.957" viewBox="0 0 410.153 55.957">
  <g id="theNewWorkTimes" transform="translate(-0.001)">
    <path id="Path_1432" data-name="Path 1432" d="M1089.24,1520.659a7.686,7.686,0,0,0-5.37,3.142,5.1,5.1,0,0,0,.573,6.842c.454.462.929.9,1.387,1.361a4.916,4.916,0,0,1,1.518,3.7c-.044,4.021-.033,8.042,0,12.063a1.639,1.639,0,0,1-.79,1.6c-.563.356-1.061.813-1.588,1.226l.236.316,2.354-1.725,5.894,4.79c1.729-1.2,3.4-2.329,5.046-3.506a.953.953,0,0,1,1.273-.045c1.619,1.072,3.289,2.065,4.909,3.134a1.083,1.083,0,0,0,1.358.046q5.364-3.244,10.777-6.408a1.208,1.208,0,0,0,.688-1.21c-.024-4.7-.006-9.391-.025-14.088a1.275,1.275,0,0,1,.6-1.209c.712-.48,1.374-1.033,2.162-1.635-1.088-.446-1.384.746-2.169.818l-4.28-3.624-5.117,4.575c.476.45.875.89,1.337,1.246a1.945,1.945,0,0,1,.763,1.738c-.033,5.046-.018,10.093-.018,15.14v1.078c-.346-.208-.551-.317-.742-.447-1.314-.9-2.611-1.821-3.943-2.692a1.226,1.226,0,0,1-.623-1.178c.024-3.859.058-7.719-.014-11.577-.022-1.187.164-2.1,1.333-2.6a2.549,2.549,0,0,0,.511-.423l-5.3-4.969-5,4.576c.548.523.994.994,1.49,1.407a1.548,1.548,0,0,1,.572,1.33c-.021,5.074-.01,10.148-.017,15.222a9.288,9.288,0,0,1-.134,1.053c-.361-.243-.582-.381-.792-.534-1.243-.906-2.469-1.835-3.731-2.712a1.281,1.281,0,0,1-.6-1.2c.021-4.237-.013-8.475.022-12.711a5.342,5.342,0,0,0-2.708-4.991,22.734,22.734,0,0,1-2.075-1.4c-2.045-1.563-1.935-4.257.126-5.3C1089.168,1520.851,1089.179,1520.779,1089.24,1520.659Z" transform="translate(-948.326 -1510.931)" fill="#696969"/>
    <path id="Path_1433" data-name="Path 1433" d="M938.7,1530.316c-.593-.491-1.107-.926-1.632-1.348a9.932,9.932,0,0,0-4.714-2.187c-.68-.107-.788-.384-.786-.993.02-7.124.012-14.247.014-21.371,0-.227.021-.453.042-.869.265.431.436.693.592.964q8.84,15.394,17.669,30.794c.326.571.656.881,1.4.531V1503.61c5.431-1.17,8.394-5.476,6.257-9.184-.631,1.73-1.555,3.009-3.584,3.011a6.782,6.782,0,0,1-4.541-2.021L942.775,1503l.258.254,1.849-2.025a21.937,21.937,0,0,0,2.8,1.667,21.572,21.572,0,0,0,3.133.814v19.124c-.276-.459-.44-.722-.594-.991q-6.229-10.878-12.467-21.751a19.733,19.733,0,0,0-1.969-2.857,5.633,5.633,0,0,0-7.2-1.485c-2.7,1.455-3.655,5.467-3.088,7.645.2-.467.357-.887.555-1.288.623-1.264,1.566-1.83,2.606-1.585a3.581,3.581,0,0,1,2.491,2.859q.007,3.076,0,6.153c0,.258-.027.515-.04.757-4.7.486-6.708,2.254-6.472,5.633.155,2.214,2.012,4.443,3.749,4.277l-.2-.268a1.849,1.849,0,0,1,1.139-3.173,6.868,6.868,0,0,1,1.2-.092c.477-.017.639.218.636.7-.019,2.941-.01,5.883-.015,8.824a2.534,2.534,0,0,1-.078.421c-.376.032-.722.058-1.067.093a10.031,10.031,0,0,0-4.277,1.366,6.864,6.864,0,0,0-3.166,7.383c.51,2.481,2.695,4.308,5.646,4.7.6.08,1.213.094,1.82.139-.7-.4-1.439-.6-2.088-.949a2.969,2.969,0,0,1-1.417-3.4,2.879,2.879,0,0,1,2.673-2.308,4.324,4.324,0,0,1,3.255.935c.583.458,1.121.973,1.677,1.46,2.529-2.476,6.43-7.044,6.418-7.722Z" transform="translate(-839.07 -1493.065)" fill="#696969"/>
    <path id="Path_1434" data-name="Path 1434" d="M1714.724,1542.224c1.07.913,2.139,1.861,3.25,2.757a1.408,1.408,0,0,1,.552,1.243c-.019,3.481-.083,6.964.022,10.441.051,1.705-.124,3.192-1.615,4.251-.041.028-.057.09-.13.211l5.3,4.431,5-4.568c-.476-.455-.873-.9-1.335-1.26a1.957,1.957,0,0,1-.761-1.74c.035-4.506.065-9.013-.015-13.517a2.246,2.246,0,0,1,1.442-2.346c1.038.917,2.07,1.864,3.145,2.761a1.592,1.592,0,0,1,.63,1.376c-.031,3.534-.076,7.071.014,10.6.037,1.458-.13,2.71-1.376,3.622-.053.039-.061.139-.1.234l5.283,4.843c2.367-1.677,4.818-3.153,6.995-5.02a2.026,2.026,0,0,0-.99.463.737.737,0,0,1-1.215-.08c-.519-.583-1.144-1.07-1.667-1.649a1.5,1.5,0,0,1-.384-.9q-.036-7.285,0-14.571a1.5,1.5,0,0,1,.483-.917c.467-.453,1.011-.826,1.523-1.233l-.2-.3-1.968,1.355-5.436-4.879-6.236,4.8-5.47-4.8-6.123,4.8-4.16-4.8c-2.156,1.482-4.268,2.929-6.368,4.392-.112.078-.128.291-.189.442l.166.1,1.594-1.026c.676.77,1.365,1.492,1.973,2.275a2.037,2.037,0,0,1,.427,1.141c.031,3.859-.059,7.719.055,11.575.05,1.7-.185,3.126-1.672,4.131-.061.041-.093.128-.186.263l5.188,4.43,5.12-4.572a17.68,17.68,0,0,0-1.292-1.21,2.1,2.1,0,0,1-.807-1.882c.036-4.452.074-8.905-.019-13.355A2.12,2.12,0,0,1,1714.724,1542.224Z" transform="translate(-1370.462 -1522.627)" fill="#696969"/>
    <path id="Path_1435" data-name="Path 1435" d="M771.5,1541.334l.025.257c1.009-.05,2.023-.057,3.027-.158a9.129,9.129,0,0,0,8.355-6.468,20.657,20.657,0,0,0,.963-6.778c.011-4.48.047-8.961-.026-13.44a2.58,2.58,0,0,1,1.233-2.549,4.5,4.5,0,0,0,.711-.686l-.181-.2-1.852,1.375-5.461-4.9-6.5,4.948v-19.017l-8.651,5.943a3.038,3.038,0,0,1,2.151,3.252c-.012,8.582,0,17.165-.028,25.747a1.615,1.615,0,0,1-.527,1.051c-.747.669-1.57,1.252-2.363,1.869l.194.311,1.65-1.04c1.54,1.405,3.068,2.771,4.558,4.178.4.379.676.465,1.154.112.867-.639,1.8-1.2,2.7-1.788l3.667-2.412c-.119-.144-.224-.3-.242-.287-.606.317-1.2.65-1.951,1.062-.52-.564-1.057-1.208-1.661-1.782a1.852,1.852,0,0,1-.626-1.481c.026-4.453.084-8.908-.026-13.359a2.71,2.71,0,0,1,1.735-2.933c1.065.911,2.133,1.86,3.243,2.758a1.418,1.418,0,0,1,.556,1.245c-.018,4.319.024,8.637-.026,12.954a50.8,50.8,0,0,1-.358,5.483c-.382,3.169-1.925,5.508-5.084,6.562A2.941,2.941,0,0,0,771.5,1541.334Z" transform="translate(-730.088 -1492.582)" fill="#696969"/>
    <path id="Path_1436" data-name="Path 1436" d="M1466.711,1493.633l-8.718,5.991c1.984.62,2.193,2.1,2.191,3.724q-.017,12.541.009,25.082a1.439,1.439,0,0,1-.671,1.341c-.778.543-1.5,1.161-2.25,1.747l.144.229c.689-.011,1.041-.787,1.728-.915l5.066,4.624c2.243-1.47,4.43-2.9,6.607-4.342.115-.076.144-.284.212-.43-.161,0-.356-.053-.476.019-.481.287-.938.613-1.57,1.036a3.058,3.058,0,0,0-.538-.739,4.532,4.532,0,0,1-1.776-4.168c.086-10.706.043-21.414.043-32.121Z" transform="translate(-1203.354 -1492.525)" fill="#696969"/>
    <path id="Path_1437" data-name="Path 1437" d="M1408.452,1542.3l-4.163-4.48-6.882,4.7.2.351,1.9-1.117c.694.75,1.394,1.428,1.993,2.186a2.255,2.255,0,0,1,.484,1.275c.035,4.264-.012,8.529.046,12.792a2.2,2.2,0,0,1-1.09,2.195,18.723,18.723,0,0,0-1.839,1.435l.2.3a10.3,10.3,0,0,0,1.033-.69.7.7,0,0,1,1.1.03c.668.627,1.394,1.192,2.1,1.783l2.962,2.49,7.054-4.673-.167-.279-1.885,1.027c-.864-.8-1.733-1.563-2.549-2.382a1.325,1.325,0,0,1-.289-.86q-.025-7.448-.009-14.9a4.7,4.7,0,0,1,.066-.566c.789.6,1.481,1.2,2.252,1.683a3.1,3.1,0,0,0,3.166.153c1.831-.906,3.625-4.361,3.32-6.47a3.4,3.4,0,0,1-4.853-.4Z" transform="translate(-1162.582 -1522.621)" fill="#696969"/>
    <path id="Path_1438" data-name="Path 1438" d="M1503.941,1561.454c-.2-.279-.336-.475-.47-.674-3.586-5.321-7.159-10.65-10.771-15.952-.47-.689-.4-1.125.266-1.593,2.115,1.45,4.335,2.628,6.889,1.17,2.384-1.36,3.288-3.659,3.622-6.373-2.6,2.406-5.087,2.113-7.535-.146l-7.959,11.661,10.456,16c2.339-1.22,7.448-4.759,7.607-5.378Z" transform="translate(-1224.27 -1522.664)" fill="#696969"/>
    <path id="Path_1439" data-name="Path 1439" d="M1668.178,1565.6c3.088-1.73,6.784-4.338,6.86-4.96l-1.865,1.215c-.707-.731-1.419-1.431-2.078-2.176a1.3,1.3,0,0,1-.253-.8c-.014-4.992-.019-9.984.01-14.977a1.5,1.5,0,0,1,.466-.925,19.662,19.662,0,0,1,1.526-1.254l-.169-.273-1.886,1.209c-.689-.818-1.347-1.6-2.007-2.384s-1.322-1.561-1.976-2.334c-2.667,1.535-6.453,4.332-6.526,4.941l1.71-1.044c.531.657,1.009,1.307,1.55,1.9a2.483,2.483,0,0,1,.646,1.828q-.045,6.517,0,13.034a1.435,1.435,0,0,1-.661,1.348c-.779.541-1.5,1.16-2.25,1.746l.2.314,1.62-1.047Z" transform="translate(-1341.616 -1522.701)" fill="#696969"/>
    <path id="Path_1440" data-name="Path 1440" d="M1672.2,1511.579l4.788-4.032-4.139-4.677-4.786,4.032Z" transform="translate(-1346.916 -1498.816)" fill="#696969"/>
    <path id="Path_1441" data-name="Path 1441" d="M1227.913,1524.205a3.62,3.62,0,0,1-3.029-1.437,4.558,4.558,0,0,1,.529-6.228c1.091-1.04,2.238-1.508,4.706-1.92.03-.043.085-.087.085-.13,0-3.265.015-6.53-.015-9.794a4.693,4.693,0,0,0-.326-1.492,2.159,2.159,0,0,0-1.809-1.537,2.232,2.232,0,0,0-2.314,1,12.65,12.65,0,0,0-.756,1.493,6.012,6.012,0,0,1,2.115-4.738,6.685,6.685,0,0,1,6.66-1.372,5.346,5.346,0,0,1,3.684,5.421c.012,4.588,0,9.176,0,13.763,0,5.613.011,11.227-.016,16.84,0,.648.2.886.823.986,1.083.173,2.152.441,3.411.709v-37.934l.3-.007v5.3l7.073-5.733,5.132,4.464c.431-.383.827-.781,1.271-1.115.395-.3.654-.889,1.252-.813l.154.216c-.622.571-1.219,1.173-1.875,1.7a1.585,1.585,0,0,0-.611,1.391q.025,13.8,0,27.608a14.778,14.778,0,0,1-.2,2.654,4.623,4.623,0,0,1-4.281,3.977,14.9,14.9,0,0,1-5.368-.42c-2.783-.627-5.561-1.333-8.38-1.73a16.425,16.425,0,0,0-4.808.247,3.119,3.119,0,0,0-2.673,2.4c-.476,1.913.942,3.606,3.235,3.507a56.42,56.42,0,0,0,6.478-.854c2.738-.442,5.455-1.023,8.2-1.423a7.876,7.876,0,0,1,5.5,1.207,5.525,5.525,0,0,1,.66,8.832,7.56,7.56,0,0,1-4.172,1.8,2.882,2.882,0,0,0,1.582-2.909c-.038-1.106-.584-1.888-1.685-1.9a24.732,24.732,0,0,0-4.4.39c-2.787.479-5.542,1.152-8.333,1.595a12.076,12.076,0,0,1-5.692-.248,6.718,6.718,0,0,1-4.507-8.471,6.262,6.262,0,0,1,3.868-3.877,1.02,1.02,0,0,0,.754-1.118c-.027-4.291-.013-8.582-.016-12.873,0-.262-.027-.524-.051-.944-.8.112-1.544.162-2.26.333a1.432,1.432,0,0,0-1.173,1.2,1.5,1.5,0,0,0,.792,1.632C1227.537,1523.917,1227.634,1524,1227.913,1524.205Zm19.007,2.683h.057q0-2.428,0-4.855a1.814,1.814,0,0,0-1.47-2.073,2.926,2.926,0,0,0-3.03.55,1.743,1.743,0,0,0-.547,1.137c-.048,2.535-.025,5.071-.025,7.607,0,1.888-.014,3.777.017,5.664,0,.253.184.68.363.728a3.464,3.464,0,0,0,4.616-3.257C1247.006,1530.561,1246.92,1528.722,1246.92,1526.888Zm-3.336-24.6a5.931,5.931,0,0,1-.631.475,2.135,2.135,0,0,0-1.074,2.2c.069,2.988.025,5.979.025,8.968a1.779,1.779,0,0,0,1.41,2.033,2.979,2.979,0,0,0,3.227-.617,1.385,1.385,0,0,0,.416-.883q.046-4.4,0-8.807a1.232,1.232,0,0,0-.362-.82C1245.636,1503.978,1244.631,1503.166,1243.584,1502.288Zm3.356,13.387a3.569,3.569,0,0,1-4.973.025v4.662a3.611,3.611,0,0,1,4.973-.015Z" transform="translate(-1044.41 -1495.085)" fill="#696969"/>
    <path id="Path_1442" data-name="Path 1442" d="M1574.859,1501.095c-1.125,1-2.3,1.962-3.376,3.03a11.112,11.112,0,0,0-2.468,3.957l5.854-2.566,5.779-2.528c.028.328.065.553.065.778,0,4.83-.01,9.66.018,14.49a1.03,1.03,0,0,1-.71,1.084c-2.655,1.255-5.3,2.542-7.94,3.82-.26.126-.513.265-.98.508a23.134,23.134,0,0,0,2.645,2.009,12.751,12.751,0,0,0,11.519.6,1,1,0,0,0,.715-1.087c-.035-2.887-.027-5.775-.005-8.662a1.345,1.345,0,0,0-.527-1.175c-.979-.8-1.915-1.659-2.962-2.575.972-.818,1.89-1.632,2.854-2.388a1.518,1.518,0,0,0,.638-1.369c-.039-1.942-.03-3.886,0-5.828.007-.529-.152-.686-.691-.818-4.107-1-8.193-2.094-12.3-3.1a20.872,20.872,0,0,0-4.049-.688,2.85,2.85,0,0,0-3.044,3.535,7.606,7.606,0,0,0,.766,1.72,4.682,4.682,0,0,1-3.4-4.24,7.65,7.65,0,0,1,9.01-7.9c2.9.535,5.7,1.584,8.549,2.368,1.71.47,3.426.946,5.167,1.272a3.572,3.572,0,0,0,2.025-.322,1.97,1.97,0,0,0,.148-3.6,12.347,12.347,0,0,0-2.193-.776c-.177-.06-.357-.11-.773-.237a2.672,2.672,0,0,1,.631-.245,9.33,9.33,0,0,1,5.1,1.323c2.986,1.94,3.173,6.6.37,9.138a6.866,6.866,0,0,1-4.318,1.8c-.635.036-.817.249-.806.869.035,1.942.028,3.886,0,5.828a1.271,1.271,0,0,0,.55,1.16c1.049.79,2.061,1.628,3.155,2.5-1.117.891-2.177,1.714-3.2,2.574a1.229,1.229,0,0,0-.467.765c-.031,2.995-.019,5.99-.014,8.985a2.312,2.312,0,0,0,.1.415,17.775,17.775,0,0,0,6.126-7.188l.288.077c-.174,1.278-.242,2.581-.542,3.828a14.247,14.247,0,0,1-15.645,11.009,15.942,15.942,0,0,1-14.607-13.658c-.936-5.747,1.153-10.487,5.344-14.368a18.189,18.189,0,0,1,6.87-3.993c.2-.066.413-.121.623-.171C1574.785,1501.043,1574.837,1501.086,1574.859,1501.095Zm-1.137,5.443c-1.484.67-2.817,1.3-4.173,1.871a1.346,1.346,0,0,0-.885,1.038,17.92,17.92,0,0,0,.589,10.81,31.659,31.659,0,0,0,1.548,2.956c.848-.443,1.5-.83,2.19-1.13a.969.969,0,0,0,.648-1.049c.008-4.262.051-8.525.082-12.787C1573.726,1507.737,1573.723,1507.227,1573.723,1506.538Z" transform="translate(-1274.469 -1490.158)" fill="#696969"/>
    <path id="Path_1443" data-name="Path 1443" d="M684.828,1490.188a8.913,8.913,0,0,1,5.678,1.505c2.009,1.477,2.4,3.549,1.909,5.856-.6,2.8-2.74,4.413-6.8,5.14a42.357,42.357,0,0,1-.038,4.813,3.677,3.677,0,0,0,1.992,4.04,14.822,14.822,0,0,1,1.734,1.358c-1.12.895-2.2,1.734-3.244,2.607a1.117,1.117,0,0,0-.425.7c-.028,3.1-.018,6.2-.018,9.5a17.657,17.657,0,0,0,6.231-7.263l.23.038c-.065.824-.073,1.659-.2,2.473-1.753,10.885-12.282,14.839-20.864,11.183a15.356,15.356,0,0,1-9.754-13.087c-.73-6.428,2.091-11.334,7.152-15.087a17.121,17.121,0,0,1,5.4-2.684,3.5,3.5,0,0,1,.389-.1c.041-.008.09.037.243.106a15.25,15.25,0,0,0-5.4,5.6c-.193.368-.352.754-.621,1.336l11.539-5.211c.02.39.047.669.047.948,0,4.749-.014,9.5.02,14.248a1.133,1.133,0,0,1-.779,1.2c-2.634,1.236-5.25,2.512-7.872,3.776-.259.125-.509.269-1.021.541a26.615,26.615,0,0,0,3.354,2.313,12.78,12.78,0,0,0,10.882.253,1.054,1.054,0,0,0,.733-1.157q-.051-4.25,0-8.5a1.508,1.508,0,0,0-.6-1.307c-.956-.789-1.872-1.626-2.9-2.531.95-.807,1.835-1.621,2.789-2.343a1.7,1.7,0,0,0,.722-1.571c-.045-1.915,0-3.832-.035-5.747a.864.864,0,0,0-.428-.671c-4.379-1.138-8.762-2.26-13.156-3.332a15.907,15.907,0,0,0-3.5-.537,2.924,2.924,0,0,0-2.9,3.99,6.41,6.41,0,0,0,.795,1.309,4.816,4.816,0,0,1-3.538-5.163,7.705,7.705,0,0,1,9.019-7.019c2.74.506,5.39,1.487,8.088,2.225,1.867.511,3.733,1.052,5.63,1.414a3.6,3.6,0,0,0,2.163-.4,1.947,1.947,0,0,0,.092-3.479,8.777,8.777,0,0,0-1.791-.706,9.2,9.2,0,0,0-.992-.23Zm-14.514,33c.753-.393,1.4-.781,2.1-1.077a.967.967,0,0,0,.642-1.052c.019-4.506.069-9.012.109-13.518,0-.282,0-.565,0-.984-1.507.678-2.892,1.26-4.231,1.933a1.707,1.707,0,0,0-.8.975,18.328,18.328,0,0,0-.194,8.413A12.959,12.959,0,0,0,670.314,1523.185Z" transform="translate(-661.138 -1490.176)" fill="#696969"/>
    <path id="Path_1444" data-name="Path 1444" d="M1089.24,1520.659c-.061.12-.072.192-.11.21-2.061,1.039-2.171,3.733-.126,5.3a22.734,22.734,0,0,0,2.075,1.4,5.342,5.342,0,0,1,2.708,4.991c-.035,4.237,0,8.474-.022,12.711a1.281,1.281,0,0,0,.6,1.2c1.263.877,2.489,1.807,3.731,2.712.21.153.43.291.792.534a9.288,9.288,0,0,0,.134-1.053c.007-5.074,0-10.148.017-15.222a1.548,1.548,0,0,0-.572-1.33c-.5-.413-.942-.884-1.49-1.407l5-4.576,5.3,4.969a2.549,2.549,0,0,1-.511.423c-1.169.507-1.355,1.416-1.333,2.6.072,3.858.038,7.718.014,11.577a1.226,1.226,0,0,0,.623,1.178c1.331.871,2.629,1.793,3.943,2.692.191.13.4.239.742.447v-1.078c0-5.047-.016-10.094.018-15.14a1.945,1.945,0,0,0-.763-1.738c-.463-.356-.861-.8-1.337-1.246l5.117-4.575,4.28,3.624c.785-.072,1.081-1.264,2.169-.818-.788.6-1.45,1.155-2.162,1.635a1.275,1.275,0,0,0-.6,1.209c.019,4.7,0,9.392.025,14.088a1.208,1.208,0,0,1-.688,1.21q-5.41,3.168-10.777,6.408a1.083,1.083,0,0,1-1.358-.046c-1.62-1.069-3.291-2.063-4.909-3.134a.953.953,0,0,0-1.273.045c-1.643,1.177-3.318,2.311-5.046,3.506l-5.894-4.79-2.354,1.725-.236-.316c.527-.413,1.026-.87,1.588-1.226a1.639,1.639,0,0,0,.79-1.6c-.035-4.021-.046-8.043,0-12.063a4.916,4.916,0,0,0-1.518-3.7c-.458-.459-.933-.9-1.387-1.361a5.1,5.1,0,0,1-.573-6.842A7.686,7.686,0,0,1,1089.24,1520.659Z" transform="translate(-948.326 -1510.931)" fill="#696969"/>
    <path id="Path_1445" data-name="Path 1445" d="M938.7,1530.316l1.838-2c.012.678-3.889,5.246-6.418,7.722-.556-.487-1.094-1-1.677-1.46a4.324,4.324,0,0,0-3.255-.935,2.879,2.879,0,0,0-2.673,2.308,2.969,2.969,0,0,0,1.417,3.4c.649.352,1.384.545,2.088.949-.607-.045-1.218-.06-1.82-.139-2.951-.39-5.136-2.217-5.646-4.7a6.864,6.864,0,0,1,3.166-7.383,10.031,10.031,0,0,1,4.277-1.366c.345-.035.691-.06,1.067-.093a2.534,2.534,0,0,0,.078-.421c0-2.941,0-5.883.015-8.824,0-.482-.158-.717-.636-.7a6.868,6.868,0,0,0-1.2.092,1.849,1.849,0,0,0-1.139,3.173l.2.268c-1.738.166-3.594-2.063-3.749-4.277-.236-3.379,1.772-5.147,6.472-5.633.013-.242.04-.5.04-.757q.005-3.076,0-6.153a3.581,3.581,0,0,0-2.491-2.859c-1.04-.244-1.983.321-2.606,1.585-.2.4-.355.821-.555,1.288-.567-2.179.393-6.19,3.088-7.645a5.633,5.633,0,0,1,7.2,1.485,19.733,19.733,0,0,1,1.969,2.857q6.258,10.861,12.467,21.751c.154.269.319.532.594.991v-19.124a21.572,21.572,0,0,1-3.133-.814,21.937,21.937,0,0,1-2.8-1.667l-1.849,2.025-.258-.254,6.635-7.588a6.782,6.782,0,0,0,4.541,2.021c2.029,0,2.953-1.281,3.584-3.011,2.138,3.708-.825,8.014-6.257,9.184v32.225c-.742.35-1.072.04-1.4-.531q-8.819-15.406-17.669-30.794c-.156-.271-.327-.533-.592-.964-.021.416-.042.643-.042.869,0,7.124.006,14.247-.014,21.371,0,.61.106.886.786.993a9.932,9.932,0,0,1,4.714,2.187C937.588,1529.39,938.1,1529.825,938.7,1530.316Z" transform="translate(-839.07 -1493.065)" fill="#696969"/>
    <path id="Path_1446" data-name="Path 1446" d="M1714.724,1542.224a2.12,2.12,0,0,0-1.543,2.314c.094,4.45.055,8.9.019,13.355a2.1,2.1,0,0,0,.807,1.882,17.68,17.68,0,0,1,1.292,1.21l-5.12,4.572-5.188-4.43c.094-.136.125-.222.186-.263,1.487-1.005,1.721-2.429,1.672-4.131-.113-3.856-.024-7.716-.055-11.575a2.037,2.037,0,0,0-.427-1.141c-.608-.783-1.3-1.505-1.973-2.275l-1.594,1.026-.166-.1c.061-.151.078-.364.189-.442,2.1-1.463,4.212-2.91,6.368-4.392l4.16,4.8,6.123-4.8,5.47,4.8,6.236-4.8,5.436,4.879,1.968-1.355.2.3c-.512.406-1.056.78-1.523,1.233a1.5,1.5,0,0,0-.483.917q-.045,7.285,0,14.571a1.5,1.5,0,0,0,.384.9c.523.579,1.148,1.067,1.667,1.649a.737.737,0,0,0,1.215.08,2.026,2.026,0,0,1,.99-.463c-2.177,1.867-4.627,3.343-6.995,5.02l-5.283-4.843c.039-.1.047-.2.1-.234,1.246-.912,1.413-2.164,1.376-3.622-.09-3.533-.045-7.069-.014-10.6a1.592,1.592,0,0,0-.63-1.376c-1.074-.9-2.107-1.844-3.145-2.761a2.246,2.246,0,0,0-1.442,2.346c.079,4.5.05,9.012.015,13.517a1.957,1.957,0,0,0,.761,1.74c.461.361.859.805,1.335,1.26l-5,4.568-5.3-4.431c.073-.121.089-.182.13-.211,1.49-1.059,1.666-2.546,1.615-4.251-.1-3.478-.041-6.961-.022-10.441a1.408,1.408,0,0,0-.552-1.243C1716.863,1544.086,1715.794,1543.138,1714.724,1542.224Z" transform="translate(-1370.462 -1522.627)" fill="#696969"/>
    <path id="Path_1447" data-name="Path 1447" d="M771.5,1541.334a2.941,2.941,0,0,1,.353-.171c3.158-1.054,4.7-3.393,5.084-6.562a50.8,50.8,0,0,0,.358-5.483c.051-4.318.009-8.636.026-12.954a1.418,1.418,0,0,0-.556-1.245c-1.109-.9-2.178-1.847-3.243-2.758a2.71,2.71,0,0,0-1.735,2.933c.11,4.451.052,8.906.026,13.359a1.852,1.852,0,0,0,.626,1.481c.6.574,1.141,1.218,1.661,1.782.747-.412,1.345-.745,1.951-1.062.019-.01.123.143.242.287l-3.667,2.412c-.9.592-1.829,1.149-2.7,1.788-.478.352-.753.266-1.154-.112-1.49-1.407-3.017-2.773-4.558-4.178l-1.65,1.04-.194-.311c.793-.617,1.616-1.2,2.363-1.869a1.615,1.615,0,0,0,.527-1.051c.029-8.582.016-17.165.028-25.747a3.038,3.038,0,0,0-2.151-3.252l8.651-5.943v19.017l6.5-4.948,5.461,4.9,1.852-1.375.181.2a4.5,4.5,0,0,1-.711.686,2.58,2.58,0,0,0-1.233,2.549c.074,4.479.037,8.96.026,13.44a20.657,20.657,0,0,1-.963,6.778,9.129,9.129,0,0,1-8.355,6.468c-1,.1-2.018.108-3.027.158Z" transform="translate(-730.088 -1492.582)" fill="#696969"/>
    <path id="Path_1448" data-name="Path 1448" d="M1341.662,1537.82c2.345,1.714,4.677,3.406,6.987,5.13a1.048,1.048,0,0,1,.325.746q.029,7.12,0,14.241a1.062,1.062,0,0,1-.423.764c-3.443,2.17-6.909,4.3-10.356,6.467a.753.753,0,0,1-1-.108c-2.274-1.685-4.559-3.356-6.9-5.073l-1.837,1.481-.206-.239a8.715,8.715,0,0,1,1.078-.9,2.264,2.264,0,0,0,1.117-2.266c-.067-4.342-.016-8.686-.043-13.028a1.179,1.179,0,0,1,.7-1.194C1334.626,1541.861,1338.127,1539.843,1341.662,1537.82Zm-4.729,3.433v.97c0,4.449.067,8.9-.038,13.345a3.109,3.109,0,0,0,1.643,3.2c1.385.8,2.635,1.833,4.029,2.824a4.875,4.875,0,0,0,.085-.579c0-5.042.012-10.083-.018-15.125a1.334,1.334,0,0,0-.495-.9c-1.521-1.16-3.077-2.274-4.625-3.4C1337.371,1541.479,1337.206,1541.407,1336.933,1541.253Z" transform="translate(-1115.484 -1522.619)" fill="#696969"/>
    <path id="Path_1449" data-name="Path 1449" d="M1896.433,1564.25a5.473,5.473,0,0,0-3.776-2.3,4.169,4.169,0,0,0-2.152.428,1.768,1.768,0,0,0-.32,2.939.818.818,0,0,1,.255.511,2.967,2.967,0,0,1-.649-.154,4.82,4.82,0,0,1-2.4-5.837,9.1,9.1,0,0,1,2.2-3.726c.7-.777,1.481-1.489,2.3-2.3-1.16-.9-2.27-1.79-3.407-2.639a1.174,1.174,0,0,1-.548-1.065c.028-2.346,0-4.693.028-7.039a1.039,1.039,0,0,1,.345-.784c3.282-1.852,6.584-3.667,9.866-5.481,3.39,2.96,4.968,2.945,7.471-.035.745,2.806-.223,5.336-3.758,9.77,1.283.973,2.552,1.963,3.855,2.906a1.234,1.234,0,0,1,.566,1.143c-.025,2.346.009,4.693-.033,7.039a1.321,1.321,0,0,1-.5.957C1902.7,1560.477,1899.6,1562.333,1896.433,1564.25Zm-7.526-6.6c4.616-1.736,8.257-.986,10.853,3.48,0-2.814.005-5.371-.009-7.928a.83.83,0,0,0-.224-.559c-.823-.725-1.671-1.42-2.517-2.13A28.985,28.985,0,0,0,1888.907,1557.647Zm14.927-14.372c-3.91,1.464-7.047.713-9.28-3.011-.064,2.547-.069,5.019-.053,7.491a.728.728,0,0,0,.254.47c.731.629,1.481,1.237,2.26,1.881A25.64,25.64,0,0,0,1903.834,1543.275Z" transform="translate(-1496.149 -1521.898)" fill="#696969"/>
    <path id="Path_1450" data-name="Path 1450" d="M1466.711,1493.633v1.078c0,10.707.043,21.415-.043,32.121a4.532,4.532,0,0,0,1.776,4.168,3.058,3.058,0,0,1,.538.739c.632-.423,1.089-.75,1.57-1.036.12-.072.315-.016.476-.019-.068.146-.1.354-.212.43-2.177,1.444-4.364,2.873-6.607,4.342l-5.066-4.624c-.687.128-1.04.9-1.728.915l-.144-.229c.747-.586,1.472-1.2,2.25-1.747a1.439,1.439,0,0,0,.671-1.341q-.031-12.541-.009-25.082c0-1.625-.206-3.1-2.191-3.724Z" transform="translate(-1203.354 -1492.525)" fill="#696969"/>
    <path id="Path_1451" data-name="Path 1451" d="M1024.548,1559.566l-2.25,1.675-.2-.28c.513-.4,1-.848,1.545-1.2a1.452,1.452,0,0,0,.685-1.411c-.025-4.531-.011-9.063-.017-13.594,0-.416.012-.742.471-.991,3.646-1.979,7.275-3.992,10.91-5.993a2.816,2.816,0,0,1,.353-.129l5.192,8.1c-.241.182-.465.361-.7.527-3.057,2.167-6.111,4.339-9.181,6.488a1.484,1.484,0,0,0-.635,1.184,3.327,3.327,0,0,0,1.735,3.6,40.152,40.152,0,0,1,3.892,3.027.717.717,0,0,0,1.1-.009c1.375-1.129,2.78-2.223,4.187-3.313a2.585,2.585,0,0,1,.661-.266l.112.264c-.2.174-.388.356-.593.521-2.942,2.367-5.9,4.716-8.815,7.111a.821.821,0,0,1-1.231-.008c-2.178-1.634-4.38-3.237-6.575-4.849C1024.978,1559.861,1024.756,1559.712,1024.548,1559.566Zm6.367-6.919,5.01-3.484-4.867-7.713-.143.067Z" transform="translate(-906.973 -1522.5)" fill="#696969"/>
    <path id="Path_1452" data-name="Path 1452" d="M853.53,1537.825l5.222,8.153c-.258.2-.482.376-.716.542-3.058,2.167-6.111,4.342-9.184,6.487a1.416,1.416,0,0,0-.591,1.121,3.323,3.323,0,0,0,1.761,3.655c1.518.965,2.886,2.168,4.388,3.32,1.564-1.236,3.119-2.472,4.686-3.694a3.905,3.905,0,0,1,.694-.35l.288.406a3.727,3.727,0,0,0-.62.33q-4.486,3.589-8.952,7.2a.79.79,0,0,1-1.174.037c-2.143-1.591-4.336-3.116-6.475-4.713-.585-.437-1.013-.578-1.556.019a7.029,7.029,0,0,1-1.132.912,1.492,1.492,0,0,1-.478.136l-.09-.205c.564-.437,1.106-.907,1.7-1.3a1.187,1.187,0,0,0,.557-1.142q-.028-6.879.006-13.759a1.217,1.217,0,0,1,.4-.92C845.968,1541.977,849.7,1539.934,853.53,1537.825Zm-5.177,3.571v11.353l4.978-3.463Z" transform="translate(-782.681 -1522.622)" fill="#696969"/>
    <path id="Path_1453" data-name="Path 1453" d="M1840.408,1561.211l5.19-4.1.172.1c-.054.158-.061.376-.171.465-3.247,2.627-6.505,5.24-9.786,7.877-2.574-1.868-5.109-3.7-7.622-5.554a1.046,1.046,0,0,1-.338-.744q-.029-7.244,0-14.489a.938.938,0,0,1,.38-.7c3.738-2.089,7.491-4.15,11.293-6.245l5.238,8.175-4.707,3.335c-1.761,1.246-3.536,2.474-5.27,3.756a1.668,1.668,0,0,0-.517.973A3.3,3.3,0,0,0,1836,1557.8C1837.537,1558.777,1838.9,1560.029,1840.408,1561.211Zm-1.076-11.924-4.9-7.762-.129.074v11.179Z" transform="translate(-1455.733 -1522.622)" fill="#696969"/>
    <path id="Path_1454" data-name="Path 1454" d="M1408.452,1542.3l4.143-4.411a3.4,3.4,0,0,0,4.853.4c.3,2.11-1.49,5.564-3.32,6.47a3.1,3.1,0,0,1-3.166-.153c-.771-.479-1.463-1.086-2.252-1.683a4.7,4.7,0,0,0-.066.566q-.005,7.449.009,14.9a1.325,1.325,0,0,0,.289.86c.816.819,1.685,1.584,2.549,2.382l1.885-1.027.167.279-7.054,4.673-2.962-2.49c-.7-.591-1.427-1.156-2.1-1.783a.7.7,0,0,0-1.1-.03,10.3,10.3,0,0,1-1.033.69l-.2-.3a18.723,18.723,0,0,1,1.839-1.435,2.2,2.2,0,0,0,1.09-2.195c-.058-4.263-.011-8.528-.046-12.792a2.255,2.255,0,0,0-.484-1.275c-.6-.758-1.3-1.437-1.993-2.186l-1.9,1.117-.2-.351,6.882-4.7Z" transform="translate(-1162.582 -1522.621)" fill="#696969"/>
    <path id="Path_1455" data-name="Path 1455" d="M1503.941,1561.454l2.1-1.29c-.159.62-5.268,4.158-7.607,5.378l-10.456-16,7.959-11.661c2.448,2.259,4.937,2.552,7.535.146-.334,2.714-1.238,5.014-3.622,6.373-2.555,1.457-4.775.28-6.889-1.17-.671.468-.736.9-.266,1.593,3.613,5.3,7.186,10.632,10.771,15.952C1503.6,1560.98,1503.745,1561.175,1503.941,1561.454Z" transform="translate(-1224.27 -1522.664)" fill="#696969"/>
    <path id="Path_1456" data-name="Path 1456" d="M1668.178,1565.6l-5.086-4.641-1.62,1.047-.2-.314c.747-.586,1.471-1.205,2.25-1.746a1.435,1.435,0,0,0,.661-1.348q-.037-6.517,0-13.034a2.483,2.483,0,0,0-.646-1.828c-.541-.593-1.019-1.243-1.55-1.9l-1.71,1.044c.073-.609,3.859-3.406,6.526-4.941.654.773,1.316,1.552,1.976,2.334s1.318,1.566,2.007,2.384l1.886-1.209.169.273a19.662,19.662,0,0,0-1.526,1.254,1.5,1.5,0,0,0-.466.925c-.029,4.992-.024,9.985-.01,14.977a1.3,1.3,0,0,0,.253.8c.659.745,1.371,1.445,2.078,2.176l1.865-1.215C1674.963,1561.264,1671.266,1563.872,1668.178,1565.6Z" transform="translate(-1341.616 -1522.701)" fill="#696969"/>
    <path id="Path_1457" data-name="Path 1457" d="M1672.2,1511.579l-4.137-4.677,4.786-4.032,4.139,4.677Z" transform="translate(-1346.916 -1498.816)" fill="#696969"/>
  </g>
</svg>
