<svg id="wsj" xmlns="http://www.w3.org/2000/svg" width="91.873" height="44.439" viewBox="0 0 91.873 44.439">
  <path id="Path_1413" data-name="Path 1413" d="M54.551,1212.752c-.55.1-1.044.176-1.526.3a1.786,1.786,0,0,0-1.612,2.182,17.35,17.35,0,0,0,.451,2.611q2.745,11.076,5.526,22.143c.049.194.134.38.2.57l.133.01c.055-.168.121-.334.163-.505q2.413-10.044,4.822-20.088c.075-.313.138-.628.223-.938.539-1.978-.365-3.6-1.33-5.178a2.583,2.583,0,0,0-1.984-.961c-.267-.043-.535-.078-.822-.12v-1.361c.191-.009.362-.024.534-.024,4.106,0,8.212.006,12.318-.011.463,0,.654.124.586.59a1.849,1.849,0,0,0,0,.434c.027.278-.075.387-.367.427a17.526,17.526,0,0,0-2.134.383,1.742,1.742,0,0,0-1.48,2.33c.3,1.529.664,3.046,1.026,4.563q2.081,8.707,4.18,17.411.462,1.924.928,3.848a.69.69,0,0,0,.254.393,4.6,4.6,0,0,0,.178-.5q1.636-7.024,3.264-14.05c.829-3.573,1.666-7.145,2.482-10.721a8.424,8.424,0,0,0,.2-1.623,1.377,1.377,0,0,0-1.027-1.47c-.925-.253-1.881-.391-2.824-.577-.078-.016-.157-.024-.274-.041v-1.359c.176-.008.332-.023.489-.023,3.027,0,6.054.007,9.082-.011.431,0,.552.122.538.545-.029.831,0,.879-.844.991a3.7,3.7,0,0,0-3.359,3.158c-.631,2.693-1.321,5.371-1.972,8.059q-1.964,8.117-3.911,16.237-1.721,7.153-3.433,14.31c-.079.33-.189.516-.568.49a.384.384,0,0,1-.415-.353q-1.223-5.064-2.468-10.122-2.316-9.447-4.635-18.892c-.291-1.187-.576-2.375-.866-3.562-.04-.161-.1-.318-.147-.477H64c-.109.408-.227.814-.325,1.225q-2.385,9.9-4.767,19.8-1.435,5.958-2.873,11.914c-.062.257-.086.483-.463.478-.36,0-.454-.167-.529-.473q-2.378-9.728-4.772-19.453-2.205-8.976-4.414-17.951c-.212-.858-.452-1.709-.7-2.558a2.076,2.076,0,0,0-1.643-1.533c-.861-.187-1.734-.313-2.666-.476,0-.347-.017-.714.012-1.077.008-.095.147-.213.252-.256a1.09,1.09,0,0,1,.382-.012H53.91c.64,0,.64,0,.641.662Z" transform="translate(-40.844 -1211.097)" fill="#696969"/>
  <path id="Path_1414" data-name="Path 1414" d="M214.384,1211.1v.5q0,5.7-.007,11.4c0,.216.164.566-.267.6-.378.026-.717.081-.909-.443a29.639,29.639,0,0,0-3.634-7.218,9.6,9.6,0,0,0-4.13-3.594,4.586,4.586,0,0,0-4.879.505,5.5,5.5,0,0,0-1.9,3.786,9.238,9.238,0,0,0,2.056,6.986,27.942,27.942,0,0,0,4.731,4.595,61.3,61.3,0,0,1,7.046,6.219,13.57,13.57,0,0,1,1.339,17.365,7.771,7.771,0,0,1-8.764,2.584,16.166,16.166,0,0,1-4.67-2.669c-.193-.144-.393-.279-.592-.416-.961-.661-1.485-.72-2.325.082a19.436,19.436,0,0,0-1.886,2.357c-.191.25-.821.455-1.049.253a.708.708,0,0,1-.119-.475q-.009-5.409-.005-10.819v-2.437c.912-.19.97-.158,1.306.567a35.709,35.709,0,0,0,5.462,8.721,11.908,11.908,0,0,0,4.591,3.517,4.4,4.4,0,0,0,6.115-2.953,9.833,9.833,0,0,0-1.691-9.165,27.987,27.987,0,0,0-5.254-5.022,58.142,58.142,0,0,1-6.362-5.538,13.579,13.579,0,0,1-4.04-9.343,10.87,10.87,0,0,1,3.188-8.23A8.241,8.241,0,0,1,208,1211.792c.6.38,1.159.812,1.728,1.232,1.277.94,2.134.8,3.037-.514.218-.318.413-.652.6-.988C213.672,1210.977,213.666,1210.973,214.384,1211.1Z" transform="translate(-148.093 -1210.454)" fill="#696969"/>
  <path id="Path_1415" data-name="Path 1415" d="M282.35,1212.892v-1.352h14.527a.763.763,0,0,1,.054.152c.129,1.2.129,1.188-1.059,1.205a11.414,11.414,0,0,0-1.585.114,1.651,1.651,0,0,0-1.54,1.545,9.234,9.234,0,0,0-.09,1.442q-.007,14.66,0,29.32a10.99,10.99,0,0,1-1.155,5.275,9.007,9.007,0,0,1-7.711,5.036,6.888,6.888,0,0,1-7.569-5.873,6.785,6.785,0,0,1,.87-5.156,4.022,4.022,0,0,1,3.473-2.1,2.717,2.717,0,0,1,2.636,1.779,3.063,3.063,0,0,1-.507,3.468,11.977,11.977,0,0,1-1.377,1.128,4.817,4.817,0,0,1-.52.351,2.135,2.135,0,0,0-1.225,2.469,2.708,2.708,0,0,0,2.221,2.365,7.552,7.552,0,0,0,2.246-.041,3,3,0,0,0,2.344-2.136,13.973,13.973,0,0,0,.628-4.475c.038-1.255.037-2.511.038-3.767q0-13.766-.005-27.532a9.62,9.62,0,0,0-.159-1.723,1.473,1.473,0,0,0-1.22-1.228,22.989,22.989,0,0,0-2.293-.255C283.052,1212.869,282.73,1212.892,282.35,1212.892Z" transform="translate(-205.114 -1211.212)" fill="#696969"/>
</svg>
